<?xml version="1.0" encoding="UTF-8"?><svg id="Layer_1" xmlns="http://www.w3.org/2000/svg" width="551.46" height="132.46" viewBox="0 0 551.46 132.46"><defs><style>.cls-1{fill:#000;}</style></defs><path fill="#fff" d="M477.32,9.7l-1.1,31.89-2.22,23.99c.61,3.47-.17,6.93-.4,10.42-.88,13.75-2.02,27.78-2.62,41.82-.1,2.22,1.14,4.75-1.12,6.93-2.14-.04-4.3.02-6.44-.02-109.25-2.09-218.54-3.37-327.78-5.24-16.4.72-32.91.42-49.25-.21.96-5.15.47-10.69.49-15.98.08-18.31.15-37.21-.3-55.59-.07-2.85,1.74-5.88,2.02-8.81.26-2.77.54-7.35-1.65-9.29l1.64-.56.36-4.38-1.51-1.08c2.47-2.43-.36-5.07-.31-5.97.02-.4.88-.94.9-1.63.01-.62-1.99-3.13-1.06-4.06.3-.3,1.79.49,1.6-.57l-2.17-1.64h390.93Z"/><path class="cls-1" d="M452.45,101.01c-.25.29-5.01,2.01-5.81,2.14-1.11.19-2.06-.26-2.91-.13-1.29.2-4.87,2.09-5.67.81l-4.62-24.55c-3.15.79-5.49-1.11-8.66-.49-.46,2.1-1.63,8.87-3.35,10-.51.33-10.87,2.96-11.77,3-.78.04-1.5.01-1.79-.88-.31-.97,5.33-14.41,5.25-16.98l9.01-41.68c.4-.98,3.55-2.6,4.67-2.96,2.2-.71,9.6-2.43,10.19.38,4.07,20.29,10.2,40.21,14.18,60.5.35,1.77,2.09,9.9,1.27,10.83Z"/><path class="cls-1" d="M193.42,31.99c.76.8,3.58,18.72,4.21,21.68,2.18,10.18,5.19,20.21,7.2,30.42.58,2.93,2.55,10.99,1.73,13.39s-12.09,2.87-14.65,3.07c.23-7.39-1.66-14.71-3.53-21.8-1.17,1.18-6.66,1.47-7.26,2.29-.33.44-2,8.85-2.68,10.67-.37.99-1.21,3.64-1.79,4.2-.55.53-12.63,3.14-13.29,2.96-2.7-.77.45-4.96.86-6.11,4.93-13.65,7.09-29.21,10.62-43.35.66-2.66,3.25-14.79,5.08-15.64.8-.37,1.8-.08,2.31-.31s.31-.81,1.2-1.09c1.48-.46,9.17-1.23,9.99-.37ZM188.1,76.01l-3.27-11.44-2.73,13.08,6-1.64Z"/><path class="cls-1" d="M269.81,33.58l1.17,24.99c5.83-2.4,12.63-4.45,18.9-5.36,7.57-1.1,9.9-1.88,10.56,6.7l.54,35.46c-3.4,4.3-9.89,3.32-14.73,5.17-1.6-13.83.59-28.11-1.21-41.86-6.1-2.21-8.44,3.98-13.54,5.69-.06,11.13,1.78,22.24,1.57,33.35-4.52,2.8-9.33.64-14.08,2.27l-3.31-65.1c1.97-.6,13.36-2.55,14.13-1.33Z"/><path class="cls-1" d="M124.22,37.95l2.82,24.98c8.07-1.41,16.06-4.79,24.28-5.46,1.05-.09,5.55-.11,6.47.03,2.12.31,2.44,1.27,2.91,3.12,1.33,5.28,2.55,17.11,2.86,22.76.07,1.38.36,5.26-.54,6-.55.45-4.56,1.85-5.54,2.1-3.88.98-8.01,1.06-12.03,2.14s-7.92,3.42-12.21,4.15c-6,1.02-11.25.08-17.12-.49l-6-60.51c4.72.03,9.55-.37,14.09,1.19ZM148.84,88.55l-2.96-25.65c-1.21-1.8-10.31,2.01-12.28,2.51-1.84.47-4.11.64-6.02.8.27,3.46,1.46,24.08,2.85,25.48,1.69,1.7,9.72-1.84,12.3-2.43,2.01-.46,4.03-.87,6.11-.71Z"/><path class="cls-1" d="M388.2,68.66c.28-.89,6.08-1.41,7.37-1.41,1.56,0,7.06.52,7.63,1.68.81,1.66.27,19.71-.8,20.47-8.41,1.82-17.42-1.02-25.93-1.93-5.27-.56-10.86-.39-16.32-1.15-.55-.08-1.45-.24-1.81-.62-2.01-2.07-1.63-22.71-1.74-26.88-.15-5.6-1.33-11.8-.59-17.45.14-1.09.2-1.46,1.12-2.15,1.67-1.26,17.48-3.38,20.45-3.54s15.27.48,17.15,2.46,2.99,13.49,4.64,17.17c.57,1.28,1.92,1.72,1.94,1.95,0,.12-.44,2.4-.56,2.4h-13.9c-.91,0-2.53-6.34-2.84-7.51-.52-1.94-2.15-11.52-2.59-12.13-1.02-1.43-8.74.75-10.58,1.18l.48,29.09,1.11,13.33,15.78,1.12v-16.08Z"/><path class="cls-1" d="M352.21,80.1c-.77,3.64-10.94,3.05-13.93,3.02-3.41-.03-6.92.04-10.31,0-6-.07-11.94-.33-17.93-.55-1.18-.28-1.13-11.68-1.48-13.9-.17-1.05-1.1-2.01-1.1-2.74,0-.31,1.03-.01,1.17-1.07.62-4.68-2.48-22.88-.65-25.17,2.51-3.13,25.56-3.03,30.34-2.97.96.01,1.87.46,2.71.47,2.43.02,4.64-2.16,7.08,1.2,1.69,2.33,1.61,10.21,1.61,13.35,0,1.76.02,8.72-.33,9.72-.18.51-2.43,2.1-3.04,2.41-1.89.93-9.16,2.39-11.47,2.69-3.53.45-7.4-.21-10.99.74l.52,10.88h12.54c.12-2.51-.44-5.19.62-7.56,5.09-.64,9.53-1.59,14.65-.07-.4,2.79.55,6.97,0,9.54ZM323.86,61.84h10.09c.06,0,.82-.76.82-.82v-15.26c0-.16-1.11-2.75-1.24-2.86-.28-.25-1.19-.29-1.76-.67-.61-.4-.93-1.29-1.75-1.54-2.38-.74-5.31.9-7.8.44l1.64,20.71Z"/><path class="cls-1" d="M247.53,58.03h-14.18c-.59-3.54.71-11.98-3.66-12.96-7.48-1.69-7.92,3.61-8.33,9.43-.34,4.8-.64,19.2.83,23.14,1.56,4.16,4.99,2.98,8.74,2.23.91-1.3-.23-10.8.25-13.37.65-3.45,8.58-2.19,11.17-1.94.51.05,4.08-.83,4.08.83v15.81c0,.16-.71,2.4-.87,2.51-.5.35-5.57,1.58-6.48,1.61-6.41.26-15.29-.95-21.82-1.67-4.89-.54-9.19.84-10.5-5.86-1.18-6.03-.45-11.9-.13-17.87.24-4.61-.85-14.64,4.41-16.85,4.3-1.8,15-1.7,19.85-1.4,2.54.16,11.75,1.19,13.58,2.23,3.48,1.98,2.73,10.53,3.06,14.11Z"/></svg>