<?xml version="1.0" encoding="UTF-8"?><svg id="Layer_1" xmlns="http://www.w3.org/2000/svg" width="551.46" height="132.46" viewBox="0 0 551.46 132.46"><defs><style>.cls-1{fill:#000;}</style></defs><path fill="#fff" d="M458.23,14.21l2.18,109.56-100.62-.02c-47.95-.23-96.57.41-144.44.59-8.44.03-16.34-.22-24.58-1.1-1.36-.15-4.13,1-5.96,1.1-10.92.56-22.94-.02-33.8,0-19.87.04-41.44-1.13-61.05-.03-1.37.08-2.7.8-4.13.55l7.08-115.03,365.3,4.37Z"/><path class="cls-1" d="M390.99,81.64l8.79-.86,9.33-44.26c2.55-.93,4.25-2.33,6.95-3.14,1.14-.35,6.03-1.4,6.75-.85.5.38,1.27,3.68,1.52,4.61,2.86,10.62,5.48,22.27,7.84,33.04,2.14,9.73,4.02,19.52,5.64,29.35-4.12,3.2-9.48,2.83-14.09,5l-3.86-20.69-7.9-.41-.83,1.16-4.41,15.49-13.54,4.46c-1.9-1.73,6.15-17.26,5.45-20.71-5.95,1-12.91,3.5-18.89,3.77-2.33.11-3.36-.55-3.35-2.95.04-8.1,1.81-17.27,2.08-25.59s-.3-16.31.11-24.45c.09-2.98,12.17-5.7,13.7-5.22.53.16.94.56.8,1.16l-2.08,51.1ZM418.8,77.81l-3.26-11.99-2.19,11.99h5.45Z"/><path class="cls-1" d="M152.73,60.92h-12.81c-.16,0-.77.75-1.36.54l-1.1-22.89c-2.77,1.11-8.18,1.38-10.54,2.81-.67.41-.76.45-.91,1.27-.93,4.94.55,16.29,1.17,21.74,1.35,12.02,3.89,23.96,6.51,35.74l19.02-3.8c.65-.68-2.66-17.67-3.5-18.52-1.59-1.61-9.71,1.29-12.02,1.15-1.97-.12-2.5-1.62-1.21-2.63.56-.44,1.92-.32,2.7-.72,3.64-1.83,7.97-2.97,12.29-3.63,2.89-.44,10.83-1.68,12.68.65,1.31,1.64,4.87,20.24,4.36,22.28-.1.4-6.02,3.82-7.1,3.92l-38.48,9.01c-2.1.04-2.53-1.83-3.13-3.42-4.56-12.23-8.15-41.83-8.56-55.22-.07-2.38-.44-7.37,1.05-9.15,1.16-1.38,22.43-6.05,25.46-6.31,2.59-.22,12.47-.19,13.87,1.8,1.57,8.25.57,16.98,1.6,25.39Z"/><path class="cls-1" d="M242.42,78.91c1.55-.5.66-5.31,2.84-5.92.31-.09,5.81-.11,6.37-.05.59.06,6.6,1.65,6.9,1.86,1.28.89-.4,8.08-1.37,9.04-2.33,2.28-12.08.07-15.26-.04-9.13-.3-10.7.85-20.23-1.58-1.79-.46-4.49.41-5.97-1.66.18-10.61-1.15-22.53-.28-33.01.1-1.2.42-3.93,1.33-4.67.52-.43,5.43-.98,6.58-1.06,6.75-.44,20.28-.66,26.58.73,1.2.27,5.18,1.52,6.09,2.09,4.22,2.67,4.16,17.62,2.99,22.2-1.1-.34-2.92.62-3.47.62h-23.72s.09.61-.19.9-.9.15-.9.19v10.36c2.92-.57,9.3.77,11.72,0ZM244.33,63.1v-10.08c0-.64-1.22-6.3-1.6-6.57-4.02-.95-7.98.72-12.03.3-.41,5.63-.73,11.24-.54,16.9,4.71-.55,9.42-.67,14.18-.55Z"/><path class="cls-1" d="M205.45,45.3c.14.04.15.76.56.87,1.54.43,3.87-.37,4.84,1.9-2.13,10.12-2.83,20.86-4.86,30.93-1.17,5.78-2.86,12.79-9.91,13.53-3.99.42-14.45-1.91-18.01-3.8-7.8-4.14-6.9-18.38-6.25-25.91.18-2.12,1.93-16.49,2.42-17.2.45-.66,1.46-.56,2.18-.53,1.33.05,10.38,1.67,10.98,2.15.33.26.55.59.69.99-.59,10.47-4.25,24.22-1.16,34.38.21.69.47,2.6,1.51,2.3.44-.13,2.07-4.47,2.3-5.34,2.86-10.8,2.59-23.55,5.87-34.46.73-.97,7.36-.19,8.84.2Z"/><path class="cls-1" d="M277.46,33.79c1.25,1.23.29,6.59,1.22,8.6,10.84-3.65,21.04-.91,31.48,2.05,3.07.87,3.22-.63,3.96,4.21-.05.66-10-.69-11.11-.89-5.87-1.06-6.47-2.85-13.13-.98-3.38.95-6.33,2.93-8.46,5.71-2.36,3.07-1.78,6.03-1.67,9.82.2,7.66.98,15.76,1.66,23.41.11,1.24,1.17,5.92,1.02,6.51-.43,1.7-6.84,1.19-8.28.84-.42-.1-.33-.96-.76-1.06-1.06-.26-5.1.04-5.65-.92-.61-1.09-1.44-12.88-1.6-15.18-.59-8.32-.59-16.73-1.1-25.06-.31-5.05-1.49-10.97-1.58-15.87-.01-.62.33-2.84.83-2.97,1.33-.36,12.38,1.02,13.17,1.79Z"/><path class="cls-1" d="M368.6,33.13c1.63,1.61.16,30.04-.53,34.58,1.1,7.66-2.27,19.43-.93,26.6.1.55.37,1.69.68,2.05,1.22,1.42,9.59-1.11,12-1.11,1.11,0,1.12.54.83,1.38-.36,1.04-9.74,4.01-11.43,4.39-2.19.49-10.35,1.96-12.15,1.78-3.46-.35-4.23-3-4.28-6.18-.18-10.33,1.9-22.18,2.25-32.68.28-8.71-.25-17.48-.03-26.19,0-.76.36-.93.91-1.27.8-.48,12.22-3.81,12.68-3.35Z"/><path class="cls-1" d="M309.68,53.91c.4.66-.17,2.95.07,3.2.33.34,8.03-.14,9.57-.03,1.76.13,11.67,1.15,11.15,3.56-.32,1.48-5.61.12-7.31.33-3.67.44-10.79,4.53-12.02,8.15s.1,10.58.27,14.4c.12,2.65-.3,5.59,0,8.17.12,1.04,1.41,2.27.81,3.04-4.86,2.28-9.98-.8-15.02-.56l-1.64-41.43c1.87-.16,13.5.18,14.1,1.17Z"/><path class="cls-1" d="M346.24,96.88c-2.81-.22-5.45.13-8.27-.56-.45-.11-.39-.94-.79-1.03-.89-.21-5.23-.22-5.62-.57,1.59-3.67,1.25-29.68,2.5-30.58,1.64-1.19,12.96.53,13.76,2.62,1.06,2.78-.34,9.79-.46,12.96-.22,5.74.5,11.56-1.11,17.17Z"/><path class="cls-1" d="M347.38,49.2c-.15.51-1.32,1.16-1.87,1.4-1.19.51-10.68,3.24-11.53,3.22-2.81-.07-.82-4.11-.74-5.13.16-1.97-.69-4.92.76-6.33,1.28-1.26,13.39-4.7,13.39-2.42,0,2.07.42,7.8,0,9.27Z"/></svg>