<?xml version="1.0" encoding="UTF-8"?><svg id="Layer_1" xmlns="http://www.w3.org/2000/svg" width="551.46" height="132.46" viewBox="0 0 551.46 132.46"><defs><style>.cls-1{fill:#000;}</style></defs><path fill="#fff" d="M482.43,83.66c.13.17.62.19.88.17v.53c-.61.04-1.35.26-1.57.89-.1.28-.64,5.39-.63,5.95.02,1.27.88,1.98.96,2.78.76,7.61.28,15.64.66,23.38.1,1.95,1.99,13.38-.32,13.92-8.15-.21-16.32.19-24.47,0-4.61-.11-9.51-.37-14.18-.6-3.89-.19-3.48-.38-7.57.07-3.09.34-5.92-.59-8.76-.64-15.54-.26-31.3.35-46.91.07-20.25-.36-40.47-1.73-60.48-1.68-51.28.11-102.24-1.04-153.25-2.13-35.32-.75-71.5-1.8-107.36-2.23-3.46-.04-6.69.54-10.11.56,1.52-6.1,1.54-12.52,2.22-18.76,2.69-24.41,3.35-49.99,6.1-74.57.93-8.32,2.53-16.58,3.13-24.95,6.81-.12,13.65.13,20.46.02,107.74-1.78,216.08-2.68,323.85-3.84,2.27-.02,4.55,0,6.81,0-.37.73-.46,1.43.53,1.63.12-2.08,1.91-1.68,3.53-1.67l.32,1.62.78.08c2.86.13,2.78-1.58,3.8-1.7,16.33.79,32.85-.61,49.1-.56,2.85,0,6.14,1.06,9.19.67l.82.82c-.21,2.01.41,4.06.51,5.92,1.23,21.61-.33,44.09,1.19,65.42.17,2.43-.63,7.03.75,8.83Z"/><path class="cls-1" d="M135.6,75.26c.93.13.55-1.29.56-1.93.02-3.69-1.44-12.8,1.04-15.27.8-.79,4.27-2.26,5.49-2.69,6.54-2.27,13.88-2.24,20.47-3.51.94-3.99-.72-8-.3-12.03l-26.44,2.2c-1.29.42-.98-2.14-.71-2.63.66-1.17,10.58-3.24,12.26-3.2,1.51.03,2.81.98,4.8.95,4.14-.05,9.35-1.4,13.64-1.67,1.95-.13,9.52-.63,10.61.29,1.83,1.54.99,11.26,1.13,14.13.2,3.95,1.01,8.8,1.09,13.09.05,2.45.39,11.74-.53,13.15-1.95,2.98-11.59,4.23-15.04,4.59-8.77.91-17.68.66-26.44,0-.71.72,3.35,15.39,2.1,16.82-.13.15-3.22,1.48-3.59,1.58-3.3.91-7.55.11-11.05,1.23l-6.82-35.99c-.67,1.85-1.45,10.39-2.58,11.33-1,.82-5.81,2.19-7.26,2.32-.89.08-1.78-.42-2.61-.36-1.89.14-4.5,1.67-6.08.34-2.48-2.1-4.53-10.1-7.36-12.53.85,10.73.2,21.41-.55,32.16l-14.17,2.19.26-61.06c4.11-2.94,9.48-3.42,14.45-2.99l12.54,21.52,5.51-30.2c.58-.71,6.41-2.7,7.56-2.8s6.13-.08,6.77.35c1.66,1.1,3.31,10.48,3.89,13.02,2.85,12.44,5.16,25.05,7.36,37.62ZM150.86,75.81c1.96-.33,3.8.46,5.7.57,1.63.09,7.4.45,7.85-.92l-.71-18.22c-1.51-1.09-12.85.28-12.85,1.4v17.17Z"/><path class="cls-1" d="M225.19,84.73c-3.93,2.12-3.68,1.22-7.54,1.55-1.57.14-4.6,1.42-5.72.72l-12.54-19.37-.62,23.91-14.1,2.8,1.12-41.72c.08-1.09.49-4.43,1.19-5.03.48-.4,6.35-2.02,7.38-2.16.68-.09,5.96-.15,6.29-.05,2.34.73,10.03,15.18,12.91,17.34l3.09-42.39c.58-1.51,2.53-.86,3.59-1.26.45-.17.39-.89.83-1.01,2.99-.8,6.12,0,9.09-1.06.8.2,1.07,1.62,1.12,2.37.66,9.67-2.71,22.64-2.47,32.7-.16,10.65-.22,21.39-1.3,31.96-.43.58-1.62.33-2.31.7Z"/><path class="cls-1" d="M404.31,58.83l-14.05,2.2c-1.63-3.43-.26-18.46-1.95-20.13-1.2-1.19-12.07-.39-14.5-.29l-.51,1.12c.54,4.19-2.5,17.61-.59,20.63.46.72,1.7.83,2.49.91,5.22.53,19.93-.54,22.95,3.23.78.98,1.11,2.43,1.26,3.65.26,2.06.46,4.91.6,7.03.35,5.26.17,10.83.31,16.11-.75,3.05-6.63,4.64-9.47,5.25-6.35,1.37-15.59,1.96-22.2,2.34-1.65.1-8.61.59-9.27-.53-.94-1.6-.27-17.5.44-19.75,1.79-5.71,11.33-5.6,16.18-4.76-1.38,6.38-1.64,13.03-1.62,19.59.33.34,8.44-.31,9.46-.63,1.99-.62.38-5.59.33-7.26-.09-2.97.36-14.98-1.03-16.96-1.9-2.72-17.27-1.71-21.55-2.44s-4.22-3.64-4.36-7.33c-.17-4.65.48-14.43,1.46-18.95.22-1,.66-2.23,1.46-2.9.39-.33,4.29-1.97,4.95-2.14,5.95-1.59,26.85-1.44,33.57-.83s4.25,8.32,4.62,13.37c.22,3.05,1.78,6.2,1.01,9.47Z"/><path class="cls-1" d="M338.96,74.99c.41-1.35,3.12-1.09,3.95-1.4.45-.17.39-.89.83-1.01,2.69-.76,4.03-.13,6.34-.09,1.17.02,2.75-1.29,3.88.04,1.28,1.52,1.05,9.75.15,11.6-2.01,4.11-19.08,3.77-23.59,4.21-8.08.8-15.25,2.04-23.47,2.15-1.64.02-3.21,1.09-4.79.07-1.33-.86-1-7.22-.94-9.06.21-6.43,1.23-14.71,2.38-21.06.43-2.4,1.44-8.9,3.34-10.29,1.5-1.1,7.33-2.52,9.31-2.69,6.69-.57,15.61-1,22.34-1.14,2.14-.04,7.88-.27,9.04,1.37,1.31,1.86,1.42,14.78,1.08,17.51-.31,2.53-6.16,3.74-8.55,3.99s-6.75.58-9.21.6c-4.48.05-8.92-.64-13.35-1.09l-1.09,16.36,22.36-1.64c.41-2.22-.57-6.57,0-8.45ZM333.51,51.28h-11.72c-.11,0-1.08.53-1.22.69-1.37,1.54-1.98,10.42-2.32,12.94h13.9c.28,0,1.14.87,1.91.54-.85-4.67-.47-9.44-.54-14.17Z"/><path class="cls-1" d="M280.62,56.46c.22.71,1.24.77,1.88.85,4.62.54,10.05-.57,14.73-.6l1.38,1.66c-1.81-.76-2.22.97-2.57,1.07-2.43.69-14.85,1.13-15.41,1.67l-.04,35.64c-.25.81-5.17,1.95-6.26,2-1.81.08-2.61-.82-3.24-.84-1.07-.04-5.87.69-6.28.28.56-18.22-.11-36.6.54-54.81.12-3.31.34-12.92,1.92-14.96.97-1.24,5.55-2.38,7.22-2.59,4.91-.61,9.79-.07,14.56-.11,2.9-.02,11.22-2.25,9.79,2.7-2.96-.44-5.82.46-8.65.56-1.55.06-7.2-.61-7.57-.51-.89.24-1.99,3.82-1.99,4.57v23.44Z"/><path class="cls-1" d="M422.38,85.35c.13.81,1.97,4.54,2.72,4.91,2.45,1.18,9.21-1.43,8.73,2.45-2.64.19-4.69,1.81-7.42,2.13-3.16.36-11.26,1.01-14.14.63-3.74-.49-4.42-5.94-4.63-9-1.02-14.83,1.13-29.94,1.15-44.73,0-1.85-.52-3.36-.54-5.14.39-.55,12.1-2.54,13.25-2.15,2.68.92.66,11.51.89,14.1,3.41-.83,6.26.2,9.55.54,2.58.27,8.29-1.09,7.35,2.72-5.68.1-11.4,3.08-16.9,1.1v32.43Z"/><path class="cls-1" d="M252.79,89.96c-1.92-.05-3.18,1.02-5.13,1.15-2.07.14-3.63-.54-5.48-.63-1.57-.07-4.01,1.35-4.55-.31l-.87-38.38c1.11-.26,2.14-.86,3.29-1.01,1.79-.24,8.66-.77,9.91-.19.5.23.94.49,1.13,1.05l1.7,38.32Z"/><path class="cls-1" d="M457.82,70.36v30.8c-4.78,3.43-9.9,1.71-15.26,3,1.27-8.71-.11-17.71.52-26.46.07-.98.51-4.59.84-5.16.7-1.23,13.91-3.23,13.91-2.18Z"/><path class="cls-1" d="M455.04,50.25c.18.15,1.07,4.24,1.09,4.61.01.27-1.05,0-1.1,1.03-.09,1.91,1.23,4.6.58,6.81l-13.55,2.17c-.19-2.31-2.33-10.43-1.42-11.96.74-1.24,2.73-.78,3.69-1.12.46-.17.37-.91.8-1.02.94-.25,9.53-.84,9.91-.52Z"/><path class="cls-1" d="M250.52,29.59c.48.67,1.63,11.45,1.21,11.88l-13.67.86c-.71-.51-1.09-9.95-1.56-11.72,2.18-.69,12.95-2.51,14.02-1.01Z"/></svg>