<?xml version="1.0" encoding="UTF-8"?><svg id="Layer_1" xmlns="http://www.w3.org/2000/svg" width="551.46" height="132.46" viewBox="0 0 551.46 132.46"><defs><style>.cls-1{fill:#000;}</style></defs><path fill="#fff" d="M160.51,4.79l.31,1.59c3.08-.65,6.68-1.51,9.81-1.64,1.09-.05,2.41.63,3.82.6,11.2-.24,21.83-.21,33.25,0,57.33,1.02,115.74.73,173.48,1.25,19.19.17,43.04-1.34,61.54.32,1.74.16,4.11,1.46,4.34,1.46,3.7-.06,7.76-.87,12.52-.87,13.18,0,26.37-.05,39.55-.02-.26.64-.51,1.16-.56,1.89-.83,11.22.36,22.77.58,33.79.27,13.63.92,27.49,1.35,40.91.01.39-.63.73-.47,1.78.32,2.1,1.83.83,1.83,1.5.01,1.65-.92.26-1.63.27l.54,31.61-457.44,7.09.5-18.3-1.05-.49,1.68-3.8-1.08-.53c1.05-28.75,1.37-57.86,3.51-86.71,1.02-3.51.6-7.99.25-11.72l113.38.05Z"/><path class="cls-1" d="M216.36,90.59c-.76-.81-.22-2.08-.57-2.97-1.47-3.78-2.86-6.7-2.86-11.04-3.45.23-5.34-1.24-8.64.31-2.81,1.32-3.62,3.93-6.09,5.49.17,3.23,5.04,23.43,3.83,24.68-4.7,1.36-9.08-.56-13.8-1.01-2.05-10.57-4.66-21.86-5.73-32.55-.26-2.64-.62-5.22-.04-7.8.49-.49,12.82.28,13.83,1,.81.57.08,4.35.32,5.51,5.28-.62,10.53-.86,15.81,0-.04-9.06-2.27-18.29.06-27.2,3.65-.6,6.96,1.61,10.58,1.62,9.79.03,16.65-3.59,27.56-.35,4.18,1.24,5.07,5.39,5.41,9.31.72,8.4,1.32,22.95.58,31.09-.31,3.43-2.64,4.26-5.88,5.02-6.16,1.45-22.22,1.45-28.7.61-1.27-.17-4.88-.88-5.66-1.71ZM239.61,49.36l-14.12,2.12c.19,8.23.23,16.61,1.1,24.8.15,1.43,1.02,8.99,1.35,9.55,1.19,2.05,10.88,2.52,13.37,2.72-.56-13.03,1.43-26.44-1.7-39.19Z"/><path class="cls-1" d="M294.74,70.56c-5.35-.01-10.71.23-16.01-.62-2.76-.44-13.15-2.86-14.54-4.69-1.85-2.43-2.56-10.76-2.73-14.02-.27-5.16-.35-12.38,0-17.49.05-.68.19-2.85.93-3.01,1.36-.3,9.21,1.37,11.31,1.73,6.27,1.05,11.72-.04,18.04.5,3.48.3,6.94,1.67,10.44,2.1,1.54.19,5.84-.36,6.51.58l.29,55.97-43.33,5.59c-1.85-.62-3.28-13.98-1.31-15.61.27-.22,5.78-2.27,6.56-2.48,1.72-.47,5.03-.52,6.93-.9-.04,4.42.59,8.69,1.1,13.08,4.32-1.05,10.89-1,14.89-2.29.41-.13.69-.37.92-.72v-17.72ZM275.66,37.85v15.54c0,1.64.86,7.3,1.34,9.02.22.77.77,2.62,1.37,2.99.57.35,10.64.52,11.64.28.58-.14.78-1.43.85-1.97.76-5.88,2.15-18.42.32-23.66-1.61-4.62-4.94-2.39-8.69-2.17-2.26.14-4.58-.14-6.84-.02Z"/><path class="cls-1" d="M191.08,54.68c-2.3.69-4.02,1.88-6.35,2.64-5.77,1.89-13.93,2.19-18.86,3.95-.24.09-.57,2.69-3.07,2.21l3.79,38.13c-4.99,1.36-9.68-.23-14.69.03l-6.41-72.92c1.38-1.2,3.74-.31,5.01-.64.32-.08-.23-1.71,3-2.52,9.92-2.48,17.17-.32,26.48-.35,2.27,0,3.43-1.84,5.92.18,1.86,1.51,2.43,6.17,2.9,8.55.55,2.79,3.15,19.42,2.28,20.74ZM170.31,29.26c-1.82-1.05-8.14,1.22-10.78-.14l2.73,29.98,14.21-3.6c-1.36-6.79-1.14-15.34-3.23-21.83-.42-1.29-1.81-3.78-2.93-4.42Z"/><path class="cls-1" d="M349.81,76.28c.65-4.29,2.08-2.53,4.65-2.73.41-.03.83-.67,1.49-.65,1.24.03,8.64,1.56,9.18,2.24.92,1.14.72,14.15-.16,15.76-.79,1.45-6.53,1.52-8.37,1.49-6-.09-14.64-.93-20.69-1.66-5.05-.61-9.97-2.08-14.95-3.04-1.89-1.17-2.4-2.82-2.71-4.92-1.27-8.56-2.03-29.22-.56-37.51.68-3.86,2.11-4.58,5.74-5.17,8.62-1.39,30.52-2.34,38.4.2,2.4.77,3.39,1.87,3.75,4.43.7,5.04,1.01,12.76,1.18,17.93.12,3.76-.73,2.18-2.32,3.06-.48.27-.46.87-.86.99-6.05,1.82-15.33-.66-21.67-1.04-3.16-.19-6.38.13-9.54,0,.94,6.69-.03,13.51,1.72,20.09l15.73,1.17c.35-3.3-.48-7.46,0-10.63ZM350.9,61.84c0-2.21-.28-17.76-1.06-18.3-1.41-.98-4.73.24-6.31.3-3.31.12-11.17-1.28-11.17,3.55v14.45h18.54Z"/><path class="cls-1" d="M426.89,40.77c.09-.16,2.29-2.43,2.55-2.62,7.74-5.55,22.39-4.69,31.04-1.65,2.52.89,4.2,2.03,5.3,4.51,2.88,6.5,3,30.84,2.37,38.56-.08.98-.31,3.27-1.11,3.8s-10.54,1.66-12.34,1.83c-7.64.73-10.59.42-17.97-.98-2.65-.5-4.36.67-6.53-2.2-3.66-4.84-3.43-27.79-3.49-34.66-.02-2.45-1.29-3.85.18-6.6ZM452.73,80.24c.6-.61.63-2,.7-2.85.57-6.86-.16-29.76-2.18-35.48-.35-.99-1.14-3.5-2.36-3.44-.96.05-5.17,2.12-5.86,2.89-2.89,3.27-2.35,13.58-2.18,18.03.1,2.56.32,6.17.57,8.69.19,1.92,1.66,12.42,2.7,13.12.62.42,8.01-.36,8.62-.98Z"/><path class="cls-1" d="M413.6,35.67h-25.63c.11,4.08-.13,8.2-.02,12.29.16,6.08.91,12.41,1.14,18.49.27,7.4-.49,16.24.54,23.45.13.89,1.06,1.55,1.06,1.65,0,.65-5.93,2.34-6.89,2.41-2.57.18-5.64-.83-8.36.59l-1.64-58.88-13.64-.54c.09-.64-.21-1.6.08-2.1.69-1.16,19-.51,22.02-.6,5.84-.18,12.74-1.37,18.54-1.14,1.02.04,15.25,2.03,12.79,4.38Z"/><path class="cls-1" d="M99.55,36.76l8.19,57.78c2.15.45,4.27-.53,6.26-.59,1.37-.04,2.48.49,3.76.54s3.72-1.68,4.16.87c0,1.8-6.61,3.1-8.08,3.38-5.06.95-8.65.64-13.45.68s-5.86,2.87-7.22-3.69c-3.62-17.35-3.38-36.84-7.25-54.35v-4.63s13.62,0,13.62,0Z"/><path class="cls-1" d="M410.46,57.35c1.68,1.63,9,.9,11.47,1.35,1.55.28,3.9,1.33,2.85,3.14l-14.45-.55,3.28,33.8c1.42-1.35,12.16,1.12,12.53,1.64,1.4,1.94-5.87,3.17-6.82,3.26-4.69.42-12.7-.83-17.15-2.46-3.76-1.38-3.71-3.51-4.31-7.14-1.51-9.23-1.98-22.54-2.27-32.07-.06-1.99-.42-13.1.93-13.4,1.73-.39,12.22.65,13.57,1.62,1.57,1.13-.16,1.94-.34,3.55-.16,1.38-.17,6.42.7,7.26Z"/><path class="cls-1" d="M74.48,97.27c-.77-1.69.47-2.78.41-4.49-.23-7.12-4.87-19.91-6.29-27.53-.24-1.28-1.35-8.44-1.25-9.13.17-1.18,2.05-2.13,3.15-2.34,1.16-.23,8.75-.83,9.67-.66,1.08.2,1.9,1.04,2.36,2.01l7.21,38.6c-.06,1.14-3.03,2.13-4.15,2.39-3.65.86-7.48-.24-11.12,1.14Z"/><path class="cls-1" d="M65.84,44.84c-1.09-.68-1.26-8.07-1.71-9.7,2.86-.83,13.19-1.14,14.41,1.63.51,1.15,1.78,8.34.86,9.02-.7.51-11.61-1.28-13.56-.95Z"/></svg>