<?xml version="1.0" encoding="UTF-8"?><svg id="Layer_1" xmlns="http://www.w3.org/2000/svg" width="551.46" height="132.46" viewBox="0 0 551.46 132.46"><defs><style>.cls-1{fill:#000;}</style></defs><path fill="#fff" d="M99.35,4.58c.16-.09-.11-.86.9-.99,8.19-1.02,19.77.38,28.3.38,77.93.02,156.56-.26,234.54.75,7.23.09,14.58-1.03,21.8,1.11,2.34-.18-1.65-.84.27-1.39,3.12-.89,5.24.32,7.92.33,45.96.13,92.32.66,138.51,1.57,4.64.09,9.65,1.43,14.43.03-.47,3.64-1.43,7.51-1.63,11.18-.37,6.56.83,12.68-1.07,19.1-.19.64-.96,1.27-1.03,1.72-.14.89,1.31,1.28,1,2.35l-1.63-.54c-.56,1.96,1.51,1.96,2.17,3.26l-2.35,1.78c-.24,3.25-.4,7.3-.95,10.46-.24,1.37-1.25,2.28-1.47,3.43-1.02,5.33-.52,11.79-1.53,17.12-.28,1.51-1.68,3.48-1.77,4.13s.8,1.07.75,1.83c-.46,6.66-2.18,14.15-3.87,20.65-1.88,7.27-4.17,14.01-5.26,20.96-.35,2.26-.03,5.34-3.45,5.21-.73-.03-1.35-.92-2.21-1.04-3.56-.53-7.76-.45-11.44-.6-98.68-3.84-197.81-4.26-296.58-8.2-21.47-.86-43.27-.87-64.88-1.48-3.88-.11-5.12-.24-8.75-.65-1.32-.15-2.77,1.07-4.32,1.09-1.74.02-4.21-1.03-6.04-1.11-2.7-.12-6.03-.06-8.71,0-30.6.85-62.14-2.6-92.66-2.2l-23.19.02c1.09-7.52.43-15.5.52-23.18.13-10.84.24-21.96,1.38-32.69.12-1.14-.83-2.88-.8-3.28.1-1.42,2.49.23,2.71-.54.44-1.51-1.86-.48-2.18-.82l-.56-3.53,1.65-.55c-.07-.54-.99.21-1.15-1.05-.63-4.95.82-10.76.01-15.79l2.21-1.15-1.62-.83c-.26-1.29.2-.89,1.02-1.31v-2.8s-1.03-.49-1.03-.49c3.15-3.83-3.1-9.7,3.28-10.92-5.91-.3-2.2-1.04-1.88-3.52.1-.75-.27-.97.08-3.11.14-.87-.64-1.8-.3-3.06,1.39-5.12,9.06-2.6,12.73-2.53,14.32.28,29.03-.12,43.6-.03,9.51.06,21.43-.96,30.57-.04,1.34.13,3.03,1.46,3.95.96Z"/><path class="cls-1" d="M406.86,43.65c.5.8.16,3.33-1.29,3.2-7.58.15-15.29-1.87-22.69-.23-.77,7.22-1.23,14.51-1.05,21.78.08,3.25.31,7.61.58,10.87.16,1.98.14,5.02,2.17,4.96,4.38-.12,8.82-1.92,12.95-2.91,1-.24,5.13-.37,5.51-.75.56-.57.08-3.24.27-3.92,2.1-7.57,4.12-16.23,6.74-23.69,1.7-4.85,2.67-5.86,8.07-6.11,1.66-.08,8.28.38,9.3,1.04.5.33,1.08,1.27,1.46,1.81,2.29,3.3,14.57,37.89,15.07,42.16.14,1.14.12,2.32.03,3.46-4.69,1.05-9.35.06-14.09.52-.89-6.94-4.29-13.07-6.15-19.74-.53-1.59-4.62-.5-5.27.53l-7.54,23.65-13.81.53c-1.11-1.13,3.69-11.49,3.82-13.63-6.75.47-13.66,2.84-20.47,2.2-1.77-.17-2.89-.85-4.38-1.07-3.62-.54-7.23.96-8.28-4.26-1.51-7.51-1.21-24.58-.69-32.6.15-2.3.26-6.97,2.61-7.75,6.47-2.15,14.37-.6,21.16-.65,2.49-.02,4.85-.66,7.63-.59,1.14.03,8.13.82,8.35,1.18Z"/><path class="cls-1" d="M481.03,49.52l-14.12,1.7c-.34-4.61-.4-9.86-1.16-14.38-1.17-7.02-2.83-6.43-9.19-3.88-5.32,2.13-5.59,3.72-6,9.26-.17,2.35-.54,10.76,1.11,11.96,2.97,2.17,18.58,2.69,23.44,3.82,1.67.39,4.32.83,5.13,2.5,1.61,7.43,1.26,15.07,1.37,22.62.03,1.84,1.32,5.57-.11,7.21-.2.23-5,2.01-5.73,2.18-5.39,1.19-12.15.71-17.81,1.28-2.38.24-7.76,2.21-10.14.77-.82-.5-4.54-12.13-5.04-14.04-.36-1.35-1.33-3.57-.7-4.78.13-.25,4.36-2.51,4.94-2.71,1.05-.36,8.75-1.5,9.2-1.16.87,1.97,4.6,15.88,5.32,16.34s4.18-.18,5.37.07l-1.1-23.7c-.2-1.54-1.46-1.79-2.7-2.2-5.86-1.94-21.87-1.44-25.68-4.85-2.24-2-1.84-11.57-1.62-14.78.4-5.69.96-7.21,6.2-9.61,7.11-3.26,26.4-7.44,33.79-5.78,1.76.39,2.97,2.01,3.42,3.66.51,1.82,2.41,17.8,1.81,18.51Z"/><path class="cls-1" d="M337.7,45.76c.17-.19-.27-1.72.06-2.12.37-.45,4.47-.71,5.4-.6-.2-6.47-.44-12.89-.52-19.38-.02-1.89-1.3-4.41.26-6.23.59-.7,3.85-1.55,4.89-1.65s7.34-.15,8.18,0c.62.11,1.11.2,1.29.9.61,8.86.65,17.77,1.17,26.63.58,9.76,1.93,19.66,2.2,29.42.06,2.23.55,9.77-1.14,10.9-.31.21-3.04,1.21-3.57,1.34-5.67,1.36-22.54-.77-28.69-2.28-1.38-.34-3.7-.89-4.49-2.05-1.63-2.38-4.26-17.4-4.65-20.97-.41-3.76-1.69-9.4,1.98-11.63.88-.54,6.72-2.26,7.55-2.26,1.42,0,9.75.38,10.09,0ZM343.69,48.49c-3.46.2-6.87-.09-10.26.64-.84.54-.74,6.04-.66,7.29.19,3.03,3.44,19.97,4.89,21.69.62.73,7.29,1.84,7.67,1.46l-1.64-31.08Z"/><path class="cls-1" d="M260.82,59.39l2.7,35.96c-4.84,1.44-9.71.83-14.7,1.11l-3.73-68.07c2.06-.73,3.97-1.49,6.19-1.7,3.33-.32,6.86.52,9.8.43,9.06-.3,20.77-4.14,29.43-2.6,1.38.24,2.01,1.25,2.42,2.48,1.58,4.61,2.59,19.09,2.79,24.47.04,1.13.22,3.01-.51,3.89-1.49,1.79-11.35,2.82-13.94,2.96-3.92.21-8.11-.31-12.01-.02-2.71.2-5.46,1.74-8.45,1.09ZM278.26,28.87l-18.53,1.08,1.1,25.08c6.47-1.31,13.05-1.15,19.63-1.09l-2.19-25.07Z"/><path class="cls-1" d="M134.33,18.52c-3.02,14.35-2.04,29.32-3.82,43.86-.27,2.2-1.27,9.81-2.46,11.17-1.47,1.7-8.57,3.1-10.9,3.27-6.21.48-16.34,1.09-22.38.58-2.38-.2-4.16-.99-4.57-3.6-1.09-6.94,1.01-22.51,2.23-29.87.23-1.41.7-5.44,1.3-6.33,1.97-2.89,19.42-4.14,23.15-2.74.89-.63.4-13.56,2.96-15.31.24-.16,4.96-1.57,5.47-1.63,1.06-.13,8.72.17,9.02.6ZM116.88,38.13c-2.85.81-5.88.82-8.72,0-.73,7.68-2.38,15.43-2.75,23.15-.12,2.56-.37,8.1.02,10.38s5.92.16,8.12.76c2.38-11.25,2.66-22.83,3.32-34.29Z"/><path class="cls-1" d="M35.57,34.81c-.06.09-1.02-.01-1.06.35l6.03,23.68c.81.14.68-1.02.81-1.62,1.54-6.94,2.79-13.93,4.89-20.73,2.83-1.14,5.22-2.17,8.28-2.51.66-.07,1.39.33,2.08.32,1.69-.02,4.13-1.77,4.13,1.35-4.73,18.51-7.87,37.35-11.42,56.12-4.88,2.59-9.79,1.43-15,2.55l-13.91-57.52c.08-.52.17-1.14.46-1.57.59-.88,13.54-4.07,14.76-1.17.03.27.08.56-.06.76Z"/><path class="cls-1" d="M151.77,62.12l-1.09,18.53c3.86.27,25.4-3.33,27.02-1.12.27.36.4,1.47.24,1.66-.27.32-6.93,1.9-7.99,2.1-8.97,1.67-19.79,2.37-28.81,2.23-3.95-.06-5.97,2.19-5.76-4.06.26-7.57,1.17-15.29,1.66-22.89.24-3.71-.15-18.68,2.42-20.48.29-.2,5.97-2,6.63-2.09,5.53-.78,15.32-.99,21.19-1.16,2.93-.08,10.5-.68,12.3,1.37,2.56,2.9,1.6,14.97,1.01,19.03-.64,4.42-.31,6.26-5.15,7.39-2.46.57-9.84.76-12.5.63-1.67-.08-10.61-1.71-11.18-1.14ZM165.33,39.3c-.69-.43-11.87.47-12.22.98l-1.33,18.56c4.49-.91,8.55-.28,13.03-.06.84-2.64,2.02-18.55.53-19.49Z"/><path class="cls-1" d="M183.25,66.89c1.81-3.03-.57-12.72,3.4-14.33,6.94-2.81,25.87-2.51,33.5-1.3,5.25.83,5.45,4.26,5.79,8.93.4,5.51-.16,13.98-.57,19.64-.15,2.07-.64,9.98-1.37,11.17-.58.95-4.22,2.05-5.44,2.19-4.39.5-9.27-.07-13.61-.03-3.38.03-20.44.57-22.11-.25-.9-.44-1-1.28-1.11-2.16-.3-2.36-.32-22.22.32-23.2.22-.33,1.03-.39,1.2-.67ZM209.57,89.37c-.06-5.08.93-10.48,1.11-15.51.13-3.68.56-12.58-.14-15.71-.97-4.35-7.39-2.86-10.77-3.65l-2.17,20.37c-.22.72-1.57-.01-1.7.63-.27,1.37-.23,11.06.04,12.51.08.45.43,1.36.82,1.36h12.81Z"/><path class="cls-1" d="M320.1,100.67c-2.43,2.37-23.23,6.07-27.36,6.17-3.03.08-6.35-.04-9.3-.13-5.33-.15-6.07-5.81-6.74-10.05-.47-2.95-2.3-23.06-1.47-24.22.67-.94,2.69-.15,3.6-.76.62-.41.52-2.2,1.61-2.76.29-.15,5.81-1.3,6.35-1.33,1.45-.07,2.74.6,4.28.56,7.13-.17,12.14-2.24,20.12-1.08,3.69.54,5.39,1.86,6.75,5.24,1.94,4.84,3.89,19.27,3.42,24.43-.1,1.13-.47,3.13-1.27,3.91ZM289.17,73.02c.59,6.73.67,13.69,1.72,20.37.28,1.77,1.15,8.9,3.34,8.96.74.02,10.13-2.03,10.74-2.37,1.72-.97,1.24-7.66,1.11-9.78-.2-3.22-2.15-17.21-4.9-18.55-2.21-1.08-9,2.36-12,1.37Z"/><path class="cls-1" d="M505.62,38.13v8.99c0,.12,1.36,1.89,1.47,1.92,2.1.52,12.26-.67,13.25.54.12.15-.07,1.18,0,1.62-1.74-.72-2.21.91-2.61,1.04-3.62,1.18-8.26,1.17-12.05,1.74-1.15,3.96-.37,8.16-.58,12.23-.38,7.38-1.5,14.96-1.65,22.33-.05,2.26.13,10.39,1.85,11.77,1.31,1.06,6.44.62,8.14,1.01.44.1.95,1.53.88,1.88-.19.94-5.61,1.88-6.76,1.98-2.98.24-12.83-.43-15.42-1.52-3.84-1.61-3.5-10.54-3.43-14.06.2-9.91,1.68-20.01,2.23-29.93.4-7.18.34-14.56.49-21.76.47-1.73,12.35-.23,14.21.21Z"/><path class="cls-1" d="M86.82,38.21l-2.18,40.46c-4.41,4.05-9.81,1.6-15.12,2.45l-.43-1.36,2.78-38.39c.28-3.91,14.16-4.42,14.95-3.16Z"/><path class="cls-1" d="M87.9,18.04c.53.85-.91,10.99-1.68,11.79-1.67.71-14.08,1.74-14.6,1.21.89-2.41,1.41-10.98,2.74-12.25,1.02-.98,12.85-1.86,13.54-.75Z"/></svg>