<?xml version="1.0" encoding="UTF-8"?><svg id="Layer_1" xmlns="http://www.w3.org/2000/svg" width="551.46" height="132.46" viewBox="0 0 551.46 132.46"><defs><style>.cls-1{fill:#000;}</style></defs><path fill="#fff" d="M392.33,7.03c-2.31,2.15-.71,2.97-.73,5.17s-1.55,5.15.24,7.09l-.92.52c-.68,6.44.15,13.42-.02,19.67-.19,6.75-1.67,14.08-1.23,21.26.06,1.01,1.42,4.38,1.18,5.34-.11.43-.88.13-1,1.14-.36,2.99.22,7.17-.01,10.29-.56,7.48-1.75,14.14-1.43,21.94.04,1.05.83,1.75.78,2.46-.12,1.58-1.81,4.58-2.09,6.91-.26,2.18.11,4.37-.13,6.39-.38,3.21-1.57,6.25-1.45,9.55l-210.74-3.86c.33-2.41-1.22-3.98-1.47-5.71-.4-2.65.5-5.95.32-8.08-.85-9.79-1.22-20.05-2.08-29.86-.18-2.05-1.67-7.45-1.67-8.37,0-1.12,2.81-4.52-.49-5.2,1.19-2.13,1.04-5.77.96-8.38-.39-12.77-2.03-29.85-3.73-42.65-.12-.9.46-2.28-.16-3.46,1.88.88,2.41-1.03,3.13-1.14,2.36-.36,4.61.58,6.83.62,13.89.22,28.06-.98,41.86-1.15,5.81-.07,15.06-.74,20.48,0,1.15.16,2.25,1.11,2.91,1.09s1.31-.97,2.41-1.1c3.66-.45,8.37.15,12.22.05,36.64-.94,73.72-.54,110.49-.61,5.13,0,10.38-.41,15.55-.52,3.35-.07,6.71-.08,10,.57Z"/><path class="cls-1" d="M267.33,46.22c.18-.57,6.82-2.33,7.96-2.4.91-.06,1.76.47,2.67.49s1.7-.58,2.61-.45c3.8.52,12.47,17.92,15.64,21.16l-1.5-32.46c.13-.7,6.7-1.98,7.93-2.28,3.68,1.21,6.48-2.32,7.16,2.9,1.75,13.55.76,30.66,1.12,44.67.07,2.72,1.56,11.18.07,13.11-2.02,2.62-11.51,1.61-14.75,2.15l-14.75-24.82v21.8c-3.68.17-8.35,2.46-11.8,2.7-.67.05-2.38,0-2.38-.79v-45.79Z"/><path class="cls-1" d="M333.3,65.03c.11,1.89.4,13.07,1.17,13.55l17.37.62v-7.9c0-.2.56-.88.63-1.28,3.01.44,4.82-1.7,7.79-1.14.83.16,1.41.87,2.23,1.04,2.37.49,4.55-1.18,5.12,2.51.26,1.69.29,8.58-.54,9.74-1.32,1.83-9.34,2.02-11.71,1.97-1.29-.03-2.48-.57-3.77-.59-10.62-.14-21.31.64-31.8-1.18-1.5-3.35-.89-7.1-1.21-10.51-.74-7.9-2.04-18.38-1.1-26.18.56-4.62,3.88-5.34,7.93-5.7,6.46-.57,17.46-.64,23.98-.44,1.76.05,8.56.84,9.95,1.39,1.54.61,2.1,1.98,2.6,3.4,1.14,3.2,2.43,12.66,2.46,16.11.03,2.85-1.11,4.61-4.11,4.61h-26.99ZM346.39,43.77h-13.09c-1.79,6.04-.72,11.87-.55,17.99,5.45.37,10.92,1.12,16.33-.03.7-.72-1.91-17.43-2.69-17.96Z"/><path class="cls-1" d="M228.62,59.03c1.79,1.32,12.65-3.36,12.54,2.18-4.91.51-9.89.33-14.72,1.36l-14.71,25.89c10.36-.73,20.8-4.9,31.07-3.26,1.06,1.53-5.77,3.86-6.97,4.2-6.62,1.84-15.07,2.37-22.04,3.58-2.69.47-5.45,1.74-8.4,1.96-4.11.3-8.08-.89-12.2-.47-.12-1.14.01-2.05.43-3.12.8-2.08,5.01-7.2,6.55-9.8,3.26-5.51,6.25-11.21,9.38-16.79-2.8-.64-8.79,1.28-11.12.86-.37-.07-.81-2.04-.65-2.25,1.15-1.48,11.63-1.36,13.94-2.43l11.46-19.07-29.45-.82c-.28-3.3-.25-3.54,3.01-3.81,4.96-.42,8.23.88,12.52,1.1,6.41.34,13.33-.51,19.67-.04,2.84.21,11.42.81,9.28,4.95l-9.57,15.78Z"/><path class="cls-1" d="M262.97,100.74c-.83,2.55-12.31.53-14.72.82.13-6.81-.15-13.65-.02-20.47.03-1.55.55-2.87.59-4.31.09-2.82-.61-15.25.65-16.52,1.2-1.2,12.66-1.35,13.8.96.7,1.43-.3,2-.3,2.45v37.07Z"/><path class="cls-1" d="M261.34,42.14l-1.09,10.9-14.18-1.09.55-10.91c5.32-.75,9.57-.25,14.73,1.1Z"/></svg>