<?xml version="1.0" encoding="UTF-8"?>
<svg id="Layer_1" xmlns="http://www.w3.org/2000/svg" version="1.1" viewBox="0 0 70 70">
  <!-- Generator: Adobe Illustrator 30.0.0, SVG Export Plug-In . SVG Version: 2.1.1 Build 123)  -->
  <path d="M6.2,52.1c-.5-.9-1.5-1.9-1.9-2.6-1.2-2.4-1.5-5.3-2.1-7.7s-.8-2.3-.7-5.6,0-5.9.8-9,1-1.7,1.1-2-.3-.8,0-1.3,1.1-1.8,1.4-2.5,0-1.2.5-1.7.8-.5.9-.8c1.4-2.8,2.3-4.3,4.6-6.6s4.5-4.1,7-5.7c2.5-1.6,1.9-.4,2.5-.9s.6-.9,1.3-1.4,7.2-2.5,8.5-2.7,7.1-.5,8.7-.3,1.9.8,2.5.8,1.1-.2,1.6-.2c2.5.3,7.8,2.5,10,3.8s.4.9.4.9c0,0,.8,0,1,.2s.6,1.5.9,1.7,1-.2,1.6.4.2.6.3.8c1.8,1.6,6.1,5.2,7.2,7.5,1.1,2.3.9,3.1,1.4,4.1s.7.4.9,1,0,1.2,0,1.6.6.3.8.6c.6,1,.5,3,.6,3.9.5,3.6.7,6.7.3,10.4s-1.7,8-3.1,11.1-1.2.9-1.1,1.7l-.5-.2c0,.5,0,.9-.2,1.4-1.4,3.7-8.8,9.8-12.2,11.8-3.4,2-3.7,2-3.9,2.1-.4,0-1.5,0-2.2,0s-.3.6-.8.8-1.9.2-2.2,0c-.5,0,0-.6-1.5-.3.2.5-.3.5-.7.2-1.5.4-2.8,1-4.4.9s-.4-.5-.6-.4,0,.6-.4.7c-.5.2-.3-.5-.5-.5-.5,0-1.6.5-2.2.5-1.2,0-6.6-1.3-7.9-1.7s-2.1-1.4-3.1-1.7c-1.7-.7-3.1-.5-4.8-1.9s-.7-1.2-1.2-1.7c-.8-.8-2.7-1.3-3.3-1.9s-.8-1.7-1.2-2.1-1-.5-1.5-.9c-.9-.8-1.9-2.9-2.6-4,0-.7,0-.9-.2-.7h.3Z" fill="#000001"/>
  <path d="M25.7,18.7c2.5,2.3,5.3,4.9,7.9,7.3s2.4,2,3.6,2.9l13.9-12.7c1-.3,1.2.4,1.9.6s1.8.3,2.4.9.2.6.5.8c.6.4,1.8.4,2.1,1.4-.7,1.2-2,1.9-3,2.8-2.8,2.7-5.6,5.7-8,8s-2.8,2.5-4.1,3.8l12.8,12.6c.2.4-.6,2.8-.8,3.3-.5,1.2-2,2.2-2.4,3.5h-1.2l-13.9-14-14.4,13.3c-.2,0-1.6-.3-2-.4-1.1-.3-1.9-1.1-2.7-1.5s-3.7-1.5-2.8-2.6l15.8-14.4-13.5-13.3c.3-.7,0-1.5.2-2.2s1-1.7,1.3-2.3.3-2.8,1.5-2.3,3.7,3.7,4.6,4.6h.3Z" fill="#fcfcfc"/>
  <metadata>
    <sfw xmlns="http://ns.adobe.com/SaveForWeb/1.0/">
      <slices/>
      <sliceSourceBounds x="1.48" y="1.16" width="66.94" height="67.6" bottomLeftOrigin="true"/>
    </sfw>
  </metadata>
</svg>