<?xml version="1.0" encoding="UTF-8"?><svg id="Layer_1" xmlns="http://www.w3.org/2000/svg" viewBox="0 0 114.8 84.69"><path d="M110.45,1.94c2.24,5.69,1.87,11.99-.23,17.66-2.1.11-4.22-.05-6.33.02-15.78.49-31.61.78-47.43.74-13.07-.04-26.18-.05-39.26-.5-3.03-.1-6.1.16-9.12-.09C5.28,15.24,3.94,9.9,2.09,4.9c.04-.21.02-.55.28-.61,1.71-.37,4.61-.31,6.47-.38,23.56-.91,47.44-.86,71.09-1.3,10.19-.19,20.34-.19,30.52-.67Z"/><path d="M103.99,62.53c1.08,3.23,1.84,6.97,1.47,10.4-.06.59-.39.94-.47,1.45-.33,2.14-.57,4.16-1.62,6.11-.57.38-3.61-.2-4.51-.26-24.23-1.41-48.39-2.83-72.58-4.55-6.38-.45-12.79-.51-19.11-1.49-.56-.25-.65-1.56-.94-2.17-.35-.74-.79-1.31-1.14-2.21-1.34-3.42-2.13-7.08-3.37-10.54.01-.2,0-.45.13-.61.46-.65,5.87-.01,6.95.03,29.72,1.02,59.38,2.49,89.11,3.83,2.03.09,4.09.06,6.09.02Z"/><path d="M105.93,28.98c.23,1.37,1.15,2.64,1.42,3.97.67,3.24.42,7.51-.29,10.69-.25,1.12-.5,2.28-1,3.31l-.46.22-95.83,2.89c-.3,0-.42-.16-.58-.38-.24-.34-1.73-4.1-1.95-4.76-1.07-3.2-1.59-6.84-2.84-10.05.1-.37,1.41-.54,1.81-.59,5.78-.6,12.29-.67,18.18-.99,25.55-1.38,51.17-1.88,76.66-3.59,1.62-.11,3.42-.2,4.9-.73Z"/></svg>