<?xml version="1.0" encoding="UTF-8"?><svg id="Layer_1" xmlns="http://www.w3.org/2000/svg" viewBox="0 0 89.41 85.25"><defs><style>.cls-1{fill:#a1a1a1;}.cls-2{fill:#000001;}.cls-3{fill:#fdfdfd;}</style></defs><path class="cls-2" d="M50.19,77.11c-.92.11-1.02-.13-1.7-.11-1.14.02-2.6.85-4.18.73-.24-.02-.45-.46-.58-.37-.03.02-.06.56-.37.72-.46.23-.32-.46-.46-.46-.54.02-1.59.51-2.17.45-1.21-.13-6.64-1.32-7.85-1.73-1.02-.35-2.13-1.36-3.05-1.74-1.7-.7-3.14-.52-4.81-1.9-.63-.52-.74-1.2-1.2-1.67-.82-.84-2.71-1.29-3.32-1.95-.44-.47-.81-1.69-1.21-2.15s-1.16-.59-1.69-1.18c-2.36-2.65-5.08-8.42-5.94-11.78-.36-1.41-1.53-4.84-1.65-6.04-.28-2.6.45-8.98,1.03-11.55.17-.77.94-1.49,1.03-1.83.13-.5-.28-.93-.11-1.51.15-.51,1.08-1.75,1.39-2.46.24-.54.15-1.17.45-1.71.25-.44.78-.51.93-.8,1.48-2.83,2.4-4.35,4.67-6.76,1.98-2.1,4.46-4.06,6.84-5.62.5-.33,1.9-.42,2.54-.93.23-.18.35-.64.67-.89,1.37-1.1,7.46-2.88,9.35-3.22,1.53-.27,6.78-.46,8.35-.26,1.01.13,1.99.77,2.7.85.61.07,1.1-.25,1.6-.19,2.52.31,7.82,2.48,10.05,3.8.89.53.38.9.42.94.05.05.78.04,1.05.22.17.12.64,1.47.93,1.66.09.06,1.03-.23,1.62.41.21.23.16.63.31.77,1.76,1.61,6.13,5.2,7.21,7.51.51,1.1.85,3.06,1.39,4.12.21.42.69.43.94.99.31.71-.14,1.19-.05,1.65.04.23.55.26.74.5.75.91.58,3.08.71,4.08.99,7.5.55,14.42-2.78,21.42-.32.68-1.18.94-1.05,1.7l-.48-.24c.04.5,0,.9-.19,1.37-1.44,3.66-8.8,9.78-12.23,11.77-.44.25-3.67,2-3.88,2.07-.44.14-1.54-.12-2.2.13-.33.13-.27.63-.77.85s-1.89.05-2.53.1l-.41.06c-1.25-.8-1.27-.74-.07.18Z"/><path class="cls-1" d="M50.19,77.11l-.96-.72,1.44.48c-.12.01-.33.22-.48.24Z"/><path class="cls-3" d="M38.65,28.31c.12.13-.08.54.2.66.67.29,2.12.52,2.96.83,6.88,2.59,13.2,5.66,19.91,8.59,2.22.97,4.47,2.11,6.63,2.95.18.07,1.31.46,1.38.46.19,0,.86-.92.83-.04-.6.23-.79.89-1.21,1.18-.95.66-2.82,1.64-3.93,2.3-7.21,4.23-14.82,7.95-21.97,12-4.04,2.29-8.25,4.84-12.07,7.38-.97.65-2.21-.21-2.37,1.22l1.56-12.7.48.24c-.27-1.03-.14-2.37.01-3.46.28-2.03,1.5-5.45,1.41-7.42,0-.17-.88-2.89-1.01-3.3-1.54-4.6-4.37-10.06-5.51-14.61-.14-.55-.23-1.07-.16-1.63l12.89,5.33Z"/></svg>