<?xml version="1.0" encoding="UTF-8"?>
<svg id="Layer_1" xmlns="http://www.w3.org/2000/svg" version="1.1" viewBox="0 0 70 70">
  <!-- Generator: Adobe Illustrator 30.0.0, SVG Export Plug-In . SVG Version: 2.1.1 Build 123)  -->
  <path d="M64,50.9c.8.8-.6,1-.9,1.3-.3.4-.5,1.7-.8,2.2-.2.4-.7.6-.9,1-.2.2-.2.7-.3.8-.2.2-.6,0-.7,0,0,0,.4.8.2.9,0,0-.5,0-.7,0-.2.1-.7,1.7-.9,1.9s-.8.2-1.2.5c-1.2.9-2.4,2.2-3.6,3.1-2.3,1.7-4.5,2.2-6.8,3.7-.2,0-.2.5-.6.7-1.8.8-2.8.3-4.3.5-1.1,0-2.5,1.2-3.5,1.3-.8,0-1.8-.4-2.6-.4-.6,0-.9.4-1.5.5-3.2.4-11.7-1.8-14.7-3.3-.8-.4-2.7-1.9-3.5-2.2-.2,0-.5.3-.9.2-.1,0-1.1-1.4-1.5-1.8-.7-.6-1.7-1.1-2.3-1.6-4.3-4.3-8.3-10.5-9.8-16.4-1.2-4.5-1.5-10.3-.2-14.7.4-1.3,0-1.5,0-2.2.2-4.3,5.1-12.1,7.9-15.3,1-1.2,2.7-1.7,3.3-2.4.4-.5.3-1.1.6-1.3,1.1-.9,3.8-2.3,5.2-3.2,1.7-1,4.1-2.2,6.2-2.4,1.3,0,.8.4,2.2-.3s2.2-.2,3.5-.4c2.4-.3,5.7-.9,8.1-.6,1.1.1,3.4,1.5,4.6,1.6.7.1,1-.5,1.9.3.2.2.3.6.4.7,0,0,.9-.3,1.5-.2,1.2.2,2.2,1.3,3,1.8,2.8,1.8,5.1,3.3,7.6,5.5,1.9,1.7,5.4,6.9,6.5,9.3,3.6,7.8,4.5,14.3,2.5,23-.4,1.8,0,2.6-1.4,4.2-.2.3-.7.1-.6.5,1.1,0,0,1.7-.4,2.2-.5.6-1,.4-1.1.9q-.4.2,0,0h0Z" fill="#000001"/>
  <path d="M20,13.8c2.3-.7,6-.4,8.5-.5,5.7-.2,11-1,16.5,1.2.6.2,1.8.6,1.9,1.2l-.2,15.8c-2.7,1.9-6.1,2.2-9.1,3.3l-.2,9.8c-.8.6-7.2,3.7-7.5,3.3l-1.2-12.5c1.7-1.7,3.9-2.4,6.2-2.9.7-.2,3.2-.2,3.3-.7l-.2-16.9c-3.2.3-6.4.2-9.6.2l-.3.5c.3,2.9.5,5.8.5,8.6l-.7.3c-1.4.2-2.6.2-4.1.2-.6.2-1.2.2-1.7,0l-.6-.3c-.6-3.5-1.1-7-1.5-10.5-.2,0-.2-.2,0-.2h0Z" fill="#fdfdfd"/>
  <path d="M38.9,50.9c.2.8,1,3.9.6,4.6l-7,5c-.3,0-1.4-5.2-1.3-5.7,1.2-.8,2.5-1.6,3.8-2.2.8-.5,2.7-1.8,3.5-1.9,0,0,.2,0,.3.2h0Z" fill="#fcfcfc"/>
  <path d="M28.4,15.2l.7,8.7c0,.8-.7.5-1.2.6.7-.3.5-1.2.5-1.8-.1-2.5-.7-5-.7-7.5h.7Z" fill="#e0e0e0"/>
  <path d="M19.7,16.2c.3,0,.3.3,0,.5.2.7.2,1.4.2,2.2.5.7.5,2,.5,2.9.3.6.3,1.3.2,1.9.1.6.3,1,.5,1.2.1-.6.4-.6,1,0,.6,0,1.1,0,1.7,0-.5.4-3.1.3-3.4.1-.6-2.9-1-6.1-1.2-9.1,0-.6-.2-1.6.2-2,0,.8.1,1.6.2,2.4h0Z" fill="#525252"/>
  <path d="M35.1,52.4c.6-.3,3.4-2.2,3.8-1.9,0,.2,0,.4,0,.5-1.3.3-2.6,1-3.8,1.7-.2,0-.2-.2,0-.2Z" fill="#444443"/>
  <path d="M35.1,52.6c-1.3.7-2.4,1.7-3.8,2.2.1-.5,3.2-2,3.8-2.4,0,0,0,.2,0,.2Z" fill="#403f3f"/>
  <path d="M20,14c.6,2.5.8,5.1.7,7.7,0,.2-.2.2-.2,0-.1-.9-.4-2-.5-2.9,0-.7,0-1.5-.2-2.2v-.5c-.2-.8-.2-1.6,0-2.4,0,0,.2,0,.2,0v.2h0Z" fill="#bfbfbe"/>
  <path d="M19.7,16.2c-.3-.2-.3-2.2-.2-2.4,0,0,.2,0,.2,0v2.4Z" fill="#545454"/>
  <path d="M64,50.9l-.7.7c0-.5.3-.7.7-.7Z" fill="#fefefe"/>
  <path d="M20,14c1,1.8.7,4.2,1,6.1.2,1.4.3,3.7,1.2,4.7-.3,0-.6,0-1,0-.4,0-.3-.8-.2-1.2-.3-.6-.4-1.3-.2-1.9-.3-2.5-.5-5.1-.7-7.7h0Z" fill="#e0e0e0"/>
  <path d="M20.9,23.6c0,.2-.2.2-.2,0,0-.7-.2-1.3-.2-1.9h.2c0,.6.1,1.3.2,1.9Z" fill="#b1b1b0"/>
  <path d="M20,18.8c0-.7-.2-1.4-.2-2.2.5.5.2,1.5.2,2.2Z" fill="#545454"/>
  <path d="M21.2,24.8c-.2,0-.3,0-.5,0,0-.4,0-.8,0-1.2h.2c0,.4.2.8.2,1.2Z" fill="#adadac"/>
  <metadata>
    <sfw xmlns="http://ns.adobe.com/SaveForWeb/1.0/">
      <slices/>
      <sliceSourceBounds x="27.73" y="27.23" width="66.91" height="67.91" bottomLeftOrigin="true"/>
    </sfw>
  </metadata>
</svg>