<?xml version="1.0" encoding="UTF-8"?>
<svg id="Layer_1" xmlns="http://www.w3.org/2000/svg" version="1.1" viewBox="0 0 70 70">
  <!-- Generator: Adobe Illustrator 30.0.0, SVG Export Plug-In . SVG Version: 2.1.1 Build 123)  -->
  <path d="M64,50.9c.8.8-.6,1-.9,1.3-.3.4-.5,1.7-.8,2.2-.2.4-.7.6-.9,1-.2.2-.2.7-.3.8-.2.2-.6,0-.7,0,0,0,.4.8.2.9,0,0-.5,0-.7,0-.2.1-.7,1.7-.9,1.9s-.8.2-1.2.5c-1.2.9-2.4,2.2-3.6,3.1-2.3,1.7-4.5,2.2-6.8,3.7-.2,0-.2.5-.6.7-1.8.8-2.8.3-4.3.5-1.1,0-2.5,1.2-3.5,1.3-.8,0-1.8-.4-2.6-.4-.6,0-.9.4-1.5.5-3.2.4-11.7-1.8-14.7-3.3-.8-.4-2.7-1.9-3.5-2.2-.2,0-.5.3-.9.2-.1,0-1.1-1.4-1.5-1.8-.7-.6-1.7-1.1-2.3-1.6-4.3-4.3-8.3-10.5-9.8-16.4-1.2-4.5-1.5-10.3-.2-14.7.4-1.3,0-1.5,0-2.2.2-4.3,5.1-12.1,7.9-15.3,1-1.2,2.7-1.7,3.3-2.4.4-.5.3-1.1.6-1.3,1.1-.9,3.8-2.3,5.2-3.2,1.7-1,4.1-2.2,6.2-2.4,1.3,0,.8.4,2.2-.3s2.2-.2,3.5-.4c2.4-.3,5.7-.9,8.1-.6,1.1.1,3.4,1.5,4.6,1.6.7.1,1-.5,1.9.3.2.2.3.6.4.7,0,0,.9-.3,1.5-.2,1.2.2,2.2,1.3,3,1.8,2.8,1.8,5.1,3.3,7.6,5.5,1.9,1.7,5.4,6.9,6.5,9.3,3.6,7.8,4.5,14.3,2.5,23-.4,1.8,0,2.6-1.4,4.2-.2.3-.7.1-.6.5,1.1,0,0,1.7-.4,2.2-.5.6-1,.4-1.1.9q-.4.2,0,0h0Z" fill="#000001"/>
  <path d="M34.3,10.2c2.1.7,4.3,1.5,6,3.1,0,5.3,0,10.6.3,15.8.2,0,.4,0,.2.2l15.8-1.4.2.2c1.8,2.1,2.4,5.2,2.2,7.9l-.2.4c-6,.3-12.2.7-18.2,1.2l-.4.3-.9,21.1-.5.3c-3-.2-5.9-1.2-8.6-2.4.6-6.1,1.1-12.6,1-18.7-1.1-.3-2.2-.2-3.3,0-.3.2-.7.2-1,0-3.8.4-7.7.6-11.5.5-1-1.5-2.9-5-3.6-6.7.1-.5.3-.5.5,0,.7,0,1.4-.2,2.2-.2,0-.2.1-.2.2,0,.6,0,1.2-.2,1.9-.2.1-.5.3-.5.5,0l1.9-.2c.9-.5,2.4-.6,3.3-.2l1.4-.2c.5-.4,1.5-.5,2.2-.2.5.2,1.1.2,1.9,0,1.2-.4,2.4-.6,3.8-.7.2-.7.3-1.4.5-2,0-.4,0-.8.2-1.2-.2-.7-.2-1.5,0-2.2-.4-.3-.4-1.1,0-1.4.2-.2.3-.6.2-1.2-.2-.4,0-.8.2-1.2-.2,0-.2-.1,0-.2,0-.2.1-.3,0-.5-.5-.8-.2-2.2,0-3.1,0-.2.1-.4.2-.5.2-.5.2-1.1.2-1.7-.2,0-.2-.1,0-.2,0-.7.2-3.8.6-4.2,0,0,.2,0,.3,0h0Z" fill="#fdfdfd"/>
  <path d="M38.9,59.3l1.3-21.8,18.8-1.4c0,.3,0,.8-.4.9-.1,0-2-.2-2.6-.2-1.8,0-3.7.4-5.5.5-1.4,0-9.7.1-10.1.7l-.6,21.2c-.3.7-.8.1-.9.1h0Z" fill="#dfdfdf"/>
  <path d="M32.9,16.9c0,1,0,2.1,0,3.1.4,0,.2.2,0,.5v.2l-.5,1.4c.2.2.3.8,0,1,0,.5,0,1,0,1.4,0,.7-.2,1.5-.2,2.2.1.4.1.8,0,1.2,0,.5,0,2-.4,2.2-1.3.2-2.6.3-3.9.5-.8.2-1.4.2-1.9,0-.7,0-1.4.2-2.2.2l-1.4.2c-1.1,0-2.2.2-3.3.2l-1.9.2h-.5c-.6.2-1.3.2-1.9,0-.4,0-.8.2-1.2.2-.3,0-.8.2-1.2.2h-.5c0-.2-.3-.4-.2-.7l19.9-1.5c.5-.3.4-5.4.5-6.2.2-2.4.5-4.7.7-7.1,0-.2.2-.2.2,0,.2.1,0,.3,0,.5h0Z" fill="#aaaaa9"/>
  <path d="M40.3,13.3l.5,15.7,15.9-1.3c.3,0,0,.4.1.5l-16.2,1.5-.5-.9c.6-2.7,0-5.5,0-8.1s.2-1.3.3-1.9c0-1.8,0-3.6,0-5.4Z" fill="#e4e4e4"/>
  <path d="M27.9,38.2c1.1-.2,2.2-.3,3.3,0,.4.1.2,1.4.2,1.8,0,4.3-.4,9.7-.7,14.1,0,.8-.2,1.9-.5,2.7l1-18.4h-4.3c-.2,0-.2-.2,0-.2h1,0Z" fill="#7c7c7b"/>
  <path d="M26.9,38.2v.2l-10.9.7c-.4,0-.4-.2-.6-.5,3.8-.2,7.7-.5,11.5-.5h0Z" fill="#9e9e9e"/>
  <path d="M33.6,10c0,0,.2.2.2.3,0,.2-.5,3.6-.7,4,.2.7,0,1.5-.2,2.2h-.2c.2-2.2,0-4.5.2-6.7.4-.2.6.2.7.2Z" fill="#787878"/>
  <path d="M34.3,10.2l-1,4.3c-.1.2-.2,0-.2-.2,0-1.4,0-3,.5-4.3.3,0,.5.2.7.2Z" fill="#e7e7e7"/>
  <path d="M64,50.9l-.7.7c0-.5.3-.7.7-.7Z" fill="#fefefe"/>
  <path d="M31.2,38.2c-.5-.2-2.6,0-3.3,0,.8-.4,2.5-.4,3.3,0Z" fill="#9e9e9e"/>
  <path d="M33.4,14.5c0,0,0,.2,0,.2,0,.6,0,1.1-.2,1.7,0,.2,0,.4-.2.5v-.5c0-.8.2-1.5.2-2.2,0,0,.2.2.2.2Z" fill="#d3d3d3"/>
  <path d="M27.9,30.6l-1.8.5v-.5c.5,0,1.2,0,1.8,0h0Z" fill="#e3e3e2"/>
  <path d="M33.1,16.5l.2-1.7c0,.4.3.6-.2,1.7Z" fill="#e7e7e7"/>
  <path d="M32.4,26.8c0,.2-.2.2-.2,0,0-.7-.2-1.7.2-2.2,0,.7,0,1.4,0,2.2Z" fill="#e3e3e2"/>
  <path d="M13.5,31.8c.3-.2.7-.2,1,0-.5.4-1.5.2-2.2.2.2-.4.8-.2,1.2-.2Z" fill="#d5d5d5"/>
  <path d="M19,31.3c-.4.4-1.3.2-1.9.2.4-.4,1.3-.2,1.9-.2Z" fill="#d5d5d5"/>
  <path d="M16.6,31.5c-.4.4-1.3.2-1.9.2-.2,0-.2-.2,0-.2.6,0,1.3,0,1.9,0Z" fill="#d5d5d5"/>
  <path d="M32.7,22c0,.2,0,.3-.2.2,0-.5,0-1.1.5-1.4,0,.4-.2.9-.2,1.2Z" fill="#d6d5d5"/>
  <path d="M32.7,22c0,.5.6,1.4-.2,1.2,0-.3,0-.6,0-1l.2-.2Z" fill="#e5e5e4"/>
  <path d="M23.8,30.8c-.4.4-1,.2-1.4.2.3-.4,1-.2,1.4-.2Z" fill="#d2d2d2"/>
  <path d="M32.9,20c.7,0,.5.2,0,.5v-.5Z" fill="#d3d3d3"/>
  <path d="M32.2,28v-1.2h.2c0,.6-.2.9-.2,1.2Z" fill="#e5e5e4"/>
  <path d="M14.7,31.5v.2h-1.2c.2-.4.8-.2,1.2-.2Z" fill="#d2d2d2"/>
  <metadata>
    <sfw xmlns="http://ns.adobe.com/SaveForWeb/1.0/">
      <slices/>
      <sliceSourceBounds x="27.73" y="27.23" width="66.91" height="67.91" bottomLeftOrigin="true"/>
    </sfw>
  </metadata>
</svg>