<?xml version="1.0" encoding="UTF-8"?>
<svg id="Layer_1" xmlns="http://www.w3.org/2000/svg" version="1.1" viewBox="0 0 70 70">
  <!-- Generator: Adobe Illustrator 30.0.0, SVG Export Plug-In . SVG Version: 2.1.1 Build 123)  -->
  <path d="M6.2,52.1c-.5-.9-1.5-1.9-1.9-2.6-1.2-2.4-1.5-5.3-2.1-7.7s-.8-2.3-.7-5.6,0-5.9.8-9,1-1.7,1.1-2-.3-.8,0-1.3,1.1-1.8,1.4-2.5,0-1.2.5-1.7.8-.5.9-.8c1.4-2.8,2.3-4.3,4.6-6.6s4.5-4.1,7-5.7c2.5-1.6,1.9-.4,2.5-.9s.6-.9,1.3-1.4,7.2-2.5,8.5-2.7,7.1-.5,8.7-.3,1.9.8,2.5.8,1.1-.2,1.6-.2c2.5.3,7.8,2.5,10,3.8s.4.9.4.9c0,0,.8,0,1,.2s.6,1.5.9,1.7,1-.2,1.6.4.2.6.3.8c1.8,1.6,6.1,5.2,7.2,7.5,1.1,2.3.9,3.1,1.4,4.1s.7.4.9,1,0,1.2,0,1.6.6.3.8.6c.6,1,.5,3,.6,3.9.5,3.6.7,6.7.3,10.4s-1.7,8-3.1,11.1-1.2.9-1.1,1.7l-.5-.2c0,.5,0,.9-.2,1.4-1.4,3.7-8.8,9.8-12.2,11.8-3.4,2-3.7,2-3.9,2.1-.4,0-1.5,0-2.2,0s-.3.6-.8.8-1.9.2-2.2,0c-.5,0,0-.6-1.5-.3.2.5-.3.5-.7.2-1.5.4-2.8,1-4.4.9s-.4-.5-.6-.4,0,.6-.4.7c-.5.2-.3-.5-.5-.5-.5,0-1.6.5-2.2.5-1.2,0-6.6-1.3-7.9-1.7s-2.1-1.4-3.1-1.7c-1.7-.7-3.1-.5-4.8-1.9s-.7-1.2-1.2-1.7c-.8-.8-2.7-1.3-3.3-1.9s-.8-1.7-1.2-2.1-1-.5-1.5-.9c-.9-.8-1.9-2.9-2.6-4,0-.7,0-.9-.2-.7h.3Z" fill="#000001"/>
  <path d="M60.7,18.5c1,2.6.9,5.6-.1,8.2-1,0-2,0-2.9,0-7.3.2-14.7.4-22,.3-6.1,0-12.2,0-18.2-.2-1.4,0-2.8,0-4.2,0-1.3-2.1-1.9-4.6-2.8-6.9,0,0,0-.3.1-.3.8-.2,2.1-.1,3-.2,10.9-.4,22-.4,33-.6,4.7,0,9.4,0,14.2-.3Z" fill="#fcfcfc"/>
  <path d="M57.7,46.6c.5,1.5.9,3.2.7,4.8,0,.3-.2.4-.2.7-.2,1-.3,1.9-.8,2.8-.3.2-1.7,0-2.1-.1-11.2-.7-22.5-1.3-33.7-2.1-3-.2-5.9-.2-8.9-.7-.3-.1-.3-.7-.4-1-.2-.3-.4-.6-.5-1-.6-1.6-1-3.3-1.6-4.9,0,0,0-.2,0-.3.2-.3,2.7,0,3.2,0,13.8.5,27.6,1.2,41.4,1.8.9,0,1.9,0,2.8,0h0Z" fill="#fcfcfc"/>
  <path d="M58.6,31.1c.1.6.5,1.2.7,1.8.3,1.5.2,3.5-.1,5-.1.5-.2,1.1-.5,1.5h-.2c0,.1-44.5,1.4-44.5,1.4-.1,0-.2,0-.3-.2-.1-.2-.8-1.9-.9-2.2-.5-1.5-.7-3.2-1.3-4.7,0-.2.7-.3.8-.3,2.7-.3,5.7-.3,8.4-.5,11.9-.6,23.8-.9,35.6-1.7.8,0,1.6,0,2.3-.3h0Z" fill="#fcfcfc"/>
  <metadata>
    <sfw xmlns="http://ns.adobe.com/SaveForWeb/1.0/">
      <slices/>
      <sliceSourceBounds x="136.28" y="15.85" width="66.94" height="67.6" bottomLeftOrigin="true"/>
    </sfw>
  </metadata>
</svg>