<?xml version="1.0" encoding="UTF-8"?>
<svg id="Layer_1" xmlns="http://www.w3.org/2000/svg" version="1.1" viewBox="0 0 315.5 175.6">
  <!-- Generator: Adobe Illustrator 30.0.0, SVG Export Plug-In . SVG Version: 2.1.1 Build 123)  -->
  <path d="M43.3,71.6c-1.7,1.9-5.3,4.3-7.5,5.9-4.7,3.5-9.6,6.6-14.4,10-.7.5-3,2.7-3.4,2.8-.3.1-3.9.8-4.4.8-2.1.3-4.5.2-6.6.4s-4.1.9-6.2.6l-.5-13.1C0,63.1-.2,47.2.4,31.3c.2-6.5.4-13.8,1-20.1,0-.6.3-2.6.7-2.9.9-.5,7.1,2.9,8.4,3.4,9.7,3.6,20.3,5.5,29.1,11.4.7.5,3.1,2.1,3.4,2.8.5.8.7,3,.8,4,.5,6.4.5,13,.7,19.4.2,6.1.9,12.9.2,18.9-.2,1.5-.6,2.3-1.6,3.4h0ZM29,21.1c-4.7-1.4-9.6-2.4-14-4.6-.1,0-.3.5-.3.7-.6,3-.4,9.6-.3,12.9.1,11.9.8,23.8,1,35.7,0,4.8-.1,9.7.2,14.5.2.2,2.4-1.5,2.7-1.7,1.9-1.3,8.8-6.1,9.7-7.6.7-1.1.9-3.2,1-4.5.7-11.1,0-23.5,0-34.8,0-2.2.3-4.5.3-6.7,0-1.2-.5-2.6-.3-3.9h0Z" fill="#fff"/>
  <path d="M60,108.2c.6.4,1.6,9.5,1.7,10.9.9,10.7.2,22-1,32.6-.2,1.7-.4,4.7-1.1,6.1-1.5,3.2-11.3,7.4-14.7,8.8-6.6,2.7-11.5,4.4-18.5,5.5-.5,0-2.7.8-2.8.6,0,0-.5-1.6-.5-1.7.1-.1,1.2,0,1.2-.5-.3-.2-1.1,0-1.2-.1-1.2-1-2-21.3-2.1-24.5-.8-13.3-1.5-26.7-2.4-40.1-.2-2.4-.6-4.9-.7-7.3l9.7-1c7.3-.3,25,4.7,30.5,9.6.3.3.5.9.8,1.1.4.2,1-.3,1.2-.1h0ZM42.3,106.8c-1.8-1.6-5.1-3.1-7.3-4.1-.5-.2-2.9-1.6-3.1-.7.7,6,1.8,11.9,2.4,18,1,10.7,1.1,21.6,1.9,32.4.4,4.8.9,9.7,1.4,14.5,2-.9,7-1.7,7.8-3.8,1.2-3.1,1.1-9.8,1.3-13.3.8-11.4,1.2-21.4-.5-32.8-.1-.7-1-3.4-.9-3.6,0-.3,1-.2.7-.9-.8,0-.9,0-1.2-.6,1.9-.7.3-.6,0-1-.2-.3-.6-1.7-1-2.3-.2-.4-1.2-1.4-1.5-1.8h0Z"/>
  <path d="M136.8,97.5c.7,1.7.6,3.3.9,5.2,2.1,11.9,4,22.4,4.5,34.6.2,5.5.9,13.4.5,18.7-.2,2.6-.4,5-3.1,5.8-5.6,1.6-13.3,2.8-19.2,3.9-8.3,1.5-16.6,2.5-25,3.2l-.5-2.6c10.4-1,20.7-3.3,30.8-5.8.8-.8,1.5-8.1,1.6-9.7.3-6.7-.4-13.6-.5-20.3-4.7.9-9.5,2.2-14.3,2.4-4,.2-8.3-.4-12.2-.8s-5.3-1.9-6-5.7c-1.6-7.7-1.3-17.6-1.5-25.6,0-1.2-.7-5.3,0-6.2,1-.5,2-.6,3.1-.8,9.2-1.7,17.9.2,26.8-.3,3.6-.2,6.7-.7,10.5,0,2.6.5,2.7,1.8,3.6,4h0ZM110.1,128.8l11.2-2.3c.4-.2.9-.9,1.1-1.3,1.2-2.9,1.1-7.5.9-10.8-.2-3-1.3-12.9-2.9-15.1-.8-1.1-4.6-2.4-5.9-2.5-.8,0-2.8,0-3.6,0-1.1,0-2.3.6-3.5.5,0,3.1,0,6.2.2,9.2.2,4,.4,8.2.7,12.2.3,3.4.8,6.9,1.7,10.2h0Z"/>
  <path d="M254.3,1.4c0,2.6.5,5.2.7,7.8.6,8.9.8,18.2,1,27.1,0,4,0,7.9,0,11.9.3,0,.5,0,.7-.1,3.1-1.3,6.7-3.8,10-5.3,4.2-1.9,14-5.6,18.4-4.5s3.9,8,3.8,11.3c-.3,5.7-1.4,11.6-1.9,17.3-.2,2.4,0,5.1-.5,7.5l-14.3,5.3c-.5.1-.3,0-.3-.3-.1-1.1.1-4.2.2-5.5.7-7.7,3.4-17.9,2.4-25.4-.4-3.1-3-4.9-6-3.9-1.1.4-6.9,3.5-7.7,4.2-.2.2,0,.6-.3.7l-4.1,2-.2,31.9-15-1.4c.4-7.2.3-14.4.3-21.6,0-12.2-.4-24.5-.7-36.7,0-7.9-.3-15.8-1.2-23.6l14.9,1.4h0Z" fill="#fff"/>
  <path d="M182.3,86.6c.4-.6.5-2.1,1.3-2.1l23.6,2.5c1.2-.5,3.1-7.7,3.5-9.2,1.2-4.7,1.8-9.6,2.9-14.3-3.5-.4-7-.6-10.4-1.1-2.6-.4-6.1-1-8.6-1.7-1.8-.5-4-1.3-4.8-3.2-.6-1.5-.5-5.5-.5-7.2.2-6.7,1.4-13.5,1.9-20.2,5.6.3,11.6.5,17.1,1.5,2,.4,3.8,1.1,5.7,1.5,6.7,1.4,13.5,1.8,19.8,5,.1,2.6-.4,5.2-.8,7.8-1.6,10.1-3.8,21.2-6,31.2-.6,2.5-2.6,10.5-4.2,12.1-.8.7-2,.9-3,1.1-7.4.9-17.2-.5-24.7-1.5-4.3-.6-8.6-1.2-12.9-2.1h0ZM217.3,36.5c-.5-.5-10.3-1.8-11.7-2.5-.7,7.7-1.7,15.4-1.7,23.1.6.7,1.1,1.2,1.2,2.2,1.1-.2,8.5.6,8.9.1.5-.8,1.1-4.4,1.3-5.6.7-3.8,1.6-8.3,2-12.2.1-1,.5-4.7,0-5.3Z" fill="#fff"/>
  <path d="M250.4,103.2c.5.6.9,3.7,1,4.6.5,4.7.3,9.4.5,14.2.3,9.2,1.3,20.7.5,29.7-.3,3.2-1.5,2.1-3.7,2-2.9,0-5.8,0-8.6.2-8.5.7-15.3,3.4-23.8.8-1-.3-1.9-.9-2.7-1.1-1.6-.6-4.8-1-5.9-2.3-1-1.1-.7-5-.8-6.6-.2-2.7-.8-5.7-.9-8.4,0-.9-.1-2.8.5-3.4.4-.4,4.3-1.6,5.2-1.9,8.4-2.7,17.2-4.6,26-5.6l-.5-22.1-15.6,1c-.1-1.8-.5-3.6-1.2-5.3.6,0,1.2-.2,1.8-.2,9-.6,18-.5,26.3,3.2.2,0,1.9,1.1,2,1.2h0ZM237.5,133.1c-5.5,1.4-11.2,2.6-16.4,5l1.1,11c5-.6,10.1-.8,15.1-.7l.2-15.3Z"/>
  <path d="M179.8,25.3c.9.9,1.1,3.6,1.3,4.8.9,8.6-.6,17-1.9,25.5-.3,2.2-.4,7.4-1.8,9-.2.3-2.4,1.7-2.8,1.9-1.1.7-2.4,1.1-3.5,1.8-6.4-.2-12.9-.9-19.3-1.8-3.1-.5-6.2-1.1-9.3-1.7.3-2.1-.3-4-.4-6.1-.2-8.3,1.1-17.7,1.3-26.1,0-2.5,0-5.1-.2-7.5,1.9-.5,3.9-.9,5.9-1.2,7.1-1.1,14.6-1.6,21.8-.7,1.7.2,7.9,1.2,8.9,2.2h0ZM164.5,63.5c.7-5.6.4-11.4.5-17.1,0-4.8.6-9.8.3-14.6,0-1.1-.3-3.8-.8-4.7-.8-1.5-4.7-1.6-6.2-1.4-.3,11.6-.6,23.2-1.2,34.9.5,2.8,5.2,2.9,7.4,3h0Z" fill="#fff"/>
  <path d="M110,29.1c.9.8.9,4.7,1,6.1,1.1,9.1,2.6,19.1,2.9,28.3,0,2.4.5,3.8-1.6,5.4-5.5,4.1-24.7,9.2-31.9,10.8-3.7.8-4.6,1.4-5.5-2.6-1.3-5.9-2.3-15.1-2.5-21.2,0-1.3-.3-3.2.9-3.9,1.5-.8,4.6-1.8,6.3-2.3,4.5-1.4,9.2-2.4,13.7-3.5,1-.2,1.9-.9,3.1-.7l-1.2-15.8c-5.2,0-10.2,1.2-15.4.5-.2,0-1-.2-1.1-.2,0-.1-.2-2.5-.2-2.6.4-.5,7.3-.4,8.4-.5,6.8-.2,13-.7,19.7,1.2.6.2,3.2,1,3.4,1.2ZM96.9,49.4c-1.9.5-4,.9-5.9,1.7-1.1.4-2.5.9-2.7,2.1.7,6.8,1,13.7,2.1,20.4l8.6-2.2s-2.2-22-2.2-22.1Z" fill="#fff"/>
  <path d="M193.8,99.8c0,.1.3,2.6.3,2.9,0,1.6,0,2.9,0,4.6.1,3.9.1,7.8.2,11.6,3.4-.4,6.9-1,10.3-.5,0,1.2-.2,2.5.2,3.6l-10.3.5c.7,7,.7,14,1.4,21,.5,4.9,1.9,17.3,5.4,20.7,2.2,2.1,5.9,1.7,8.6.8,1.5,3.6.4,2.8-1.9,4.2-5.9,3.7-17.5,11.4-22,1.8-4-8.4-4.4-27.3-4.9-37-.2-3.6-.2-7.2-.3-10.9-1.4,0-2.8-.7-3.9-1-1.4-.3-3.9.3-3.5-1.7l7.2-.5c0-3.5,0-7,0-10.4,0-1.8-.8-1.9.8-3.5,2.2-2.2,6.1-5,8.9-6.4.2-.1,1.8-.8,1.9-.8s1.5.9,1.5,1h0Z"/>
  <path d="M141.5,76.3c0,0,0,2.2,0,2.3-.1.2-3.9,1.8-4.5,2.1-.4.2-1,0-1.4.2-1.4.6-3,1.7-4.5,2-2.8.7-10,.2-11.1-3-1.4-4.4-.2-10.1,0-14.6.5-13.2.6-26.4.5-39.6.5-6.9.6-13.8,1.2-20.7l14.1,3.5c-.4,12.1-.5,24.1-.9,36.2-.3,8.3-1.7,18.5-1,26.6.4,4.7,3.9,4.3,7.7,4.9h0Z" fill="#fff"/>
  <path d="M278.5,162.1c4.6-.6,9.2-1.8,13.8-2.4,3.2-.4,6.4-.5,9.5-.8l1.3,5.9-28.2,4.4c-1.6-.2-2.7-1.4-3.9-2.1-1.4-.8-5-2.7-5.6-3.9-.3-.6-.6-1.9-.7-2.7-.3-2.9,0-5.8,0-8.6.1-11.7,1-23.4,1.2-35,.1-6.5-.7-14.8,0-21.1,0-.3,0-.7.4-.8.4,0,6.6,1.9,7.5,2.3,1.1.4,4.4,1.5,5.1,2.1.2.2.4.3.4.6v21.3c0,11.8-.6,23.6-1,35.5,0,1.8,0,3.6,0,5.4h0Z"/>
  <path d="M82.5,108.9c0,1.6,0,3.3,0,4.9.7,13.8,1.8,29.1,1,42.9,0,.7-.3,1.3-.2,2-.7.2-1.4-.2-2.1-.2-3.4,0-4.3-.4-7.5-1.1-.9-.2-5.3-.5-5.6-1.4-.3-1.3.2-4.1.2-5.5.3-14.4,0-28.8-.7-43.2,0-.7,1-.8,1.6-.8,2.8-.3,8.1.8,10.9,1.6.8.2,1.5.8,2.4.8h0Z"/>
  <path d="M164.8,103.6l3.9,47.6c0,.3-1.9.7-2.3.9-2.7,1.4-3.9,1.8-6.8,2.8-1.9.6-3.6,1.9-5.6,1.8-.7-.2-.8-7.4-.9-8.5-1-13-1.6-26.1-2.2-39.1,0-.3,1.1-1.2,1.5-1.4.9-.5,3.1-1.5,4.1-1.9s8-2.3,8.4-2h0Z"/>
  <polygon points="65.2 43.2 65.3 84.8 50.6 87.3 50.6 41.7 65.2 43.2" fill="#fff"/>
  <path d="M309.2,75.1l-15.1-3.4c.8-6.2,1.5-12.5,1.9-18.8.5-7,.6-14,.7-21,4.1,1.1,8.7,1.7,12.7,3,.5.2,1.8.6,1.9,1,0,.3-.2.9-.2,1.4,0,8.7-.1,17.3-.7,25.9-.3,4-.8,7.9-1.2,11.9h0Z" fill="#fff"/>
  <path d="M289.8,148.2l-1.2-29.6c4.1-2.8,9.2-3.9,14-4.7l2.5,32.2c-.1.4-1.3.5-1.8.6-4.5.7-9,.9-13.5,1.5h0Z"/>
  <path d="M65.7,18.7c-1.2,3.4-.3,7.5-.7,10.9-.2,1.4-1.2.7-2.3.8-.5,0-.8.4-1.4.5-3.5.4-7.6-.7-11.2-.2l.7-13.4,14.9,1.4h0Z" fill="#fff"/>
  <path d="M313,12.8c.2.1,1.2.9,1.4,1,.4.2,1.1,0,1.1.7l-1.7,10.7-14.8-3.9,1.9-11.4c.1,0,2.3,0,2.7,0,2.9.3,6.7,1.6,9.4,2.9h0Z" fill="#fff"/>
  <path d="M82.5,90.7l.5,10.5c-5.6-.2-11.7.2-16.9-1.9.3-1.8.2-3.8.4-5.6.2-1.3.7-2.6.7-3.9,2.3-.5,4.7-.8,7.1-.7,2.8.5,5.5.8,8.2,1.7h0Z"/>
  <path d="M303.2,103.8c0,0-1.7.3-2,.5-3.3,1.4-7.3,2.9-10.9,3.5-2.6.4-1.5-1-1.4-2.6,0-2.5,0-4.9,0-7.4.1-.4,1.4-.7,1.7-.9,2.9-1.6,5.8-2.8,9.2-3.3,1.1-.2,2.4,0,3.5-.5v10.8s0,0,0,0Z"/>
  <path d="M163.8,87.8c.3.3.5,7.1.4,8.2-2,.8-3.6,1.9-5.7,2.4-1,.3-2,.3-2.8.5-1.3.4-3.3,1.4-4.5,1.5-.3,0-.7.2-.9-.2-.4-.7,0-5.9-.6-7.1,0-.3,0-.5.3-.7.4-.5,4.1-2.2,4.9-2.5,2.8-1.1,6-1.6,9-2.2h0Z"/>
  <metadata>
    <sfw xmlns="http://ns.adobe.com/SaveForWeb/1.0/">
      <slices/>
      <sliceSourceBounds x="0" y="0" width="315.45" height="175.63" bottomLeftOrigin="true"/>
    </sfw>
  </metadata>
</svg>