<?xml version="1.0" encoding="UTF-8"?><svg id="Layer_1" xmlns="http://www.w3.org/2000/svg" width="315.45" height="175.62" viewBox="0 0 315.45 175.62"><path d="M43.26,71.56c-1.73,1.89-5.31,4.28-7.47,5.89-4.69,3.48-9.6,6.64-14.4,10-.72.5-3.02,2.65-3.42,2.83-.26.11-3.85.76-4.44.84-2.1.28-4.52.19-6.63.38s-4.13.91-6.19.56l-.5-13.05C-.05,63.11-.17,47.2.45,31.28c.25-6.46.41-13.76.97-20.13.05-.61.29-2.64.72-2.9.89-.53,7.12,2.89,8.4,3.37,9.67,3.6,20.33,5.5,29.15,11.39.74.49,3.07,2.15,3.44,2.8.46.81.67,3.03.75,4.05.5,6.42.49,12.99.71,19.43.21,6.06.91,12.89.22,18.91-.17,1.47-.61,2.32-1.56,3.36ZM28.99,21.13c-4.67-1.38-9.65-2.44-14.01-4.58-.13-.04-.26.48-.29.66-.56,3.02-.36,9.62-.32,12.9.14,11.87.76,23.82.97,35.71.09,4.85-.15,9.69.24,14.52.16.18,2.4-1.5,2.71-1.72,1.86-1.34,8.83-6.11,9.72-7.55.69-1.12.93-3.18,1.01-4.51.69-11.08-.05-23.54-.02-34.79,0-2.2.27-4.49.26-6.72,0-1.23-.45-2.61-.28-3.92Z"/><path d="M59.95,108.16c.61.43,1.57,9.51,1.69,10.91.92,10.67.16,21.96-.96,32.61-.18,1.67-.4,4.66-1.1,6.09-1.55,3.17-11.33,7.37-14.74,8.77-6.57,2.7-11.47,4.38-18.51,5.47-.5.08-2.73.76-2.83.65-.06-.06-.53-1.61-.48-1.68.1-.14,1.22-.03,1.2-.48-.26-.19-1.14-.06-1.21-.11-1.24-1.04-1.95-21.31-2.15-24.47-.84-13.31-1.54-26.72-2.4-40.05-.16-2.43-.6-4.88-.72-7.32l9.72-.96c7.27-.32,24.97,4.69,30.46,9.59.32.29.54.94.84,1.09.38.19.99-.27,1.19-.13ZM42.35,106.82c-1.76-1.56-5.09-3.14-7.29-4.11-.53-.23-2.94-1.57-3.14-.66.71,6.01,1.82,11.93,2.37,17.97.97,10.75,1.09,21.6,1.92,32.37.37,4.84.9,9.69,1.44,14.51,1.98-.9,6.95-1.69,7.8-3.82,1.24-3.12,1.06-9.75,1.32-13.32.83-11.42,1.24-21.39-.51-32.82-.11-.72-.96-3.41-.94-3.61.02-.26.95-.25.73-.86-.76.09-.9.08-1.2-.6,1.93-.68.3-.57-.02-.99-.23-.31-.61-1.72-.96-2.28-.24-.39-1.15-1.45-1.51-1.77Z"/><path d="M136.82,97.51c.7,1.67.6,3.3.93,5.18,2.09,11.93,3.97,22.37,4.5,34.59.24,5.53.86,13.4.47,18.71-.19,2.58-.41,4.99-3.11,5.76-5.55,1.6-13.31,2.79-19.15,3.88-8.28,1.53-16.59,2.51-24.99,3.19l-.48-2.64c10.43-1,20.68-3.27,30.83-5.76.83-.8,1.49-8.13,1.56-9.7.29-6.7-.37-13.58-.48-20.28-4.68.87-9.49,2.16-14.26,2.41-3.96.21-8.27-.38-12.22-.76s-5.26-1.91-6.04-5.71c-1.59-7.72-1.32-17.6-1.54-25.56-.03-1.25-.68-5.3-.03-6.19.96-.46,2.02-.64,3.06-.83,9.16-1.73,17.87.15,26.83-.28,3.63-.18,6.73-.7,10.53.03,2.64.51,2.69,1.78,3.6,3.96ZM110.11,128.77l11.2-2.33c.39-.21.9-.93,1.07-1.32,1.25-2.95,1.08-7.53.91-10.84-.16-3.01-1.31-12.89-2.87-15.11-.8-1.13-4.55-2.39-5.91-2.5-.8-.06-2.75-.07-3.57-.04-1.12.05-2.32.55-3.47.5.1,3.07.09,6.17.23,9.24.17,3.97.37,8.24.73,12.22.31,3.42.81,6.87,1.69,10.19Z"/><path d="M254.28,1.44c.07,2.61.54,5.2.72,7.8.6,8.85.79,18.21.97,27.09.08,3.96-.08,7.93,0,11.88.28.06.46-.03.71-.13,3.15-1.27,6.69-3.85,10-5.35,4.19-1.9,14-5.61,18.38-4.54s3.92,7.99,3.77,11.33c-.26,5.67-1.36,11.61-1.91,17.27-.24,2.44-.09,5.06-.52,7.52l-14.27,5.28c-.46.11-.29,0-.33-.33-.14-1.14.13-4.24.24-5.52.69-7.69,3.36-17.92,2.37-25.4-.41-3.12-2.98-4.92-6.02-3.92-1.13.37-6.87,3.49-7.71,4.24-.23.2-.06.57-.32.74l-4.12,1.95-.17,31.87-14.99-1.36c.38-7.16.32-14.38.26-21.57-.09-12.18-.41-24.5-.74-36.67.05-7.9-.34-15.79-1.19-23.63l14.87,1.44Z"/><path d="M182.31,86.57c.45-.56.51-2.09,1.3-2.14l23.65,2.51c1.18-.48,3.14-7.65,3.54-9.19,1.22-4.72,1.84-9.57,2.95-14.32-3.46-.37-6.96-.57-10.4-1.12-2.61-.42-6.09-1.04-8.61-1.71-1.78-.47-4.01-1.35-4.76-3.16-.59-1.45-.53-5.55-.47-7.22.23-6.7,1.43-13.55,1.92-20.25,5.59.34,11.57.52,17.08,1.51,1.99.36,3.78,1.14,5.66,1.54,6.7,1.43,13.51,1.85,19.75,4.97.13,2.64-.41,5.25-.83,7.85-1.61,10.09-3.75,21.2-6,31.18-.56,2.51-2.55,10.54-4.23,12.08-.79.72-1.98.94-3.01,1.06-7.44.89-17.17-.47-24.67-1.47-4.3-.57-8.62-1.22-12.87-2.13ZM217.27,36.51c-.48-.54-10.27-1.79-11.7-2.46-.7,7.7-1.71,15.4-1.69,23.15.58.72,1.08,1.25,1.24,2.23,1.14-.25,8.52.63,8.87.14.54-.76,1.11-4.42,1.34-5.57.74-3.82,1.55-8.34,1.97-12.18.11-1.03.54-4.66-.03-5.31Z"/><path d="M250.37,103.18c.5.57.93,3.69,1.03,4.61.52,4.69.32,9.45.47,14.16.3,9.22,1.26,20.67.5,29.74-.27,3.2-1.48,2.05-3.72,2.02-2.87-.05-5.79.02-8.64.25-8.46.69-15.34,3.43-23.82.78-1.01-.32-1.86-.85-2.7-1.14-1.64-.56-4.76-.98-5.88-2.28-1-1.15-.69-5-.84-6.6-.25-2.71-.83-5.72-.95-8.4-.04-.87-.12-2.81.54-3.41.4-.36,4.33-1.64,5.17-1.91,8.36-2.69,17.24-4.55,25.96-5.58l-.48-22.06-15.59.96c-.15-1.8-.5-3.61-1.2-5.27.61,0,1.18-.21,1.79-.25,9.02-.63,17.97-.53,26.34,3.19.22.1,1.95,1.12,2.03,1.21ZM237.48,133.09c-5.53,1.42-11.23,2.62-16.44,5.02l1.09,11.04c5.01-.6,10.06-.8,15.11-.72l.24-15.34Z"/><path d="M179.83,25.26c.87.87,1.15,3.59,1.28,4.84.91,8.65-.61,16.97-1.88,25.45-.33,2.2-.36,7.38-1.82,8.97-.24.26-2.38,1.68-2.84,1.95-1.09.65-2.41,1.1-3.52,1.76-6.4-.25-12.92-.88-19.28-1.84-3.1-.47-6.18-1.07-9.26-1.66.33-2.09-.3-4.04-.36-6.1-.24-8.33,1.08-17.7,1.31-26.13.07-2.5.08-5.08-.24-7.55,1.89-.54,3.92-.89,5.89-1.19,7.14-1.09,14.55-1.63,21.78-.71,1.7.21,7.94,1.2,8.94,2.21ZM164.52,63.51c.73-5.62.43-11.41.5-17.12.06-4.82.55-9.77.26-14.63-.07-1.11-.34-3.82-.78-4.73-.75-1.54-4.66-1.62-6.18-1.37-.32,11.65-.56,23.25-1.19,34.88.46,2.79,5.19,2.94,7.39,2.98Z"/><path d="M110.04,29.08c.89.82.86,4.74,1.02,6.05,1.14,9.14,2.58,19.11,2.89,28.29.08,2.44.47,3.81-1.61,5.36-5.46,4.09-24.69,9.25-31.88,10.82-3.65.79-4.62,1.4-5.51-2.61-1.32-5.94-2.28-15.12-2.51-21.23-.05-1.26-.33-3.24.91-3.93,1.5-.84,4.55-1.76,6.28-2.3,4.5-1.4,9.19-2.41,13.74-3.54.98-.24,1.92-.89,3.06-.66l-1.2-15.83c-5.21.06-10.22,1.22-15.45.45-.2-.03-1.04-.19-1.08-.24-.09-.1-.24-2.51-.16-2.62.36-.5,7.32-.42,8.42-.46,6.79-.25,13.01-.67,19.65,1.2.56.16,3.17,1.01,3.43,1.25ZM96.9,49.4c-1.95.54-3.99.93-5.88,1.68-1.06.42-2.53.89-2.71,2.1.66,6.82,1.03,13.68,2.12,20.44l8.62-2.17-2.15-22.05Z"/><path d="M193.77,99.81c.07.13.31,2.59.31,2.95,0,1.59-.05,2.9,0,4.55.11,3.88.1,7.76.23,11.64,3.43-.43,6.87-.98,10.32-.48.09,1.19-.24,2.47.24,3.6l-10.32.48c.69,6.97.73,14.01,1.44,20.98.5,4.87,1.93,17.29,5.36,20.66,2.17,2.13,5.9,1.73,8.55.8,1.46,3.64.44,2.75-1.89,4.22-5.9,3.71-17.46,11.36-21.97,1.77-3.97-8.45-4.45-27.34-4.93-37.03-.18-3.62-.24-7.25-.26-10.9-1.39.01-2.78-.71-3.95-.96-1.45-.31-3.94.33-3.46-1.7l7.2-.48c-.05-3.48.05-6.96,0-10.44-.02-1.75-.77-1.87.82-3.48,2.18-2.21,6.15-5.02,8.92-6.43.23-.12,1.79-.76,1.89-.76s1.46.93,1.5,1.01Z"/><path d="M141.51,76.27c.08.08.05,2.22-.03,2.35-.13.21-3.94,1.85-4.51,2.08-.44.18-1,.05-1.45.23-1.4.55-3.01,1.65-4.46,2.02-2.82.72-10,.24-11.07-3.03-1.42-4.36-.21-10.06-.05-14.55.46-13.17.56-26.36.46-39.59.47-6.88.58-13.84,1.21-20.73l14.12,3.51c-.43,12.05-.52,24.14-.92,36.19-.28,8.31-1.69,18.47-.97,26.6.42,4.74,3.86,4.3,7.66,4.93Z"/><path d="M278.5,162.11c4.63-.57,9.19-1.79,13.83-2.37,3.19-.4,6.36-.5,9.55-.77l1.34,5.89-28.19,4.45c-1.56-.2-2.7-1.42-3.88-2.13-1.38-.84-4.99-2.67-5.65-3.95-.33-.65-.6-1.95-.67-2.69-.26-2.85-.03-5.8,0-8.62.15-11.69,1.03-23.45,1.21-35.02.1-6.53-.72-14.84-.03-21.12.03-.3.03-.72.39-.8.38-.09,6.61,1.94,7.53,2.26,1.08.38,4.41,1.52,5.15,2.05.22.16.37.28.38.58v21.35c-.02,11.76-.62,23.56-.97,35.47-.05,1.8.06,3.61.01,5.41Z"/><path d="M82.51,108.87c-.05,1.6-.09,3.31-.01,4.92.68,13.82,1.84,29.11.98,42.92-.04.68-.31,1.33-.25,2.03-.7.17-1.42-.23-2.05-.25-3.39-.08-4.32-.44-7.49-1.13-.95-.21-5.33-.52-5.58-1.43-.35-1.3.22-4.05.25-5.46.32-14.4-.07-28.84-.73-43.18.07-.66.98-.78,1.56-.83,2.83-.28,8.1.77,10.92,1.55.85.23,1.51.8,2.4.85Z"/><path d="M164.78,103.6l3.87,47.57c-.05.31-1.89.72-2.26.92-2.74,1.41-3.89,1.76-6.83,2.75-1.86.63-3.59,1.9-5.64,1.76-.69-.16-.8-7.43-.88-8.52-1.02-13.01-1.63-26.06-2.16-39.09.07-.34,1.1-1.2,1.46-1.42.85-.5,3.1-1.54,4.06-1.94s8.01-2.29,8.38-2.04Z"/><polygon points="65.23 43.17 65.32 84.84 50.6 87.29 50.6 41.72 65.23 43.17"/><path d="M309.21,75.06l-15.11-3.36c.79-6.24,1.51-12.54,1.92-18.83.46-6.99.58-13.98.72-20.98,4.1,1.07,8.71,1.67,12.72,2.99.46.15,1.77.56,1.89,1,.08.3-.22.94-.23,1.39-.07,8.66-.12,17.28-.71,25.91-.27,3.95-.8,7.93-1.2,11.87Z"/><path d="M289.78,148.2l-1.16-29.58c4.11-2.8,9.16-3.89,14.01-4.66l2.5,32.17c-.14.41-1.34.52-1.82.59-4.47.67-9.05.86-13.52,1.47Z"/><path d="M65.71,18.7c-1.21,3.43-.29,7.51-.71,10.92-.16,1.36-1.23.66-2.28.84-.5.09-.85.41-1.44.47-3.47.4-7.59-.67-11.16-.25l.72-13.43,14.87,1.44Z"/><path d="M312.96,12.8c.25.12,1.18.92,1.36,1.03.39.22,1.12-.07,1.13.67l-1.68,10.68-14.84-3.87,1.92-11.45c.11-.07,2.32-.05,2.7,0,2.94.33,6.72,1.63,9.41,2.94Z"/><path d="M82.47,90.68l.51,10.52c-5.56-.19-11.73.16-16.93-1.92.28-1.82.15-3.83.38-5.63.17-1.34.69-2.58.74-3.93,2.31-.47,4.68-.75,7.05-.74,2.79.51,5.54.78,8.24,1.71Z"/><path d="M303.19,103.81c-.07.08-1.68.31-2.04.46-3.3,1.36-7.26,2.89-10.89,3.53-2.57.45-1.48-1.04-1.42-2.64.08-2.46-.08-4.94-.01-7.39.1-.38,1.4-.72,1.73-.91,2.94-1.63,5.81-2.76,9.21-3.31,1.15-.19,2.4.02,3.45-.5l-.02,10.77Z"/><path d="M163.83,87.77c.3.28.49,7.14.37,8.16-1.96.84-3.62,1.87-5.7,2.45-.99.28-1.98.29-2.83.53-1.32.36-3.28,1.36-4.49,1.53-.32.04-.68.15-.91-.18-.45-.66-.08-5.91-.61-7.09-.03-.31.08-.48.27-.71.4-.47,4.1-2.21,4.91-2.53,2.83-1.11,6.01-1.62,9-2.15Z"/></svg>