<?xml version="1.0" encoding="UTF-8"?><svg id="Layer_2" xmlns="http://www.w3.org/2000/svg" width="127.25" height="19.55" viewBox="0 0 127.25 19.55"><defs><style>.cls-1{fill:#fff;}</style></defs><path class="cls-1" d="M45.91,8.53l.83-2.4c.78-.31,2.1-.85,2.63.01l1.32,2.63c.21-.78.8-3.57,1.26-4.02.28-.28,2.47-.71,2.79-.5.56.36,2.49,11.39,2.91,12.91-.46-.16-1.95.42-2.15.23-.41-.36-1.78-9.84-2.29-9.83-.17.67-.97,3.6-1.5,3.84s-1.61.1-2.21.48l-1.45-3.11c.22,1.09-1.05,2.93-1.1,3.71s1.31,3.88,1.09,4.19c-.06.09-2.04.55-2.14.48-.14-.1-.64-2.71-.85-3.11-.62.47-2.37.05-2.72.27-.19.12-.51,2.38-.79,2.57-.09.06-2.04.35-2.12.28l2.69-12.41c.48-.07,2.03-.62,2.35-.43.69.42,1.16,3.37,1.44,4.21ZM44.71,13.09l-1.2-4.55-.96,5.03,2.16-.48Z"/><path class="cls-1" d="M89.92,10.93c.59.09,1.07.45,1.06,1.09-.4.98.02,5.55-.86,5.83-.43.14-2.3.29-2.84.29-1.61,0-3.49-.39-5.16-.37-.54-.32-.83-3.21-.96-3.96,3.22-.93,2.15.9,2.88,3.12,1.41-.42,2.89-.28,4.31,0l.24-4.8-4.56-.24.27-6.8c.13-.4,1.95-.6,2.49-.63,1.4-.07,2.59.24,3.96.24-.18,1.02.15,2.11.19,3.06.04.88-1.79.46-2.35.54v-2.88c-.4.08-1.7-.13-1.89.03-.54.46,0,4.55-.51,5.49,1.16.12,2.6-.17,3.72,0Z"/><path class="cls-1" d="M112.43,13.9l-7.8,1.64c-.53-.3-.34-.7-.25-1.17.13-.67,2.31-4.79,2.06-5.02-.62-.13-2.86.42-2.88-.6.64-.61,3.23-.44,3.56-.64.19-.11.46-1.49.75-1.76-.57-.3-4.16-.21-4.31-.36-.13-.13,0-.65.24-.83,1.44-1.08,4.49.52,6.2.15.5.93,0,1.98-.44,2.84h1.68c.27,1.07-.72.65-1.56.97-1.29.49-2.12,3.76-2.76,5.03,1.26-.44,3.87-1.29,5.12-.96.26.07.07.55.27.48.54-.18.15-2.93.24-3.13.17-.39,1.72-.85,2.05-.6.4.29.23,6.8-.03,7.08-.07.08-1.8.28-2.14.5v-3.6Z"/><path class="cls-1" d="M94.48,10.24c-.19.22.06,5.35-.28,5.72-.07.08-1.8.14-2.15.49.3-3.79-.11-8.15.24-11.87.06-.63.09-1.24.72-1.44l-.48-.6c1.26,0,5.59-.66,6.48-.13s1.14,5.5.85,6.61c-.31.43-2.92.37-3.56.51-.15.03-1.76.62-1.82.69ZM94.45,4.1c-.24,1.42.18,3.42,0,4.92l3.12-.48c-.12-1.11.4-4.6-.72-5.16-.97-.48-2.19-.53-2.4.72Z"/><path class="cls-1" d="M123.44,2.91c.8,3.11.45,6.36.5,9.55-1.25.38-2.43.3-3.62.39-2.2.18-3.83,1.33-4.06-1.45-.07-.91-.12-7.5.11-7.82.12-.17,1.5-.41,1.75-.4.39.02.58.4,1.11.41.89,0,3.63-1.04,4.2-.68ZM121.55,4.07c-.16-.16-2.97.33-3.09.51-.21.32-.03,7.34.21,7.64l3.12-.48-.24-7.67Z"/><path class="cls-1" d="M18.24,6.13v10.19c0,.08-.26.57-.4.61-1.15.27-2.92-.25-4.01-.22-.46.01-3.5.99-3.5.1v-4.56c0-.12.26-.51.42-.6.73-.41,4.98-.76,5.11-1.11l.23-3.2-4.67.72-.13-.72c2.37-.08,4.53-1.49,6.96-1.2ZM15.84,11.65l-3.12.48v3.84l3.12-.24v-4.08Z"/><path class="cls-1" d="M25.82,5.69l.51,4.52c-.49-.1-1.83.16-2.13-.03s-.16-3.04-.51-3.57c-.73.15-1.82.4-2.06,1.19.34,2.51.12,5.58.64,8.02.36,1.69,1.51,1.07,2.84.84-.27-2.44-.71-2.48,1.94-2.86l.48,3.35c-1.3.02-5.71,1.24-6.65.8-.72-.34-.92-2.47-1.02-3.31-.17-1.35-.7-6.82-.32-7.74.31-.77,6.01-1.69,6.29-1.22Z"/><path class="cls-1" d="M11.29,3.02s.03.64-.01.7c-.1.16-3.09.97-3.58,1.1-.71.19-2.43.15-2.77.83-.57,1.14.4,3.48.12,4.8,1.49-.17,2.95-.82,4.44-.95.3-.03,1.45-.25,1.31.35-.78.69-5.01,1.2-5.4,1.79-.48.72.34,4.46.37,5.52-.93-.06-2.41.39-2.63-.84-.1-2.89-.49-5.75-.72-8.63-.08-.96.4-2.58-.48-2.87,1.2-.79,8.63-2.68,9.35-1.8Z"/><path class="cls-1" d="M31.92,7.81c.37-1.17.22-2.39.24-3.6l-2.17.39c-.05,2.62.34,5.23.54,7.84,2.35,2.34,1.25-.93,1.93-1.7.23-.26,1.66-.48,2.1-.54.12.13-.17,3.1-.28,3.44-.38,1.13-4.67,1.27-5.59.15-1.06-1.3-.61-7.51-1.1-9.43.14-.55,5.85-1.5,6.25-1.25.59.36.65,3.47.45,4.06-.18.54-1.81.64-2.37.63Z"/><path class="cls-1" d="M57.01,4.97c1.12-.95,6.59-1.44,7.28-.28.34.57.11,6.83-.17,7.75-.41,1.35-5.59,1.48-6.44.54-.28-.31-.42-1.03-.46-1.45-.22-2.03.09-4.45-.2-6.56ZM61.73,12.33c.32-.2.55-5.91.47-6.76-.26-.78-2.37-.83-2.94-.43-.42.29.08,1.37.1,1.83.03,1.18-.23,3.97.16,4.86.23.53,1.68.59,2.21.5Z"/><path class="cls-1" d="M72.36,6.61c.2.2-.25,2.38-.5,2.74-.17.25-1.67.86-1.78.85-.74-.06.26-2.27.12-2.39-.5.1-1.8-.17-2.12.03s-1,6.69-.72,7.13c.05.07,1.59.58,1.65.51.14-.61.14-3.84.27-4.04.07-.1,1.95-.55,2.14-.41.39.28.02,4.69-.22,5.03-.49.68-4.53.74-5.44.16-1.47-.93-.21-6.96.01-8.65,1.21-.82,2.74-.34,4.08-.48.86-.08,1.61-.64,2.52-.48Z"/><path class="cls-1" d="M103.23,16.47c-.13.43-2.07.93-2.58,1.02-.43.08-3.28.35-3.5.27-.75-.26-.83-3.35-.49-3.59,1-.71,3.22-.37,4.42-.45v-2.16c-1.52-.31-2.92.58-4.32.24-.07-.09.14-.29.24-.36.57-.37,5.23-1.21,5.75-.96.11.05.48.44.48.48,0,1.12.23,4.77,0,5.51Z"/><path class="cls-1" d="M73.98,15.01c-.09-1.06-.79-8.33-.48-8.63.06-.06,1.68-.25,1.77-.22.67.19.34,2.94.39,3.7.11,1.42.32,2.89.49,4.31.12.7-2.09.93-2.17.85Z"/><path class="cls-1" d="M38.97,8.05l-.23,7.99-2.17.64c-.24-.33-.01-7.5.23-8.23.12-.36,1.76-.44,2.17-.4Z"/><path class="cls-1" d="M39.32,3.02c.21,2.33.08,2.92-2.4,2.88.27-.47.14-2.54.24-2.63.08-.08,1.8-.14,2.16-.24Z"/><path class="cls-1" d="M114.35,5.81c-.07.43.1,2.55,0,2.64-.08.07-1.82.05-2.16.24-.01-2.22-.58-3.14,2.16-2.88Z"/><path class="cls-1" d="M75.75,2.06c-.61,1.13.55,2.01-.72,2.52-.86.35-1.59.56-1.69-.47-.22-2.28.27-2,2.41-2.05Z"/><polygon class="cls-1" points="97.44 14.82 100.66 14.7 100.6 15.6 97.61 15.89 97.44 14.82"/></svg>