<?xml version="1.0" encoding="UTF-8"?>
<svg id="Layer_2" xmlns="http://www.w3.org/2000/svg" version="1.1" viewBox="0 0 255.3 155.8">
  <!-- Generator: Adobe Illustrator 30.0.0, SVG Export Plug-In . SVG Version: 2.1.1 Build 123)  -->
  <path d="M16.8,6.8l-.2.5c.7.3.7-.4.9-.5,2.8-.6,6.4.3,9.3.2,16.8-.4,33.6,0,50.4,0,15.6,0,31.4-.2,47,0,2.2,0,5,.6,7.2.5,1.1,0,1.3-.3,2.9-.3,14.8.6,29.9,0,44.8.3,1.4,0,4,.5,5.3.4,7.6-.4,15.3-.3,23-.2,5.3,0,10.6,0,15.8.3,2.3.2,5-.1,7.5,0,.9,0,1.6,0,2.6,0,2.2,0,4.5.4,6.3,0,1.4-.3,4.2-.5,4.3,1.5,0,.4-.3,1.2-.3,1.8-.5,11.6,0,23.4,0,35.2,0,3.4.3,6.9.3,10.3,0,.7-.4,1.6-.3,2.1,0,.3.4.6.4,1,0,.1-.5,0-.5.2,0,.4.5.6.5,1s-.4.5-.4.7c0,.3.4.8.4,1.2,0,.7-.5,3-.5,4-.1,15.2.6,30.8.3,46.1,0,1.2.3,2.7,0,4,0,.2-.6,0-.5.3.9,2,.7,4.3.7,6.5,0,4.9-.1,9.8-.3,14.6,0,1.8.2,3.7,0,5.5-.4.5-7.7.4-9,.4-7.6,0-15.4-.2-23.1.1-.8,0-1.7-.3-2.6-.1-.4,0-.7.4-1,.5-.5,0-.8-.5-1.2-.5s-2.2.4-3.1.4c-32.3.6-64.6,0-96.9.6-6.1.1-13,1.2-19.2.4-.2,0-.6.2-.7.2-.3,0-.3-.6-.3-.7,0,0-1,.6-1.3.6-3,.3-8.7.3-11.7,0-.3,0-1.2-.1-1.4-.2-.3-.2,0-.7-.3-.7-.8,0-.3.9-.3,1s-.9.1-1.1.1c-11.8.1-23.6,0-35.5,0-6.8,0-14.1-.1-21.1.1-.4,0-.8.4-1.3.2-1.3-.5-.8-4.2-.8-5.3-.7-19.4-1.5-38.9-1.9-58.2,0-2.7-.3-5.6-.4-8.4,0-.9.5-1.7.5-2.1,0-.4-.4-.7-.4-1,0-.5.4-1.2.4-1.7,0-.6-1.1-1.8,0-2.1-1-.4-.4-1-.5-1.7-.6-7.3-.4-14.5-.5-21.8,0-.8,0-1.9-.4-2.7,1.1-.4.1-.3,0-.4-.3-.4.2-1.4.2-2,0-2-.3-4.1-.3-6,0-.7,0-4.6,0-4.9,0-.1.5.1.4-.4,0-.2-.6,0-.7-1-.1-.8.4-1.7.4-2.1,0-.4-.6-.9-.4-1.6,0-.2.6,0,.5-.3-.7-1.5-.2-1.1-.3-2.4-.2-3.4-.1-6.3-.2-9.6,0-1.6-1.7-3.4.2-4.4,1.1,0,8.1-.3,8.5.2h0Z"/>
  <rect id="safe-area" x="15" y="11.5" width="225.2" height="127.7"/>
  <metadata>
    <sfw xmlns="http://ns.adobe.com/SaveForWeb/1.0/">
      <slices/>
      <sliceSourceBounds x="7.44" y="9.05" width="236.55" height="140.21" bottomLeftOrigin="true"/>
    </sfw>
  </metadata>
</svg>