<?xml version="1.0" encoding="UTF-8"?>
<svg id="Layer_1" xmlns="http://www.w3.org/2000/svg" version="1.1" viewBox="0 0 370.4 120.2">
  <!-- Generator: Adobe Illustrator 30.0.0, SVG Export Plug-In . SVG Version: 2.1.1 Build 123)  -->
  <path d="M331.7,110.2c-1.6,1.6-2.5,2-4.4,3.2-1,.6-1.9,1.7-3.1,1.8l-3.2-22.3c-2-.4-3.9-.3-5.9-.2l-2.5,8.8c-3.2.7-6.3.3-9.6.3l2.4-9.6c-.3-.3-4.6.6-5.4.7-3,.3-6.3.2-9.4.5-3.3.3-6.8,1.1-10.1,1.2-1.8,0-4.5.5-3.9-2,.1-.6,2.5-5.3,3-6.2,1.4-2.6,3.8-5.1,5.4-7.7l-9.5-.2c-.5-.7.4-1.1,1-1.2,3.1-.6,6.8,0,9.9-.6,2.3-3.3,4.7-6.4,6.5-10.1l-14.9-2c0-1.7,1.6-1,2.6-1.1,5.5-.2,11.5.5,16.9,1.6.8.2,5.4,1.2,5.5,1.7.2,1-.3,1.8-.7,2.6-1.2,2.4-3.2,4.7-4.6,7,1,0,6.3.5,6.7,1,.1.1,0,.7,0,.9-1-.3-1.7.4-2.5.5-2,.3-3.9-.7-5.8-.2-2,2.6-3.7,5.8-5.7,8.3-.4.6-1,.8-1.4,1.2-.4.4-1.9,2.4-2.1,2.7-.1.3,0,.4.4.4l18.8-1.7,8.6-26.1c.2-.2.9-.6,1.2-.7,2.3-.5,5-.6,7.4-.3s2.4,2.9,3,4.9c3.4,12.6,4.7,24.4,6,37.4.1,1.2.9,3.4.4,4.4-.2.4-.7.5-1,.8h0ZM320.6,89.8l-1.4-8.4c-.4,0-.4.5-.5.8-1.1,2.4-1.8,5.4-2.6,7.9.4.2.9-.2,1.1-.2h3.5,0Z"/>
  <path d="M272.3,60.8c.2.4,0,8,0,9.2-.1,5.5-.6,11-.7,16.5-.1,6.2.4,12.6,0,18.7,0,.7-.3,3.6-.6,3.9-.5.6-4.6.3-5.5.2-.4,0-.8-.4-1.2-.4-1.3-.2-3.1.1-4.1-1-3.1-5.9-5.7-12.1-8.4-18.2l-.9,19.4c-1.6.3-3,.9-4.7,1-.5,0-.9-.2-1.4-.2-.8,0-3.4.4-3.7.1l.8-43.3c3.1-1.2,6.2-1.1,9.5-.9.1.1.2,2.7.3,3.2.4,1.4,3,5.7,3.8,7.4,1.7,3.8,3.2,7.6,5,11.4.2.4.4,1.1.8,1.3l.8-29c.1-.2,4.5-.6,5.1-.5.9,0,1.8.5,2.7.7.6.1,2.1-.1,2.5.6h0Z"/>
  <path d="M280.9,20c-.7,0-1.4-.2-1-1,.3-.7,1.5-.6,2.1-.8.4-.1.7-.4,1.1-.5,1.2-.3,2.4-.3,3.7-.3.2-2.9,0-6.2.5-9,.1-.8.1-1.4.8-1.9,1.7-.3,3.1-1.1,4.9-1.3.4,0,.8.2,1.1.1,1.1,0,2.2-.7,3.3-.1l-1,11.7c2.4-.1,4.9-.2,7.3-.2.8,0,4-.6,4.4,0,.7.8-1,.9-1.2,1-2.5,1.1-2.9.6-5.3.9-1.7.2-3.4.9-5.2.4-.3,7.3-.6,15.1.8,22.3.6,3,1.7,7.5,4.9,8.6-.5-1.8-.2-3.8-.2-5.7-.1-3.5-.7-8.4-.2-11.7.2-1.6,1.5-1,2.5-1.3.2,0,.2-.4.4-.4.8-.2,6.2-.9,6.5-.6.4.3.2,5.5.2,6.5,0,.6.2,1.1.3,1.7.1,4.6-.7,15,3.2,17.9,1,.7,1.4,1,2.3.1,3.6-3.7,1.8-14.7,1.7-19.7,0-1.6-.2-7.9.5-8.8,1.4-.2,2.9-1.2,4.2-1.3.7,0,5.1-.4,5.3,0,0,3.9,0,7.9,0,11.8.2,6.5,2.6,16.1-5.1,19.3-3.1,1.3-5.4,1.3-8.6,1.7-3.5.4-4.9,1.3-8.4-.2-3.4-1.4-3.8-3.5-4.2-7-3.3.4-8.5,1.7-11.4-.3-1.8-1.2-2.7-4.1-3.2-6.1-2.1-8.3-1.5-17.3-1.3-25.7-1.8-.2-3.9.2-5.6,0h0Z"/>
  <path d="M77.8,44.9c-.4,0-.2.5-.2.8.6,6,.9,12,1.9,18-.1.4-2.2.4-2.7.4-2.3-.2-4.6-1.4-7-1.6-1.6-12.1-2.5-24.4-2.5-36.7,3.1-.5,6.2.6,9.3,1.2l1.5,2.9,5.5,9.2c-.4-4.7,0-9.5-.2-14.3,0-1-.9-7.4-.7-7.8.3-.5,2,0,2.6,0,2.3.1,2.2.2,4.3.8,1.2.3,2.7,0,3.1,1.5.6,2.7.7,7.3.8,10.2.2,7.2.6,17.4,0,24.5-.2,2.7-.9,1.2-2.9,1.7-1.4,0-2.7-.8-3.7-1.1s-3-.2-3.8-.8c-.5-.4-3-4.9-3.5-5.8-.6-1-1.2-2.2-1.6-3.3h0Z"/>
  <path d="M32.5,35.3c-1.4,0-2.7.3-4.2.2-1.1,0-2.5-.5-3.6-.7-.6,0-1.9.1-2.3-.1-.8-.6-.3-8.1-1-9.5l-4,1c-.8,11.6-.8,23.3-.3,35l7.7.2-2.4-17.1c0-.1,1.6-.6,1.8-.6,1.9-.3,4.9,0,6.9.3.6.1,1.4.4,1.6,1l2.6,14.9c.2,2.9-.3,3.1-3.1,3.6-3.3.6-7.8.4-11.2.3-.5,0-1.1-.3-1.4-.3-.6,0-.4.8-.9.8-2.6-.8-5.5-.6-8.2-1-1.4-.2-1-1.1-1.6-1.7-.5-.6-1.2-.7-1.6-1.6-.3-.9-.6-3.4-.6-4.4-.4-8,0-16.5.3-24.5,0-2.7-.2-5.5.5-8.2.3-.4,4.8-1.3,5.6-1.4,4.8-.9,7.8-.9,12.6,0,1.7.3,4.5.4,5.2,2.2,1,2.5.3,7.1.7,9.9.1.8.6,1.1.7,1.8h0Z"/>
  <path d="M177.9,86.6c1.5,1.6,3.2,3.1,4.9,4.6,1.3,1.1,2.9,2,4.2,3.2,3.1,2.9,5.4,6.4,8.3,9.5v.6c-1.2.6-2,1.5-3,2.1-1.5.9-3.3,1.5-4.8,2.6h-1.2l-13.8-15.9v9.6c-3.2,1.1-6.5,0-9.7.2l-.9-31.9c.1-.2,2.7-.4,3.1-.5,5.4-.3,11.4-.6,16.7.8,3.8,1,7.7,3.3,6.4,7.8-1.1,4-6.7,5.9-10.2,7.1h0ZM171.9,84.2c.4.1.6,0,.8-.2,2.6-1.4,6.7-4.4,5.4-7.8-.6-1.7-3.7-3.4-5.4-3.7-.8-.1,0,.6-.1.7h-1.2l.5,11h0Z"/>
  <path d="M110.5,67.9c.4,0,.9-.2,1.3-.2,3.3-.2,8,0,11.2.6,2.5.5,2.7,2,3,4.2.8,4.4,1.4,10.6,1.7,15.1,0,.7,0,1.4,0,2.1l-16.3,1.9.7,22.4c-2.9,1.9-6.5,1.5-9.8,2.3l-1.4-47.4c.2-1,1.7-.9,2.4-1.1.2,0,.2-.4.4-.4,1.9-.5,3.8-.4,5.7-.9,1,.1,1.2.7,1.1,1.6h0ZM117.4,88.3c-.6-4.4-.7-8.9-1.2-13.3-.1-1-.5-4.6-1.1-5.2s-3.7-.1-4.7,0l.9,19.4,6-1h0Z"/>
  <path d="M198.2,8.3c.3,3.5.4,7.1.8,10.6.6,6.7,1.5,13.4,1.9,20.2.2,3,.5,7,.3,9.8,0,.4-.2,1.3-.5,1.6-.1.1-2.9.6-3.3.6-4.5.4-10.8.7-15.4.5-1.1,0-4-.2-4.8-.4-1.3-.4-1.4-1.4-1.5-2.6-.4-4.8-.4-13.2,0-18,0-1.2.1-2.2,1.3-2.8.8-.5,3.8-1,4.9-1.1,2.5-.2,5,.3,7.5.2l-1.4-18.7c.3-.4,3.5-.8,4.1-.8,1,0,5.7.2,6.1.8h0ZM186,49.2h4.6c.1-6.8-.3-13.7-1.2-20.3h-3c-1.2,6.7,0,13.6-.3,20.3h0Z"/>
  <path d="M121,58.1c-.6.7-5.4,1.3-6.5,1.4-1.2.1-2.6.2-3.9.3-.5,0-1.1-.3-1.6-.2s-.5.8-1.1.9c-1.4.3-4-.5-5.4-.5-.9,0-2.5.5-3.3.1-.5-.3-.3-.8-.6-.9-.3-.2-1.2-.2-1.8-.6-1-.7-1.2-2.6-1.2-3.8-.2-4.6.2-12.1.7-16.8,0-.8.2-3.1.9-3.4.9-.5,4.1-.4,5.2-.3,1.1.1,7.3,2.4,7.6,2.1l-1.2-18.3c0-.2.7-.5.9-.6,2.5-.7,3.4-.8,5.9-.8.9,0,3.2-.8,3.5.6.9,10.8,1.9,21.8,2.2,32.6,0,1.2.2,7.7-.3,8.2h0ZM110.2,38.2c-.8.2-3.5-1.2-3.8-.3-.2,6.7-.9,13.3-.5,20l5-.7-.7-18.9h0Z"/>
  <path d="M217.2,81.4v17.6c0,0,.3.8.4.9l5.1.2.5-9.9c.3-1,0-1.8.8-2.5.3-.3,3.6-1.5,4.1-1.6,1.6-.2,3.7-.2,5.3-.3,0,4.6-.4,9.2-.8,13.7-.3,1.5-.7.9-1.5,1.3-3.3,1.7-8.6,2.9-12.4,2.5-.9-.1-.6-.7-1.3-.9-2.3-.7-5.8-.6-8.2-1.4-.4-.1-1.4-.6-1.7-.9-.6-.6-.9-3.4-.9-4.4-.3-4.8,0-11.2.2-16.1.1-3.1.4-8.4,1.4-11.3.7-2,2-2.3,4-2.4,4.1-.4,14.9.2,18.5,1.9.9.4,1.2.6,1.6,1.5.6,1.6,1.3,6.4,1.4,8.2,0,.7.2,3.5-.4,3.7-1.3.4-5.8-.2-7.6-.2-1.6,0-3.6.4-5.3.5-1.1,0-2.2,0-3.2,0h0ZM222,68.2c-3.5-1.4-3.9,2.6-4.2,5.1-.2,1.8-.3,3.6-.3,5.4l6-.2-1.5-10.3h0Z"/>
  <path d="M93.6,69.6l-.2,8c-3,1.4-6.4,1-9.6,1.3,0-1.6,0-3.3,0-4.9,0-.7.6-2.4,0-2.9-1.3.2-5.8.3-6.6,1.1-.3.3-.3.4-.4.8-.3,2.2-.2,7.6,0,9.9.3,3.6,1.4,4.6,4.9,4.4s7.1-1.1,10.6-.7c2.1.2,2,1,2.3,3,.4,2.9.3,6.9,0,9.8-.2,1.8,0,3.1-1.6,4.2-4.4,3.3-17.5,6.5-23,7-2.1.2-2.3.1-2.9-1.9-.4-1.4-1.6-9.1-1-10,3-2.1,6.4-3.1,10-3.4.3,2.1.2,4.2.5,6.3.1.9.4,3.5.7,4.1.1.3.2.4.5.4.7,0,4.7-.8,5.5-1,.3,0,.6-.1.8-.4.6-5,.3-10.1-.1-15.1-3.6-.2-13.6,2.2-16.1-.7-.3-.4-.6-1.1-.8-1.6-.9-2.9-.9-10.8-.7-14,.2-2.1,2.6-2.4,4.3-2.7,6.1-1.2,15.2-2.3,21.3-1.5.5,0,1,.5,1.6.5h0Z"/>
  <path d="M360.9,16c.4.4.5,2.1.5,2.7,0,5.6-1.4,12.7-2.1,18.3-.4,2.7-.5,5.9-1.6,8.5-.3.7-1.9,1.4-2.6,1.7-1,.3-6.8,1.7-7.6,1.7-2.2,0-6.7-2-9-2.8-.6-.2-1.6-.3-2.1-.5-.6-.3-.6-.8-1.1-1.1-1.2-.6-3.1.2-3.3-1.7-.3-3.1.5-7.6.7-10.8.1-1.5-.3-4.8.6-5.9.2-.3,1.8-.8,2.2-.9,5.1-1.2,10.5,0,15.6-.3.3-1.9.3-3.7.3-5.6,0-.2-1.1-.4-1.3-.4-6.4-.5-13.7-.6-19.9-1.7-1-.2-1.5,0-.8-1.1,1.8-.4,3.1-1.2,5-1.6,4.2-.9,6.6-.2,10.7.1,2,.2,15.2.8,15.9,1.5h0ZM350.8,27.2l-7.7-.2-.7,15.6c2.1-.9,4.4,0,6.5.2l1.9-15.6h0Z"/>
  <path d="M64.4,80.6c-2.4.7-4.6.8-7,.8-2.8,0-5.4-.6-8.2-.7-1,0-2.1,0-3.1,0-.6.2-1.2,11.3-1.1,12.7,2.7-.2,5.4-.7,8.2-.5.2-1.1.4-5.8,1.1-6.3,3.1-1.4,6.6-2.2,10-1.5,0,1.8-.1,7.7-1.7,8.6-.3.2-1.7.7-2.1.8-4.9,1.5-10.3,1-15.3,1.3-1.9.1-9.1,1.6-10.2,0-.6-.8-.5-3.2-.5-4.3.1-5.4,1.2-19.2,2.9-23.9.9-2.2,2.3-2.3,4.4-2.7,5.6-1.1,12.2-1.1,17.8,0,2.6.5,4.5.6,4.8,3.6.4,3.8-.2,8.2,0,12.1h0ZM54.1,79v-10.9c0-.2-.5-1.8-.6-1.8-4.2.4-5.2.3-6.2,4.6-.2.9-1.4,7.6-1.1,7.9l7.9.2h0Z"/>
  <path d="M160.6,18.1l-6.9,37.5c-2.4.7-4.5.2-6.9,0-1-.1-2.3.2-3.2-.2-.8-.4-1.4-3.3-1.7-4.3-2.2-8.5-4.6-17.9-6.4-26.4-.2-.8-.9-3.5-.5-4.1.5-.7,9.2-.5,9.7.3,0,0-.2.5-.1.8.3,2.4,1.7,8,2.5,10.4.1.3,0,.7.5.8l2.7-14.8c.9-.5,1.8-.2,2.7-.3.3,0,.6-.4.8-.4.7-.1,6.5.6,6.8.9h0Z"/>
  <path d="M38.1,23.6c0,0,.3,0,.4,0-.9-1,0-1.4,1.1-1.4,3.7,0,9.5,1,13.4,1.8,3.2.7,9.8,2,10,6-.1,6.1,0,12.2-.2,18.2,0,1.4-.2,4.3-.6,5.4-.3.9-.8,1.3-1.7,1.4-3.4.4-9.4-.2-13-.7-2.2-.3-6.7-.9-8.7-1.6-2.2-.8-1.6-4.6-1.5-6.7.1-6.6.7-13.3,1-19.9,0-.6-.3-2.4-.2-2.5h0ZM47.4,52.3c3.5.2,4.7,1.4,5-2.7.3-4.8.4-10.3.5-15.1,0-3.8.8-9.5-4.7-9.5-.4,0-.4,0-.4.4-.1,3.1-.1,6.2-.2,9.4-.2,4.9-.8,10.5-.5,15.3,0,.8.3,1.5.3,2.3h0Z"/>
  <path d="M141.2,79l.5,13.2c.9-.5,5.5-.5,5.9-1.2l.7-5.3c3-1.7,6.4-2.2,9.8-2.1.7.2.2,3.4.1,4.1s-.5,3.2-.9,3.6c-.5.5-1.1.2-1.5.4-4.3,1.8-8,1.1-11.8,2.2-3,.9-3.6.8-6.8.9-.7,0-2.2.5-2.8.4-.7-.2-.8-.9-1-1-.5-.3-1.6.2-2-1l-.6-8c.2-5.8,0-12.3,1.3-17.9.5-2.5.9-2.5,3.2-3,6.1-1.2,13.2-.9,19.4-.3,2.1.2,2.1.4,2.5,2.3s.7,5.1.8,7.1c0,1,.1,3.2-.7,3.9-.2.2-3.5,1.2-4,1.3-1.1.1-2.2,0-3.3,0-2.9.3-5.8.8-8.8.5h0ZM146.4,65.6c-.4-.4-3.3.2-3.8,1.1-.5,1-.9,4.7-1,5.9-.1,1.5-.3,3-.2,4.4l6.5-.5c.3-.3-.3-7.1-.5-8,0-.5-.8-2.8-1-3Z"/>
  <path d="M265,32.9l-12.8-1.7c-.8-.3-4.5-.8-4.7-1.5-.2-.5.5-1.8.2-2.5,6.6,1.2,13.9,1.3,20.4,3.2,1.4.4,6.2,2.8,6.7,4.1.1.3.2,1.4.3,1.9.3,3.8-.2,10.6-.5,14.6,0,1.1-.3,4.8-1.2,5.3-1.2.6-3.6,0-4.9-.1-1,0-2.1,0-3.1,0-2-.2-4.4-1.6-6.3-1.7-3.7,0-8,.9-11.8.5-1.1-.1-2.3-.6-2.5-1.8-.3-2.1-.2-7.1,0-9.3,0-.9.3-1.8.3-2.7,1.4-.9,3.3-1.4,4.9-1.7,2.9-.4,5.5-.2,8.3,0,2.2,0,4.4.2,6.6.2v-6.7h0ZM264.7,42c-3.1.1-6.2,0-9.4-.5l-.2,9.8c2.9-.7,5.9.4,8.9.1.5-.4.7-8.3.7-9.5h0Z"/>
  <path d="M238.5,13.1s.1.3.4.5c.6.3,1.4.3,2.1.8,1.3.9.5,1.5.5,2.6-.2,7.9-.4,15.8-.5,23.7-.1,6.5,0,12.9-.1,19.3l-.5.2c-1.2-.4-2.1-.3-3.3-.8-1.1-.4-1.6-.9-2.5-1.4-.7-.3-2.6-.8-3-1.1-.3-.3-.3-1.4-.4-1.9-.5-4.5,0-12,.1-16.8,0-3.6.4-7.2.5-10.8,0-2.1-.3-15.2.5-15.9.6-.6,1.7.2,2.3.4,1.7.4,2.2.4,3.8,1.1h0Z"/>
  <path d="M173,35.1c.1,2.2,0,4.4,0,6.6.2,5.6.9,11.4,1,17,0,1.9,0,3.8-.3,5.6-1.1-.2-1.8.4-2.7.5-1.4.2-2.6-.3-3.9-.3-1.1,0-2.3.5-3.5.3l-.7-28.8c.2-.7,3.6-1.3,4.4-1.4.7,0,5.5.3,5.6.5h0Z"/>
  <path d="M211.9,27.4l2,28.5c-1-.7-1.9.2-2.8.2-1,0-2.3-.6-3.1-.7-1.2-.2-2.5.2-3.8-.2l-1.8-28.2c0-.3.8-.4,1.1-.4,2.2,0,3.9.2,6,.5.8.1,1.7-.2,2.5.3h0Z"/>
  <path d="M192,93.4l-1.2-24.5c.2-.7,2.7-.8,3.4-.9,2-.1,4,.3,6,.3l1.8,24.5c0,.2-.2.3-.4.4-.4.1-3.1.5-3.6.5-1.1,0-1.5-.4-2.4-.5-1.3-.1-2.5.4-3.7.2h0Z"/>
  <path d="M134.7,34.6l.5,24.7c-1-.3-1.7.4-2.5.5-2.2.3-5-.6-7.3-.2l-.2-24.6c.2-.7,1.6-.3,2.2-.4.5,0,.9-.4,1.4-.5.7,0,5.7.3,5.9.5h0Z"/>
  <path d="M163,22.4c.1-.2,4.5-.6,5.2-.5s1,.4,1.4.5c.8.1,2.2-.2,2.8.4.5.5,0,6.3.5,7.6-1.5-.1-3.2.2-4.7,0-.6,0-1-.4-1.5-.5-.9,0-3.7.4-3.7-.6v-6.8h0Z"/>
  <path d="M133.5,30.8c-3.4.5-6.5-.9-9.8-1-.2-.2,0-6.1.3-6.8.3-.8,1.9-.2,2.5-.2,2.4,0,2.2,0,4.4.5.4,0,2.7,0,2.7.7v6.8h0Z"/>
  <path d="M211,22.1c-3.3-.2-6.4-1.4-9.5-2.4-.2-.3.4-5.6.7-5.9.5-.7,1.9,0,2.5.1,1.2.1,1.8,0,3.2.4.6.2,2.3.7,2.9,1,1.7.7.3,2.8.3,4.4,0,.3.4.5.4.9s-.5,1.1-.4,1.6h0Z"/>
  <path d="M199,63.6c-1.4,0-3.1.5-4.4.5-.6,0-1.1-.2-1.7-.3-1.2,0-2.5,0-3.7,0,0-1.6-1.1-5.6,1.1-6,.6-.1,2-.2,2.6-.3.7,0,5.7.2,5.9.4.5.4,0,1.7,0,2.4,0,1.1,0,2.2.2,3.2h0Z"/>
  <metadata>
    <sfw xmlns="http://ns.adobe.com/SaveForWeb/1.0/">
      <slices/>
      <sliceSourceBounds x="95.99" y="103.67" width="354.8" height="111.25" bottomLeftOrigin="true"/>
    </sfw>
  </metadata>
</svg>