<?xml version="1.0" encoding="UTF-8"?>
<svg id="Layer_1" xmlns="http://www.w3.org/2000/svg" version="1.1" viewBox="0 0 456.1 92.2">
  <!-- Generator: Adobe Illustrator 30.0.0, SVG Export Plug-In . SVG Version: 2.1.1 Build 123)  -->
  <path d="M332.8,41.8l.8-17.2c.8-.5,1.9-.1,2.7-.3.2,0,0-.4.5-.5.7,0,6.4.2,6.6.5l-.5,16.5,7.4-.5c-.7-5.6.2-11.3.3-16.9.8-1.2,1.7,0,2.6.2.4.2.9.1,1.4.3,1.7.7,3.5,1.9,4.9,3l.4,12.7s1,.6,1.1.6h8v2.4l-8.9.5.5,6.8c.2,4-.2,10.2,2.1,13.5.2.4,1.4,1.7,1.8,1.6,1-.3,2.9-3.1,3.3-4.2,2.2-5.5,4.4-12.7,6.2-18.5.7-2.2,1.2-4.5,1.8-6.7,2.6-.3,6-1.7,8.5-1.9.3,0,1.4,0,1.5.3l.2,7.2,4.8,37.9-9.9,3.2-1.8-15.6c-.8.7-3.9.3-4.3.5-.3.2-2.1,6.8-2.6,7.7l-9.2-.3c-.4-.4,2.2-6.2,1.9-6.5-3.4.4-6.1,2.6-9.5.8-.6-.3-2-1.7-2.1-1.7-.2,0-.8.5-1.2.7-4.3,1.6-10.5,1.8-15,1.1-3.5-.6-4.8-3.5-5-6.7-.3-3.9,0-9,0-13s.8-4.8-.1-5.4c-.7-.4-4-.6-4.1-1.3l.2-1.1h4.8v.3ZM350.3,43.7l-7.7.2c-.2,5.2-.8,10.5-.5,15.7,0,1.3.7,6.4,1.9,6.9.2,0,4.2-.8,5-.8s3,0,3.2,0c-1.3-2.7-1.2-5.6-1.7-8.5l-.2-13.6h0ZM378.9,65.3l-1-6.7-2.2,6.7h3.2Z"/>
  <path d="M29.6,26.7c.2,4.2.4,8.4.7,12.6.9,10.6,2.5,21.6,2.9,32.1,0,1.9.3,8.2-1,9.4-.5.4-3.8,1-4.6,1-8,.6-17.3-.7-25.4-.8-2.9-.4-2.2-4.3-2.1-6.5.2-5.1.9-12.2,1.7-17.2.2-1.3.4-2.9,1.7-3.6,2-1,4.4-.9,6.5-1.1,1.5-.2,3.3-.6,4.8-.7.9,0,5.2.2,5.5-.2l-1.4-24.2c3.1-1.9,7.2-1.3,10.6-.8h0ZM20.7,53.8c-1.5.2-6.5-.1-7.4.6s-1.3,5.2-1.4,6.5c-.5,4.4-1,9.3-1.2,13.7,0,.8-.4,4.4.4,4.6h10.9c.6-2,.4-4.2.5-6.3l-1.7-19h0Z"/>
  <path d="M144,43c-3.4.3-6.5-.8-9.8-1.2.7-3.7.4-7.5.5-11.3l-3.1.8-.3,20.8c.3.3,3.5-.3,4.2-.3,2.1,0,5.7.7,7.7,1.5s1.8,1.3,2,3.2c.5,4.9.7,11.1.7,16.1s.3,4.7-1.6,5.9c-3.6,2.2-6.6,1.1-10.3,1.5s-7.8,2.4-11.6,2.6c-1.9,0-2.1-.5-2-2.2,0-2.9.7-7.6,1.3-10.5.3-1.3.3-1.9,1.6-2.5,2.8-1.4,5.9-1.7,8.9-1.7l-1.4,12c1.8-.4,4.4-1.1,4.6-3.2.4-4.5-.2-10.3-.5-14.9,0-.8.2-3.8-.1-4.2s-4.2,0-5.1,0c-1.8,0-3.2-.6-4.8-.9-.8-.2-3.3,0-3.6-.9,0-.3-.3-2.3-.3-2.8-.3-4.8,0-11.4.2-16.3,0-.8.3-4.4.5-4.7.4-.6,4.6-1.4,5.5-1.5,4.9-.7,9.9-.7,14.6.8,2,.6,2.4,1.5,2.7,3.6l-.5,10.7h0v-.4Z"/>
  <path d="M292.4,57.5c-.1,0-2.3,1-2.6,1.1-2.6.9-5.6,1.3-8.4,1.6l15.4,12.4c-1.4,1.3-2.5,2.5-4,3.6-.3.2-.6,0-.9.3-.8.6-2.4,2.3-3.4,2.3s-6.6-7.7-8.2-8.8c-2-2.9-5.4-4.6-8.2-6.7v16.1c-.1,0-9.6-2.9-9.6-2.9v-37.6c.8-.5,1.4,0,2.2.2,1.7.2,3.8,1.1,4.8,1.2,1.4.1,4,0,5.7,0,7.7.3,17.1-.6,18.1,9.3.2,1.7.3,6.9-1,7.9h.1ZM283.1,58c.8-3.4,1.1-10.4-2.4-12.3-2.4-1.4-6-1.8-8.6-2v15.6c3.6-1,7.3-.9,11-1.2h0Z"/>
  <path d="M85,51.1h-9.6c-.3,0-.6-3.1-.7-3.7-.3-2.5-.2-5.2-.5-7.7-.5-3.4-2.1-2.7-5-2.7-.3.2-.7,4-.8,4.7-.3,4.8,0,9.6-.2,14.4,0,4.8-.6,10.1-.3,15.1,0,1,0,2.8,1.1,2.8s4-.3,5.5-.5c.4,0,2.3-.3,2.4-.5.5-4.9-1.2-9.6-.9-14.5,3.4-1.3,7.1-1.2,10.6-.4v2.5c.3,3.2,1.1,6.6,1.2,9.8,0,3.8-.5,4-4,4.6-6.2,1-16.6,1.8-22.7,1.3-3.1-.3-3.3-1.4-3.5-4.2-.3-4.4.2-8.9.2-13.2,0-6.2,0-12.8.5-18.9.2-2.1,0-3.3,2.3-3.9,4.4-1.3,15.5-1.3,20.1-.5,1.2.2,2.8.7,3,2,.5,2.6.3,5.9.5,8.6,0,1.6.5,3.3.7,4.9h.1Z"/>
  <path d="M216.7,44.4c-3,1.3-6.4.8-9.6,1.5l-.5-13c-.4-1.1-3.8.8-4.3,1.4-.8,1-2.1,9.7-2.4,11.6-.2,1.6-.9,5.2-.5,6.6,0,.2.3.6.6.6,3.6-.4,7.4-.9,11-.7,1.1,0,2.4.1,2.7,1.4.6,2.7-.1,8.7-.5,11.7-.3,2.4-.2,6.4-2.5,7.6-4.2,2.2-16,2.5-20.8,1.9-1,0-1.9-.4-2-1.6-.3-1.8,0-4.5-.3-6.5,0-.8-.5-1.5-.5-2.3,3.2-1.5,6.8-1.8,10.3-1.4.7.4,1.1,7.8,1,9.1.7,0,2.6.2,3.1,0s1.3-7.3,1.4-8.4c.2-1.9.4-4.2.5-6,0-.7.1-2.5-.5-2.9-.5-.3-6.9.6-8,.6-3.2,0-5.8.9-5.8-3.2s1.5-11.6,2.4-15.3c.6-2.5,1.1-2.7,3.4-3.8,4.8-2.3,13.6-4.2,18.9-3.6,1,0,2.1.5,2.3,1.6l.5,13.3h.1Z"/>
  <path d="M88.9,72.9l.2-29.9c.5-.8,4.8-.6,5.8-.8,7.6-1.1,13.6-3,21.6-1.6,4.1.7,3.8,1.7,3.6,5.6-.3,5.9-1.6,14.7-3,20.5-.9,3.8-.8,4.6-4.9,5.4-6,1.2-14.5,2.1-20.6,1.5-.6,0-2.4-.4-2.7-.8h0ZM98.9,44.2c0,6.6,0,13.2-.2,19.8,0,2-.5,4.4-.3,6.5,0,.7,0,.8.9.9.5,0,5.4-.7,5.6-.9.4-.2.9-1.6,1.1-2.1,1-3,1.5-7.3,2-10.5.6-3.9,1.8-10.7,1.7-14.3,0-.3-.3-1.2-.6-1.3l-10.2,1.9h0Z"/>
  <path d="M403.6,70.3l-1.1-16.7c.4-.9,3.5-1.9,4.5-2.2,4.7-1.4,10-1.8,14.6-3.4,1.9-.6,2.4-1.3,2.6-3.4s.2-5.1.2-7.2-.2-6.9-.4-7.1l-20.1,2.2.7,11.3c-3.2,1.1-6.5.9-9.8,1.2l-.7-11.8c.6-1,5.3-2.1,6.6-2.3,1.7-.2,3.4,0,5-.3,7.3-.8,15.3-2.2,22.6-2.6,1.1,0,4.7,0,5.5.5.5.3.7,1.3.8,1.8.4,2.8.7,13,0,15.4-.7,2.1-3.8,2.8-5.7,3.4-4.9,1.6-10.1,2.2-15,3.7-.6.4-.5,1.5-.5,2.2.2,4.3.9,8.6,1.2,12.9,0,.4,0,.9-.1,1.3-1.8.5-3.5,1-5.3,1.2-.4,0-.8-.2-1.2-.2-.8,0-3.8.8-4.2,0h-.2Z"/>
  <path d="M172,70c-.9,1.3-6.7,2-8.4,2.2-3,.4-6.8.6-9.8.7-.9,0-3.2.2-3.6-.7-.5-5.5,0-11.1.5-16.5.9-2.1,11-3.2,13.3-3.1-.2-3.3.9-7.2.5-10.4-.2-1.7-1.2-1.7-2.6-2-2.9-.6-6.2-.6-9.2-1v-2.4c5,0,10.2.1,15.2.8,1.5.2,5.6.4,6.2,1.9.5,1.2.2,6.6.2,8.2-.1,3.8-.4,7.9-.7,11.7-.1,1.9-.7,9.4-1.5,10.6h0ZM163.7,54.7c-.5,0-2.8,0-2.9.4l-.5,15.2c.4,0,1.1,0,1.4,0,1.1-.7,1.7-13.4,1.9-15.5h.1Z"/>
  <path d="M316.2,37.2l-11.8,1.2.5-3.6c4.5-.3,9.2-1.6,13.8-1.2,1.4.1,4,.9,5.4,1.3.9.3,1.8.9,2,1.9.7,3.9,0,9.6-.2,13.6-.1,3.3.3,6.8-1,9.9-1.2,0-2.4,0-3.6,0-5.8.8-10.6,3.2-17.1,3.8-2.7.2-4.5,1.4-5.3-2.1-.9-3.8-.5-8.3-1.3-12.2,0-1.7,3.3-2.6,4.7-3,4.3-1.1,9.2-1.3,13.6-2l.4-.3v-7.6h0v.2ZM316,46.8l-8.1,1.2,1.2,13.4c.4.3,5-1,5.7-1.4.1-.4-.4,0-.5-.2-.4-.5.4-.5.4-.5,0,0,.5-1.8.6-2.2.8-3.2.4-7,.6-10.3h0Z"/>
  <path d="M268.9,28.6l2.4,4.8-13.7.5.5.8c.5,9.1.3,18.2.5,27.4,0,2.7.6,5.9.2,8.6,0,.3.1.4-.3.3l-9.5-3.7-.5-32.9c-.2-.2-4.7.8-6-.1-.3-.3-1.6-4.3-1.5-4.4l27.8-1.2h.1Z"/>
  <path d="M44.9,51.1l1.7,27.6-4.7.2c-.9-.5-5.2,0-5.4-.6l-1.3-26.7c0-.3.2-.6.5-.7.2,0,2.6-.3,3.1-.3.8,0,5.9.2,6.1.5h0Z"/>
  <path d="M228.7,41.8l-1.7,26.6c-1.6,0-2.8.8-4.5.9-.4,0-.9-.2-1.4-.2s-3.8.7-4,.5l1.9-26.2c.6-.9,1.2-.5,2-.7.7-.2,1.3-.5,2-.6,1.8-.3,3.7-.2,5.6-.3h0Z"/>
  <path d="M414.1,75.3c0,2.4.7,4.8.9,7.1,0,1.2-1,.6-1.7.8-.4,0-1.4.6-2.4.7-2,0-4.1,0-6.1,0-.3-.2-1.1-7.4-.9-7.8,3.3-1.3,6.7-1.6,10.3-1h0Z"/>
  <path d="M44.9,40.6l.3,5.5c-1.4-.1-2.8.5-4.2.5s-3.8-.5-5.6-.3c.4-1-.4-5.2.2-5.7.4-.3,1.5,0,2-.1.4,0,.7-.4,1.4-.5s5.7.3,5.9.5h0Z"/>
  <path d="M229.4,33.2c.4.9-.3,1.9-.4,2.8,0,.6.4,1.1,0,1.4-3.1,1.2-6.4,1-9.6,1.3,0-1.5,0-3.4,1-4.5,1.7-.1,3.1-.9,4.9-1.1.4,0,.8.2,1.2.2.9,0,2-.4,3-.2h0Z"/>
  <metadata>
    <sfw xmlns="http://ns.adobe.com/SaveForWeb/1.0/">
      <slices/>
      <sliceSourceBounds x="462.9" y="-22.83" width="435.07" height="61.15" bottomLeftOrigin="true"/>
    </sfw>
  </metadata>
</svg>