<?xml version="1.0" encoding="UTF-8"?>
<svg id="Layer_1" xmlns="http://www.w3.org/2000/svg" version="1.1" viewBox="0 0 424.4 92.2">
  <!-- Generator: Adobe Illustrator 30.0.0, SVG Export Plug-In . SVG Version: 2.1.1 Build 123)  -->
  <path d="M111.9,74.1l-10.3,2.2-2.3-33.1c-.4,0-.6.4-.7.7-.6,1.2-1.4,4.1-2,4.9-.5.7-5.3-.5-6.4-.6-.9,0-2.3.4-3.2-.1l-3.1-4.7,1,30.9c-1.6,0-3.1.2-4.7,0-.6,0-1-.4-1.4-.5-1.2-.1-2.5.1-3.7-.3,0-2.1,0-4.2,0-6.4-.4-11.6-1.4-23.4-1.5-35,0-.8.1-4.2.5-4.6,1.2-1.1,6.4-.6,8-.3,2.6.6,3.1,1.4,4.5,3.5l5.3,8.7,5.4-17c.3-.3,1.5-.6,2-.7,1.9-.2,4.8,0,6.6.5,2.7.8,2.4,1.1,2.8,3.7.3,2.4.3,5,.8,7.4l2.6,40.6h0Z"/>
  <path d="M233.7,41.8l.7,27.7-.5.4c-1.2.2-8.7,3.6-9,3.3l-.9-47.4,12.4-3.1,9.1,18.2-.7-30c.2-1.2,2.6-4,3.5-4.9.4-.3.8-.3,1.1-.6,1.2-.9,3-3.3,3.7-.6.2.8.3,2.9.3,3.8.3,6.5,0,13.2.2,19.7.2,8.1.8,16.3.9,24.5,0,1.9.4,6.2-.4,7.7-1.2,2.3-3,3.4-4.9,5-.7.6-2.7,3.2-3.7,2.6-.5-.3-.8-1.3-1.1-1.8-1.9-3.8-3.2-8.5-5-12.5s-3.9-7.9-5.8-11.8h0Z"/>
  <path d="M359.6,4.1c.1,7.6-.3,15.1,0,22.6.4,8.5,1.5,16.9,1.7,25.4,0,1.3.2,9-.2,9.6-.6.9-8.5-2.4-9.7-3-1.9-5.5-4.2-10.9-6.5-16.3l-.4,19.7c-1.1-.2-2.5-.3-3.5-.6s-1.8-1-2.7-1.4c-.8-.4-3.2-.7-3.4-1.7l.5-31.9c0-.2.2-.4.4-.5.4-.2,8.5,1,8.8,1.4.1.1,0,.6.2.9.7,1.1,1.8,2.4,2.5,3.5,1.1,1.8,2,3.9,3.4,5.6-1-12.4-1.3-25-.7-37.4l9.5,4.1h0Z"/>
  <path d="M37.3,48.7l-9.4,3.4c-.4-2.4-.7-4.9-1-7.3-.2-1.6-.2-7.6-.9-8.6-.2-.3-1.1-.3-1.5-.4s-.6-.9-1.3-1.1c-1.1-.2-2.9-.1-4.1-.3-.2,1.2-.3,2.4-.3,3.7.1,6.6.8,14,1.4,20.6.3,3.8.6,9.5,1.6,13,1.2,3.9,6.4,2.7,9.6,3.2l-.5-11.7,10.5-4.1.7,15.4c0,2.1-1.3,2.3-3.1,2.7-5.3,1.1-16.4.4-21.9-.4-1.3-.2-3.8-.7-4.7-1.5-1.7-1.4-2.1-8.2-2.4-10.6-.8-7.2-1.4-15.1-1.7-22.3,0-1.6-.3-4-.2-5.5.1-2.1.5-2.6,2.4-3.3,3.7-1.4,10.9-1.4,14.9-1.4,1.3,0,2.6.4,4.1.3,2.7-.2,5.2-2.1,6.1,1.6.7,2.7.5,6.9.8,9.8.1,1.6.4,3.3.7,4.9h0Z"/>
  <path d="M293,55.9c-2.7.8-5.5.9-8.2,1.2-5.8.8-17.3,3.4-22.6,2.8-.4,0-1.2-.1-1.1-.6l9.4-19.9c-.6-.3-3.8-.5-4.1-.9,0-.1,0-.8,0-1,.2-.3,4.4-.3,5.1-.5l6.3-12.9-16.8.5c0-.4-.1-1.8,0-1.9.6-.6,10.8-.4,12.4-.5,3.9-.2,8.7-.8,12.5-.7,1.4,0,2.2.4,1.8,2l-6.4,13,4.5.4c.5,3.2-3.8,1.5-5.7,1.9l-8.7,18.2c5.4-.7,11.1-2.1,16.5-2.6.9,0,4.7.2,5-.3l.2-22.1c.2-.5.2-1.4.9-1.5.2,0,3.1.4,3.4.4,1.2.2,1.9.9,2.7,1.2s2.6.3,2.7,1.3c0,.5-.2.9-.2,1.4,0,7.5,0,15.1.2,22.6,0,2.3.5,5,.5,7.2,0,.2-.1.8-.4.9-.1,0-2.2-.3-2.5-.3-1.5-.3-2.3-.9-3.5-1.3-1.3-.4-2.7-.6-3.9-1.3v-6.7h0Z"/>
  <path d="M70.8,60.6c-1.4.4-2.9.9-4.4,1-3.7.4-7-.1-10.5-.2-2.2,0-7.7.5-9.3-.5-1.8-1.1-1.9-5.7-2.1-7.8-.5-6-.6-12.4-.7-18.5,0-1.1-.6-2.3.1-3.5.2-.4.6-.4.8-.6.5-.7.7-1.6,1.9-1.8,3-.5,5.2.3,7.9.2,3.8,0,7.7-1.1,11.7-.7,3.4.3,3.7.9,4.2,4.2,1,6.5,1.6,17.2,1.2,23.7,0,.9-.3,3.9-.8,4.4h0ZM58.5,31.4c-1.7.1-3.4,0-5.2,0,.5,6.7.3,13.5,1,20.3.2,2.5.5,5,1.4,7.3h5c.2-4,.2-8.1,0-12.1,0-.5-.2-1-.2-1.4-.2-4.8-.2-9.6-1.2-14.3-.3-.1-.7.2-.8.2h0Z"/>
  <path d="M330.4,48.4c-.2.2-2.4.5-2.9.5-5.2.6-11.5.9-16.4-1.1-.3-.1-.3-.5-.6-.6-2.1-1-3.7-.2-3.5-3.2.4-8,1.1-16,1.2-24,.4-.6.7-3.4,1-3.6.5-.5,4.6-.5,5.6-.6,5.1-.5,7.9-1,12.8,1.1,1.5.6,4.1,1.7,4.3,3.4.6,4.4.3,10.6,0,15.1-.2,3-.4,6.1-.7,9.1,0,.7-.4,3.6-.8,3.9h0ZM322.3,20.2l-3.8.2c0,2,0,4.1-.2,6.1-.3,2.8-1,5.3-1.2,8.2-.2,3.2-.1,6.7-.2,9.9.9,0,4,.3,4.3-.6.9-7.9,1.4-15.9,1.2-23.8h0Z"/>
  <path d="M150.2,56c-.5,3.3-4.2,1.5-6.6,2.3-9-.7-18.6.3-27.3-2.2-.4-.1-1.6-.7-1.8-1-1.1-1.3-.4-6.9-.3-8.7.2-3.5.5-7.4,1.2-11,.5-2.6.4-3.6,3.2-4.2,3.8-.9,8.3-.6,12.2-.8,4.9-.2,12.8-1.6,17,1.5,1,.8,1.5,3.9,1.8,5.2.3,1.8,1.3,8.5.2,9.8-.6.8-5.1.6-6.3.6-2,0-4.4-.4-6.5-.5-4.2-.1-8.4.2-12.6.2,0,2.6-.4,5.1,0,7.7l14.3.2c1.3-.2.1-4.4,1-4.6l10.4.7c-.1,1.5.2,3.3,0,4.7h0ZM138.7,33.1c-2.8,0-5.8,0-8.5.2-.8,0-2.7.3-3.3.8-1.6,1.4-1.5,8.3-2.1,10.4l14.8.2c1.1-.7-.7-10.1-.9-11.7h0Z"/>
  <path d="M203.5,23.3l-20.9,3.8,1,9.6,11.5-1.2c-.2.3,0,1.8,0,1.9-.3.4-9.7,1.5-11,1.4l4.6,36.4c-1.3,0-2.4.3-3.7.2-1,0-2.1-.4-3.1-.5s-3.2.3-3.8-.5c-.4-.6-.9-4.6-1.1-5.6-1.2-8.3-2.2-17-3.1-25.4-.6-5.8-1.3-11.6-1.6-17.4l30.1-5.7c.5,0,.9,2.3,1.3,2.8h0Z"/>
  <path d="M189.8,42.9l9.8,1.5c0,5.6,0,17.6,5.2,21.1.2.1.2.3.6.2,3.5-9,1.5-19.4,1.2-28.8l10.1-2.3c.2.1.4,2.2.5,2.7.7,7.1,1.7,20.8-.5,27.3-.8,2.4-1.8,3.4-4.3,3.9-3.2.7-10.7.4-13.9-.5-10-3.1-8.5-16.8-8.7-25h0Z"/>
  <path d="M401.2,14.4l-.8,8c-.2.7-.9.2-1.3.2s-.8.2-1.1.2c-2.5-.2-5.2-1.5-7.7-1.9,0-2.9.4-6,.7-8.9.5-.7,6.7-.5,7.9-.5,6,0,14.3.2,19.9,2.4,1.2.4,2.4.7,2.5,2.1.4,3.4.3,10.7,0,14.2,0,.8-.3,1.5-.5,2.3-2.1-.6-4.2.3-6.4.5-1.8.2-3.8.2-5.6.2l.2,16.5c-.8,0-1.5.4-2.3.5-.8,0-3.1.3-3.8.3-.4,0,0-.3-1.4-.3-.6,0-3.8.1-4-.4l-.2-17.7c0-.2,3.7-1.2,4.2-1.3,2.5-.4,5.1.3,7.4,0,1.3-.2,1.3-1.5,1.5-2.5v-13.8h-9.4,0Z"/>
  <path d="M392.5,30.5c0,4.2.1,8.4,0,12.6,0,2.5,0,5.4-.2,7.9-.1,2.2-.1,3.4-2.6,3.7-3,.4-5.9-.2-8.9,0s-6.1,1.1-9.4,1.2c-1.1,0-2.2,0-3.2-.6-1.1-4.1-2.2-8.2-3-12.3,0-.3.1-.5.2-.7,1.6-2.7,16.4-3.5,16.6-4.3l.2-5.6c-3.1.5-5.9.6-9,.7-.4,0-2.1.6-2.3-.2,0-.3,0-2.1.1-2.2.2-.2,3.1-.6,3.6-.7,3.4-.5,8.6-1.3,11.9-1,1.9.2,3.8,1,5.6,1.4h0ZM382.2,40.8c-2.1.4-4.3,0-6.2.9.2,1.3,2.2,10.7,2.8,10.9.2,0,2.6-.4,2.8-.7l.6-11h0Z"/>
  <path d="M408.1,56.2c.9.7.7,8,0,8.8-.3.4-4.3,1.3-5.1,1.4-.5.1-1.1,0-1.6,0-1.2.2-2.5.9-3.7.4.4-1.2.3-8.6.8-9,.2-.2,4.4-1.4,4.9-1.5.6,0,1.3,0,1.9,0,.8,0,2.3-.7,2.9-.2h0Z"/>
  <path d="M303.4,21.8c0,0,.3,0,.3.2-.5,1.2-.2,3.4-.7,4.5,0,.2-.7.3-.9.4-1.4,0-3.7-.8-5-1.3-.3-.1-.3-.4-.5-.5-.5-.2-3.6-1.2-3.7-1.4.4-.9.3-5.3.8-5.8.7-.6,2.6.6,3.5.3,1.2.1,2.1,1,3,1.5,1.4.7,2.1.4,3,2.1h0Z"/>
  <metadata>
    <sfw xmlns="http://ns.adobe.com/SaveForWeb/1.0/">
      <slices/>
      <sliceSourceBounds x="79.24" y="116.84" width="413.33" height="77.68" bottomLeftOrigin="true"/>
    </sfw>
  </metadata>
</svg>