<?xml version="1.0" encoding="UTF-8"?>
<svg id="Layer_1" xmlns="http://www.w3.org/2000/svg" version="1.1" viewBox="0 0 424.4 92.2">
  <!-- Generator: Adobe Illustrator 30.0.0, SVG Export Plug-In . SVG Version: 2.1.1 Build 123)  -->
  <path d="M29.6,36.8c.8.9.9,9.3,1,11.1.3,4.3.9,8.6,1,12.9,0,.9.2,4.4-1.1,4.4l-6.2-.9c-4.5.9-8.9,2.3-13.6,2.2l1.2,20.2c-1.7-.3-3.2-.2-4.9-.7-.4,0-.7-.5-1.1-.6-.6-.2-3.6-.7-3.8-.9-.4-.4-.9-9.1-1-10.4-.7-11.2-.5-22.6-.7-33.9,0-1.2-.7-5.8-.2-6.6.1-.2,1-.2,1.2-.3.3-.1,0-.6.3-.8.6-.5,5.5.2,6.7.3,5.9.3,13.9.1,19.3,2.8.3.2,1.8,1,1.9,1.1h0ZM19.6,36.2l-8.2-.5c-.3,1-1.1-.3-1.6.6l.9,27.7,8.5-1.7c.5-.9,1.2-.7,1.8-1.3l-1.4-24.8h0Z"/>
  <path d="M142.4,21.4l-1.4,22.5c6.4-2.3,13.1-5.1,19.9-2.5.9,2.7.7,5.6.7,8.4l-1.5,19.4c-.1.8-2.2.8-3,.9-1.6,0-4.7,0-6.3-.2-1.8-.2-1.4-1.5-1.3-3,.4-6.7,1.6-13.4,1.7-20.2,0-.3-.2-1.8-.4-1.8-2.5,1.2-6.2,2.6-8.4,4.4-1.1.9-.9,1.7-1.8,2.5l-.5,18.1c-1.5.2-3.1.7-4.7.8-.6,0-1.1-.2-1.5-.2-.7,0-3.9.6-4.1-.2.2-2.1.1-4.1.2-6.2.4-11.9.7-24.4,1.7-36.2.1-1.2.3-5.2,1.2-5.8,1,0,2.4-.7,3.2-.8,1-.1,3.7,0,4.8,0s.9.1,1.3.3h0l.2-.2Z"/>
  <path d="M78.9,72.9c-1-.2-2,.3-3,.2-1.1,0-2.2-.6-3.1-.7-1-.2-2.5,0-3.6-.2-.2,0-.3-.9-.4-1.1-.6-6,.8-13.1.2-19.2.5-6.5.2-13.1,1-19.6.4-1.2,1.6-.4,2.2-.4,5.4-.2,13.2,1.9,18.6,3.5,3.3,1,4.4,1,4.8,4.6s.7,9.9.3,13.4c0,1.2-.4,1.6-1.6,1.8-3.2.4-6.5,0-9.7.4,2.9,3.5,6.4,6.5,9.3,9.9.8.9,4.1,4.6,4.1,5.4s0,.3-.4.4c-3.1.5-6.8-.6-9.9-.9-3-3.2-5.6-6.8-8.9-9.7v12.2h0ZM79.1,52.8h5.9c.3,0,.3-.6.4-.8.2-2.1,0-5.9,0-8.2s0-4.8-.6-6.2c-.4-1.5-3.8-1.9-5.2-1.6-.5,5.5-.5,11.2-.5,16.8Z"/>
  <path d="M240.3,21.9c.1,1,.4,2,.5,2.9.4,3.1.5,6.5.5,9.6s.4,2.5-.3,3.8c-1.5,2.9-11.8,4.8-14.7,6.1l.6,14.9c-1.2-.3-2,.4-3,.5-1.6.2-5,0-6.7-.3-.4,0-.9-.2-1.3-.3l-.8-15.4c.2-.7,11-3.6,12.6-4.4,1.3-.7,2.5-1.4,2.7-3,.2-1.4-.2-13.1-.7-13.6-2.1,0-9.9-.4-11.3.8-.3.3-.4.8-.5,1.2-.2,4.5-.6,9.1-.5,13.6,0,.2-.2.3-.4.4-.7.2-4,.6-4.8.5-.4,0-.7-.5-1.2-.5s-3.2.6-3.5.3l.6-15.8c.4-.9,4.3-1.6,5.4-1.8,6-1.1,15.3-1.3,21.5-.8,1.8,0,3.5.5,5.1,1.2h.2Z"/>
  <path d="M47.7,57.7c0,.4.9.4,1.3.4,2,0,4.3-.7,6.4-.7.3-.3-.9-3.9-.6-4.3,0,0,.9-.6,1.2-.7,3-1.1,6-.8,9.2-.4.3,1,1.6,6.1,1.2,6.7-2.8,1-5.6.7-8.5,1-5.6.6-10.7,1.4-16.3,1.4s-4.2.8-4.4-1.1c-.5-3.7.3-8.2,0-12-1.8-.4,0-1,0-1.3.6-2.5,0-6.2.2-8.8.2-2.4,0-3,2.4-3.8,3.7-1.4,16-2.4,20-2,1.2.1,3.6.4,3.9,1.9.4,4.3,1.3,8.5,1.5,12.8-1.5,0-2.9.6-4.4.7l-13.1.2v10.2h0v-.2ZM54.6,45.6l-1.7-11.2-4.6.5s-.5,2-.5,2.2v8.5h6.8Z"/>
  <path d="M114.6,52.5c.4,0,.5-.4.8-.5,2.5-.8,5.3-1.2,7.9-1.1.4,0,.8.5,1.3.3,0,.3.2.7.3,1,0,1.3.2,8.6-.3,9.3-.4.7-3.8,1.2-4.7,1.3-4.4.5-7.7,0-12-.4-1.5,0-8.6-.3-9.2-1.4-.4-.8-.3-5-.2-6.2.2-5.4.7-12.1,1.5-17.5.2-1.5.3-3.6,1.8-4.4.5-.3,2.6-.9,3.3-1.1,3.4-.8,12.5-1.7,15.7-.8,1.4.4,1.8,1.2,1.9,2.6.3,2.9-.2,6.3,0,9.3-3.1,1.2-6.3,1-9.6,1.6-.5-3.1.6-6.9-.3-9.9-.2-.9-2-1.7-2.3-1.4-.2.2-.9,5.8-1,6.6-.3,2.8-.6,5.9-.7,8.6s-.6,7.2-.2,9.8c0,.3,0,.7.4.9,1.3.6,4.1.3,5.6.7v-7.4h0Z"/>
  <path d="M177.1,47.3c-.3.2-.7,6.9-.3,7.9l17.6-.5c.7.8,1.2.4,2.1.5.8,0,2.7.4,2,1.4-.2.3-3.5.7-4.2.8-5.9.4-14.1.6-19.9.2-1.4,0-5-.5-6.1-.8-2.6-.8-2.2-3.2-2.2-5.5.1-3.9.8-7.9,1.2-11.8.3-2.7-1.5-4.6,1.8-5.4,4.3-1.1,13.8-.7,18.7-.8,2,0,6.5.4,8.1,1.3,1.4.7,2,4.6,2.3,6.1.2,1.1,1,5.3,0,5.9l-21.3.6h.2ZM188.3,45.1c.5-.4-1-8.4-1.7-9.5-.3-.2-7.2-.2-8.1-.1-.4,0-.6,0-.9.4-.9,1-.4,7.6-.7,9.3h11.4Z"/>
  <path d="M226.7,64.3c-.3,1.1,1,6.1.3,6.6-.1,0-2.2.5-2.5.6-1.5.2-2.9,0-4.3,0s-2.6.6-3.2,0c-.6-.7-.2-5.3-.8-6.4,3.5-1.3,6.9-1.6,10.5-.7h0Z"/>
  <path d="M200.1,21.8c-.4,0-1.1.5-1.4.8-1.8,2-4.6,3.8-7.1,5.3-1.6.9-6.3,3.5-7.8,3.9-.3.1-1.2.2-1.2-.2s2.2-2.4,2.5-2.7c1.4-1.2,3.4-2.3,5-3.2,1.1-.6,9-4.6,9.5-4.4.1,0,.5.5.5.6h0Z"/>
  <metadata>
    <sfw xmlns="http://ns.adobe.com/SaveForWeb/1.0/">
      <slices/>
      <sliceSourceBounds x="261.3" y="-20.5" width="241.39" height="66.36" bottomLeftOrigin="true"/>
    </sfw>
  </metadata>
</svg>