<?xml version="1.0" encoding="UTF-8"?>
<svg id="Layer_1" xmlns="http://www.w3.org/2000/svg" version="1.1" viewBox="0 0 240 120">
  <!-- Generator: Adobe Illustrator 30.0.0, SVG Export Plug-In . SVG Version: 2.1.1 Build 123)  -->
  <path d="M31.5,112c-1,0-1.9,0-2.7-.3-.7-.2-1.1-.8-1.1-1.5,0-1.3-.2-2.7-.5-4.1-.3-1.7-.6-3.4-.5-5.2-.2-.2-.3-.3-.4-.6-.3-.6-.3-1.4.2-2.1v-.4c-1-1.9-1.4-5-1.8-7.7-.1-.9-.2-1.8-.4-2.5-1.9-11.2-3.5-20.7-5-30.2,0-.6-.1-1.1-.2-1.7,0-.8,0-1.6-.3-2.2-.1-.5,0-.9.2-1.3.3-.4.7-.6,1.2-.6h1.7c.2,0,.4,0,.6,0,.8-.2,1.5-.3,2-.3h2.2c2.8,0,5.7,0,8.5-.2,2.8,0,5.7,0,8.4,0h8.5c.6,0,1.2,0,1.8.2.4,0,.9.2,1.1.2,4.5-.4,10.1-.5,14.1-.5s1.4.2,2.2.4h.3c.3-.2.7-.3,1.1-.3s.8,0,1.2,0h.9c.3,0,0,0,.2,0h0c6.2-.2,12.6-.3,19.5-.3s8.8,0,13.7,0h0c.8,0,1.5,0,2.1,0h1.3c.4-.2,1-.5,1.8-.5,2.3,0,4.6,0,6.8,0h6.6c8,0,16.2,0,24.1-.2,4.1,0,8.2,0,12.3,0h.3c.6,0,1.3.2,2,.2h4c.6-.5,1.2-1.2,1.7-1.8.5-.5.9-1,1.4-1.5l1.8-1.8c2.3-2.2,4.7-4.6,7.2-6.7.2-.4.4-.7.9-1.1.1-.2.2-.3.3-.4.1-.3.4-.6.5-.7.3-.4.7-.6,1-.7,0-.3.2-.6.5-.8,2.4-2.2,4.8-4.5,7.1-6.8s4.2-4.3,6.2-6.4c2.4-2.5,4.9-5.2,7.4-7.6,1-1.1,2.3-2.2,3.5-3.3,1.8-1.7,3.8-3.4,5-5,0,0,.1-.3.2-.4.3-.6.8-1.7,1.8-2.1.2,0,.3-.2.6-.3h.4c.4,0,.8.2,1.1.4h0c.4.5.5,1.1.3,1.7,0,0-.1.3-.2.4l-11.9,45c.6,0,1.3-.2,1.7-.2h1.6c.2-.2.5-.3.9-.3,1.3,0,1.6,1.1,2,2.7.1.4.2.7.3.9,2.9,6.1,5.6,12.1,8,18.5,1.4,3.5,2.9,7.2,4.3,10.7,1.9,4.6,3.9,9.4,5.7,14.2.4.8.9,3.6-.7,4.7-.2.2-.5.3-.8.3l-58.8,3.4c-.3,0-.5,0-.7-.2-.5,0-1,.2-1.6.2-3.3.4-6.8.4-10.2.5-2.1,0-4.3,0-6.3.2-1.7,0-3.4.2-5.1.3-3.9.3-7.9.5-11.7.6h0c-.8,0-1.7,0-2.6,0-1,0-1.9,0-2.7,0s-.5,0-.7,0h0c-.3.2-.9.6-1.6.6-3.7.4-7.7.4-11.5.5-2.4,0-4.8,0-7.1.2-.2,0-.6,0-.8,0-.5,0-1.1.2-1.6.2s-.5,0-.8,0c-.2,0-.5,0-.8,0s-.8,0-1.1-.3c-.2,0-.3.2-.4.2-.5.2-.9.3-1.3.3s-.8,0-1.1-.3c-.3,0-.7.2-1.1.3h-.2c-.6,0-1.4-.2-2.1-.4-.2,0-.4.2-.7.3h-1.2c-.2,0-.4.2-.6.2h-1.9c-.4.2-.8.3-1.2.3h-1c-.7,0-1.3-.2-1.7-.3,0,0-.2,0-.3.2,0,0-.2,0-.3,0-1.6.4-5.2.6-10.7.6s-4.6,0-5.2,0h0c-.2,0-.5.2-.8.2h-1.3c-.2,0-.5.2-.7.2h-4.2c0,0-.3,0-.4.2-.4,0-1,.2-1.6.2h-2.7c-.4.2-.9.3-1.9.3s-2,0-2.9,0h-2.8q-.9,0-1.4,0h-1.3c-1.7,0-3.2,0-4.8.2h-.2c-.3,0-.5,0-.8-.2-.7.2-1.4.3-1.9.3h-2.6c-1.1.2-1.7.2-2.4.2s-.4,0-.6,0h-.9c-.7,0-1.3,0-2.1,0-.8,0-1.6,0-2.4,0l-.4.2Z" fill="#fff"/>
  <path d="M217,5h.1q0,0-.1,0h0M217,5.1l-12.5,47c0,.2,0,.4.2.5h.3c.9,0,3.1-.4,3.7-.4h.2c.4,0,.7.2,1,.2s.4,0,.6-.3c.2,0,.7,2.3.9,2.7,2.8,6,5.6,12.1,8,18.4,3.2,8.2,6.9,16.5,10,24.8.3.7.5,2.5-.2,3l-58.7,3.4-.2-.7c-.2.6-1.5.7-2.2.7-5.3.6-11.1.4-16.5.7-5.4.3-11.3.8-16.8.9-1.4,0-3.7-.3-5.3-.3h-1.1c-.3,0-.8.6-1.3.6-6,.6-12.5.4-18.6.7-.6,0-1.7.4-2.4.4s-.3,0-.4,0v-.4s-.6.5-1.1.5-.3-.5-.5-.5h-1.2c-.2,0,0,.4-.4.5-.3,0-.5.2-.7.2-.5,0-.5-.5-.5-.5-.5,0-1.3.4-1.9.5-.8,0-2.2-.5-2.6-.5s0,.4-.5.5h-.3c-.4,0-.6-.3-.9-.3s0,.4-.5.5h-.8c-.5,0-1,0-.8-.5h-.2c0,.4-.5.7-1,.7s-.5,0-.4-.5c-.4,0,0,.5-.6.5s-1.7-.5-2.3-.5h0s0,.4-.3.5c-1.8.5-6.4.6-10.3.6h-5.3c-.3,0-.7.2-.9.2s-.2,0-.2-.5h-.2c0,.4,0,.5-.3.5-.3,0-.7-.3-1-.3s0,.4-.5.5h-.7c-.7,0-1.6,0-2.4,0h-1c.2-.4.2-.6,0-.6s-.6.8-.7.8c-.3,0-.8,0-1.3,0-1,0-2.3,0-3,0s0,.3-1.7.3-3.9.2-5.7.2-2,.2-2.7.2c-1.7,0-3.3,0-5,.2l-.5-.7c0,.6-1.4.7-2.2.7s-.4,0-.4,0c-.2,0,0-.5-.2-.5h-.2c-.2,0-.2.4-.4.5h-1.6c-1.1.2-1.7.2-2.3.2h-1.5c-1.5,0-3,.3-4.5.3s-1.5,0-2.3-.3c0-3.5-1.4-7-.8-10.5h-.7c-.3-.7.5-.8.5-.9,0,0-.3-1.4-.3-1.5-1.3-2.1-1.6-7.2-2.1-10-1.7-10-3.4-20.1-5-30.2-.2-1.4-.1-2.8-.5-4.1h1.7v.5c.9-.6,1.7-.7,2.6-.7h2.2c5.6,0,11.4-.3,16.9-.3h8.3c.9,0,2.1.4,2.9.4s0,0,.2,0c4.2-.4,9.6-.5,13.9-.5s2.4.7,3.1.7,0-.5.5-.5,1.3.2,2.1.2.2,0,.3,0c6.5-.2,13-.3,19.4-.3s9.1,0,13.7,0c1.5,0,2.4.2,3.6.2s.9-.5,1.7-.5c4.5,0,9,.2,13.4.2,12,0,24.2-.2,36.4-.3.8,0,1.5.2,2.3.2,1.5,0,3.1-.2,4.6-.2,1.3-1.1,2.4-2.5,3.6-3.7,2.9-2.8,5.9-5.8,9-8.5.4-.3,0-.4.9-1,.2,0,.1-.3.4-.3s.3,0,.7.2c.2-.8-.9-.3-.2-1.1.6-.7,1.4,0,1.3-1.4,2.4-2.2,4.8-4.5,7.1-6.8,4.6-4.6,9-9.5,13.6-14,2.6-2.7,6.5-5.6,8.6-8.4.5-.7.7-2,1.8-2.2M217,2c-.3,0-.5,0-.8,0-.3,0-.6.2-.9.4-1.5.7-2.1,2.1-2.4,2.8,0,0,0,.2-.1.3-1.1,1.5-2.9,3.1-4.7,4.7-1.2,1.1-2.5,2.2-3.6,3.3-2.5,2.5-5,5.1-7.4,7.6-2,2.1-4.1,4.3-6.1,6.4-2.3,2.3-4.6,4.5-7,6.7-.3.3-.5.6-.7.9-.3.2-.6.4-.9.8-.2.3-.4.5-.5.8,0,0-.1,0-.2.2-.5.4-.8.7-1.1,1.2-2.4,2.1-4.8,4.4-7,6.6-.6.6-1.2,1.2-1.8,1.7h0c-.5.5-1,1-1.4,1.5s-.8.9-1.3,1.3h-3.4c-.7,0-1.3,0-1.8,0h-.5c-.2,0,0,0,0,0-4.1,0-8.2,0-12.3,0-7.9,0-16.1.2-24.1.2s-4.4,0-6.6,0-4.5,0-6.8,0-1.7.3-2.2.5h-.9c-.6,0-1.3,0-2.2,0-4.9,0-9.4,0-13.7,0-6.9,0-13.3,0-19.5.3h-.9c-.4,0-.9,0-1.4,0s-.9,0-1.3.2c-.7-.2-1.5-.4-2.3-.4-4,0-9.7,0-14.1.5-.2,0-.5,0-.8,0-.6,0-1.4-.3-2.1-.3s-.3,0-.5,0h-7.8c-2.8,0-5.7,0-8.5.2-2.8,0-5.7,0-8.4,0s-.7,0-1,0h-1.2c-.5,0-1.3,0-2,.2h-2.2c-1,0-1.8.5-2.4,1.2-.6.8-.7,1.8-.5,2.7.1.5.2,1.1.2,1.8s0,1.2.2,1.8c1.6,10.2,3.4,20.6,5,30.3.1.7.2,1.6.4,2.5.4,2.8.7,5.7,1.7,7.8-.4.9-.3,2,0,2.8,0,.2.2.4.3.6,0,1.7.3,3.4.5,4.9.2,1.4.4,2.6.4,3.8s.9,2.6,2.2,2.9c.9.2,1.9.4,3.1.4s1.7,0,2.6,0c.7,0,1.3,0,1.9,0h1.5c.7,0,1.4,0,2.5-.2h2.7c.6,0,1.2,0,1.8-.2.3,0,.6,0,.9,0h.4c1.5-.2,3-.2,4.6-.2s1,0,1.5,0h1.2c1,0,1.9,0,2.9,0h2.8c.9,0,1.6,0,2.2-.3h2.5c.6,0,1.4,0,2-.2.2,0,.4,0,.6-.2h3.8c.2,0,.4,0,.6-.2h1.1c.5,0,.9,0,1.1-.2h5c5.6,0,9.3-.2,11.1-.7,0,0,.3,0,.4,0,.5,0,1,.2,1.6.2s.4,0,.5,0h.5c.4,0,.8,0,1.3-.2h2.1c0,0,.3,0,.4,0h.4c.4,0,.7,0,1.1-.2,0,0,.3,0,.5-.2.6,0,1.2.3,1.9.3s.3,0,.5,0,.5,0,.7-.2c.4,0,.8.2,1.2.2s1.1,0,1.7-.4c.3,0,.7.2,1.1.2h1.5c.7,0,1.4,0,1.9-.3.2,0,.4,0,.5,0h0c2.3,0,4.7-.2,7.1-.2,3.8,0,7.8,0,11.6-.5.8,0,1.5-.4,1.9-.6h.2c.7,0,1.7,0,2.6,0,1,0,1.9,0,2.7,0s0,0,0,0c3.9,0,7.9-.3,11.8-.6,1.7,0,3.4-.2,5.1-.3,2,0,4.2-.2,6.3-.2,3.4,0,6.9,0,10.3-.5.5,0,1,0,1.4,0,.3,0,.6,0,.8,0h.2l58.7-3.4c.6,0,1.1-.2,1.6-.6,2.3-1.6,1.8-5.1,1.2-6.5-1.8-4.7-3.8-9.5-5.7-14.1-1.5-3.5-3-7.1-4.3-10.6-2.4-6.4-5.3-12.6-8-18.5,0-.2-.1-.5-.2-.7-.4-1.6-1-3.8-3.4-3.8s-.8,0-1.1.2h-.9l11.3-42.6c.1-.2.2-.3.3-.5.4-1.1.1-2.3-.7-3.2h-.1c-.6-.7-1.3-1-2.1-1h0l-.4-.2Z" fill="#802928"/>
  <rect id="safe-area" x="36" y="57.8" width="171.8" height="39.7" fill="#fff"/>
  <metadata>
    <sfw xmlns="http://ns.adobe.com/SaveForWeb/1.0/">
      <slices/>
      <sliceSourceBounds x="17.61" y="6.2" width="215.2" height="111.8" bottomLeftOrigin="true"/>
    </sfw>
  </metadata>
</svg>