<?xml version="1.0" encoding="UTF-8"?>
<svg id="Layer_1" xmlns="http://www.w3.org/2000/svg" version="1.1" viewBox="0 0 243.3 120">
  <!-- Generator: Adobe Illustrator 30.0.0, SVG Export Plug-In . SVG Version: 2.1.1 Build 123)  -->
  <g>
    <path d="M177.4,87.5h-.1c-.4,0-.8-.2-1.2-.4-.2,0-.5.2-.8.3h-.2c-.4,0-.9,0-1.5-.2-.5,0-1-.2-1.3-.2-.3.2-.7.4-1.2.4s-1.7,0-2.8-.7c-.3.3-.7.4-1,.5h-4c-.2,0-.3,0-.5-.2h-.3c-.6.2-1.2.2-1.8.2s-1.1,0-1.6,0c-.5,0-1,0-1.6,0-3.7,0-7.5,0-11-.2-1.8,0-3.6,0-5.5,0h-7.6c-2.3,0-5,0-7.7-.3-.6,0-1,0-1.4-.2h-1.2c-1,0-1.8.2-2.6.2s-1.4,0-2.1-.2h-.9c-.6,0-1.1,0-1.5-.2-.3,0-.6,0-.7,0-.3,0-1,0-1.4,0h-1c-.2,0-.5,0-.7-.2h-.9c-.4,0-.7-.2-1-.3-.4.4-.8.4-1.1.4s-.6,0-1.2-.2c-.3,0-.8-.2-1-.2-2.6-.2-6-.2-8.5-.2h0c-.2,0-.4.2-.8.2s-.2,0-.3,0h-.2c-.4,0-.9,0-1.5-.3h0c-.2,0-.5,0-.8,0h-.7c-.3,0-.6,0-.9,0-.3,0-.6,0-.8,0h-1.1c-.4,0-.8,0-1.1-.3-.2.2-.5.3-.7.3h-.8c-.2,0-.5,0-.7,0s-.5,0-.9-.2c0,0-.2,0-.3,0h-.2c-.7,0-1.5,0-2.5,0-1.6,0-3.4,0-5.1-.2-1.5,0-3-.2-4.2-.2h-1.4c-.6,0-1.2,0-1.9,0s-1.1,0-1.6,0c-.3,0-.5,0-.6-.2h-.8c-3.8,0-7.8-.2-11.6-.4-3.8-.2-7.7-.4-11.4-.4s-.8,0-1.2,0c-.9,0-1.5.2-1.8.2s-.9-.2-1.2-.5-.4-.7-.4-1.1c0-.8,0-1.5.3-2.2h0l-7.8.2h-2c-1.5,0-3.1.2-4.7.4-1.1,0-2.3.3-3.4.3h0c-.5,0-.9,0-1.3-.2h-.4c-.3.4-.8.7-1.3.7s0,0-.1,0c-.4,0-.7-.2-1-.5h-2.6c-.4,0-.9.2-1.7.2h-2.4c-1.1,0-2.3,0-3.4,0h-.2c-.4,0-.8,0-1.2,0-.5,0-1.1.2-1.8.2h-.9c-.5,0-.9-.4-1.1-.8s-.2-1,0-1.4c.4-.7,1.8-2,2.5-2.4.2,0,.3,0,.5-.2.5-.7,1.3-1.1,1.8-1.4.2,0,.3-.2.5-.3.4-.3.9-.7,1.4-1.1,1.6-1.3,3.4-2.8,4.5-3.4.2,0,.5-.2.7-.3,0,0,.2-.2.3-.4.4-.5,1.2-1,2.4-1.7.5-.3,1.2-.7,1.4-.9h0l2.3-1.7c2.3-1.7,4.7-3.4,6.9-5,1.6-1.2,3.3-2.3,5-3.4,3.1-2,6-4,8.7-6.2,0-2.7.4-5.4.7-8,0-1.1.3-2.3.4-3.4v-.5c0-.3,0-.6,0-1s0-2.7.8-3.4.8-.5,1.1-.6c.2,0,.4-.2.7-.2h1.9c6.4-.6,13.1-.8,19.6-1,3.5,0,7.2-.2,10.7-.4,5.8-.3,11.8-.7,17.6-1,5.8-.3,11.8-.7,17.6-1,1.2,0,2.4-.2,3.6-.2,2.6-.2,5.3-.4,8-.4s2.5,0,3.7.1c.2-.1.4-.3.6-.3h.2c1.3-.3,3.7-.3,6-.4,1.4,0,2.7,0,3.5-.1,19.7-1.5,39.9-2.6,59.4-3.7,4.6-.3,9.2-.5,13.8-.8,3.3-.2,6.6-.4,10-.5,4.9-.2,9.9-.5,14.9-.9h.1c.3,0,.6,0,.8.2.3.2.8.5,1.1,1.1.2.1.4.3.5.6.2.3.2.7,0,1v.6l-6.6,59.7c0,.8-.7,1.3-1.5,1.3s-54.7-.9-54.7-.9v.4Z" fill="#fff"/>
    <path  d="M237.7,25.4c.8.5.6.5.1,1.1h.9l-.5.6.5.2-6.6,59.7-54.7-.9c-1,0-.6-1-.7-1-.6,0-1.1.8-1.7.9-.6,0-2-.3-2.8-.3h-.3c-.4,0-.6.4-.9.4s-2.4-.4-2.1-.7l.6-.5c-.1,0-.4,0-.7,0-.6,0-1.3,0-1.3,0-.2.2.2.8-.6,1h-3.3c-.5,0-.4-.6-.6-.6h0c-.2,0,0,.3-.1.4,0,0-.3,0-.4,0h0c-.7.2-1.2.3-1.7.3-1,0-1.9-.3-3.2-.3-5.6,0-11-.2-16.5-.3h-7.6c-2.5,0-5.1,0-7.5-.3-1.1,0-1.4-.3-2.1-.3h-.8c-.9,0-1.6.2-2.4.2s-1.3,0-2-.2l.7-.7h-1.4c-.6.4.6.4.5.7h-.7c-.8,0-1.6-.3-2.3-.3s-2.1.2-2.4.2-.2-.5-.2-.5c-.2,0-.6.4-1.1.4s0,0,0,0c-.4,0-.9-.6-1.4-.6s-.2,0-.4,0c-.2,0-.2.6-.4.6-.3,0-1.6-.4-2.1-.4-2.6-.2-6-.2-8.6-.2s-.6.2-.7.2c-.3,0,0-.5-.2-.5s0,.4-.3.5c-.3,0-1-.2-1.4-.3-.4,0-.6.2-.9.2s-.5,0-.8-.7c-.4,0,.3.7,0,.7s-1.1-.3-1.8-.3h-.5v-.5h-.2c-.3,0-.3.6-.4.6-.3,0-.9-.5-1.4-.5s-.3,0-.4,0c0,0,0,.4-.2.4h0c-.3,0-.2-.4-.4-.5h-.3c-.4,0-.3.5-.3.5h-.2c-.3,0-.3-.5-.4-.6-.5,0-.8.4-1.2.5-.6,0-1.4,0-2.3,0-2.9,0-6.8-.4-9.2-.4s-2.2.2-3.3.2-.9,0-1.3,0c-.8-.2-.2-.2-1.7-.2-7.6,0-15.4-.8-23-.8s-2.5.3-3.1.3,0,0,0,0c0-1.3.5-2.5.5-3.8l-9.5.2c-.6,0-1.3,0-2,0-2.7,0-5.5.5-8.1.7-.6,0-1.2-.3-1.8-.3s-.8.2-1.1.8c-.1-.4-.4-.5-.7-.5h-.7c-.3,0-.2,0-.3,0-.5,0-.9,0-1.2,0-.9,0-1.3.2-2.7.3-1.9,0-4,0-5.9.2-1,0-1.9.3-3,.3s-.4,0-.6,0c.3-.5,1.5-1.6,1.9-1.8h.2c.3,0,.5.2.6.2s0,0,0,0c0,0-.2-.3,0-.5.5-.8,1.7-1.2,2.2-1.6,1.4-1.1,4.3-3.6,5.7-4.4.2,0,.4,0,.5,0,.3,0,.5,0,.5,0,0,0,0-.6.3-.9.5-.6,2.9-1.9,3.6-2.5,3-2.2,6.2-4.6,9.2-6.7,4.8-3.4,9.9-6.3,14.3-10.1,0-4.1.7-8.1,1.1-12.1,0-.6-.2-1.1-.2-1.6s.3-2.2.4-2.3.2-.2.3-.2c.2,0,.2.6.2.6h.2c.2,0,.5-.2.5-.4s-.6,0-.5-.4h2c9.8-1,20.3-.9,30.3-1.4,11.6-.6,23.6-1.4,35.2-2,3.7-.2,7.7-.6,11.5-.6s3,0,4.4.2c0,0,0-.4.3-.5,1.9-.4,7-.3,9.3-.5,24.2-1.8,48.9-3.1,73.2-4.5,8.3-.5,16.6-.8,24.9-1.4M237.7,22.4h-.2c-4.9.4-10,.6-14.9.9-3.3.2-6.7.3-10,.5-4.6.3-9.2.5-13.8.8-19.6,1.1-39.8,2.3-59.5,3.7-.8,0-2.1.1-3.5.1-2.9,0-4.9.1-6.2.4h-.3c-.2,0-.4.1-.5.2-1,0-2.1-.1-3.3-.1-2.7,0-5.5.2-8.1.4-1.2,0-2.4.2-3.5.2-5.8.3-11.8.7-17.6,1-5.8.3-11.8.7-17.6,1-3.5.2-7.2.3-10.7.4-6.5.2-13.2.4-19.6,1h-1.8c-.4,0-.8,0-1.1.2-.5,0-1.1.4-1.7,1-1.3,1.3-1.3,4.4-1.3,4.4,0,.5,0,1,0,1.3v.2c0,1.1-.2,2.2-.4,3.3-.3,2.4-.6,4.9-.7,7.5-2.5,2-5.2,3.8-8,5.7-1.7,1.1-3.4,2.2-5,3.4-2.2,1.6-4.6,3.3-6.9,5-.8.6-1.6,1.2-2.3,1.7,0,0-.1,0-.2,0-.2,0-.8.5-1.2.8-1.3.8-2.1,1.3-2.7,2h0c-.1,0-.2,0-.4.2h-.1c-1.2.7-2.8,1.9-4.7,3.6-.5.4-.9.8-1.3,1.1,0,0-.2,0-.3.2-.5.3-1.3.7-2,1.4,0,0-.3,0-.4.2-.9.5-2.6,2-3.1,2.9s-.6,1.9,0,2.8c.4.9,1.3,1.5,2.3,1.7h1.1c.8,0,1.5,0,2-.2.4,0,.7,0,.9,0h.3c1,0,2.1,0,3.3,0h2.5c.9,0,1.5-.2,1.9-.2h1.8c.4.3.9.4,1.4.5h.2c.7,0,1.3-.2,1.8-.6.3,0,.7,0,1.1,0s.1,0,.2,0c1.2,0,2.3-.2,3.5-.3,1.6-.2,3.1-.4,4.5-.4h2c.2,0,0,0,0,0h6v.6c0,.8.3,1.6.9,2.1.4.4,1.1.9,2.2.9s1.1,0,2-.2c.4,0,.9,0,1.1,0,3.7,0,7.6.2,11.3.4,3.8.2,7.8.4,11.7.4s.3,0,.4,0h0c0,0,.2,0,.4,0h0c.6,0,1.2.2,1.9.2s1.4,0,2,0h1.3c1.1,0,2.5,0,4.1.2,1.8,0,3.6.2,5.2.2s1.9,0,2.7-.2h.2c.4,0,.8,0,.9,0h1.7c.2,0,.4,0,.6,0,.3,0,.6.2,1,.2s.2,0,.3,0h1.3c.4,0,.8.2,1.3.2h1.5c.6,0,1,.2,1.5.2s.2,0,.2,0h.3c.5,0,.8,0,1.1-.2,2.4,0,5.6,0,8,.2h0c.2,0,.5,0,.7.2.6,0,1,.2,1.5.2s.7,0,1.2-.2c.2,0,.4,0,.7,0h.9c.3,0,.5,0,.8,0h1.2c.3,0,1,0,1.2,0h.5c.5,0,1.1.2,1.8.2h.9c.7,0,1.4.2,2.1.2s1.7,0,2.8-.2h.7c.3,0,.8.2,1.6.2,2.7.3,5.4.3,7.8.3h7.6c1.8,0,3.6,0,5.5,0,3.6,0,7.3.2,11.1.2s.9,0,1.4,0c.5,0,1.1,0,1.8,0s1.2,0,1.8-.2c.2,0,.4,0,.6.2h4.6c.2,0,.4,0,.7-.2,1.3.5,2.6.5,2.7.5.6,0,1.2-.2,1.6-.4.2,0,.5,0,.7,0,.6,0,1.2.2,1.7.2h.5c.2,0,.4,0,.5,0,.3,0,.7.2,1.1.3h.2l54.7.9h0c1.5,0,2.8-1.1,3-2.7l6.6-59.7v-.7c0-.6,0-1.1-.3-1.7-.2-.3-.4-.7-.7-.9-.5-.7-1.1-1.1-1.5-1.4-.5-.3-1-.5-1.6-.5h0v-.2Z" fill="red"/>
  </g>
  <rect id="safe-area" x="52" y="39.6" width="175.9" height="38.6" fill="#fff"/>
  <metadata>
    <sfw xmlns="http://ns.adobe.com/SaveForWeb/1.0/">
      <slices/>
      <sliceSourceBounds x="2.47" y="29.8" width="239.23" height="67.8" bottomLeftOrigin="true"/>
    </sfw>
  </metadata>
</svg>