<?xml version="1.0" encoding="UTF-8"?>
<svg id="Layer_1" xmlns="http://www.w3.org/2000/svg" version="1.1" viewBox="0 0 240 120">
  <!-- Generator: Adobe Illustrator 30.0.0, SVG Export Plug-In . SVG Version: 2.1.1 Build 123)  -->
  <g>
    <path d="M203.1,111.9c-.4,0-.8-.2-1.1-.4l-.7-.7c-.3-.2-.5-.5-.7-.6h0c-2.7-3.1-5.3-7.1-7.9-11-1.2-1.8-2.3-3.5-3.4-5-1.5-2.1-3-4.2-4.5-6.3-4-5.6-8.1-11.4-12-17.1h-3.6c-4.3,0-8.6,0-12.9.2-5.8,0-11.7.2-17.5.2h-26.2c-.8,0-1.6,0-2.5,0-1,0-2,0-2.9,0h-1.4c-.2,0-.4,0-.7,0-.2,0-.5.2-.8.2h-.4c-.2,0-.3,0-.5-.2-.5.2-1.1.2-1.7.2h-.6c-.2,0-.4,0-.6,0-.2,0-.5,0-.8,0s-.7,0-1.1-.3h0c-.2,0-.6.3-1,.3h-1.1c-.3,0-.5,0-.8-.2h-3c-.3,0-.5,0-.7-.2-.3,0-.7.3-1.1.3h-.5c-.2,0-.3,0-.4,0h-2.9c-.3,0-.5,0-.8,0h-.6c-.5,0-.9,0-1.3-.3h-.3c-.3.2-.6.3-1,.3h-11.7c-.5,0-.9,0-1.2-.2h-.5c-.2,0-.6.2-1,.2s-.2,0-.3,0c-.3,0-.6,0-.8,0h-1.5c-.3,0-.6,0-.8-.2-.4.2-.8.3-1.3.3s-1.1,0-1.5-.2h-.5c-.3,0-.7.2-1.1.2h-.6c-.4,0-.8,0-1.4,0h-10.7c-.9,0-1.2,0-1.3,0h-1c-.2,0-.5,0-.7,0-.4,0-.7,0-1,0h-.4c-.4,0-1.2,0-2.3,0-.3.2-.7.4-1.1.4s-.6,0-.9-.2h-3c-.3,0-.6,0-1,0h-1.2c-.2,0-.4.2-.7.2s-9.9-.4-9.9-.4c-.7,0-1.3-.5-1.4-1.2l-1.8-8.7c-.1-.4-.1-.7,0-1.1-.2-.2-.3-.4-.4-.7-.1-.5,0-1,.3-1.3v-.3c-.1,0-.2-.2-.4-.3,0,0,0,0-.1-.2-.3-.4-.5-1-1.1-4.3-.2-1-.4-2.1-.5-2.5-3.6-14.2-6.3-25.7-8.4-36.2,0-.3-.2-.6-.3-.9-.2-.5-.3-1.1-.4-1.6,0-.4,0-.9.3-1.3.3-.4.7-.6,1.2-.6s.1,0,.2,0c.1-.2.3-.3.5-.4.2-.1.5-.2.7-.2s.6,0,.8.3h.1c.2,0,.5,0,.8-.1.5,0,1-.2,1.6-.2,1,0,2.2.1,3.2.3.7,0,1.3.2,1.9.2,13.6.5,27.6,1,41.8,1.7h0c.8,0,1.8.4,2.7.7.3-.2.7-.3,1-.3h.7c1.9,0,4,.2,6.1.4,1.2.1,2.4.2,3.5.3,3.6.2,7.2.4,10.7.5,5.2.2,10.7.5,16,.9h.3c.3,0,.6-.1,1-.1s.6,0,.8.1h.3c.6,0,1,.3,1.3.5h.4c.4,0,.9-.1,1.4-.1,4.9.3,9.6.5,14.3.7h0c2.1,0,3.3.1,3.9.3h0c.3,0,.7.1.9.3h.3c.3,0,.7-.2,1.2-.2s.8,0,1.2.2c8.2.2,16.6.8,24.8,1.3,2.4.2,4.7.3,7,.5h2.1c.4,0,1,0,1.3.1.3,0,.6.2.8.3h.5c.3,0,.6.1.9.2h.3c.4,0,.7.1,1,.2.2,0,.5-.1.7-.1h3.1c.2,0,.7,0,1.1.5h.6c.7,0,1.4-.1,1.9-.1h.5c.9,0,1.9.2,2.8.3,1.2.1,2.2.3,3.3.3s.6,0,.9,0h.1c.4,0,.8.2,1.1.5l4.6-.2h.1c1.1,0,2.2.2,3.4.3,1.8.2,3.6.3,5.3.4,1.8,0,3.5,0,5.2-.2h.2c1.3,0,2.8,1.9,2.8,2v.2c.6,1.2,1,2.7,1.5,4,.2.8.5,1.5.7,2.2,3.8,10.5,7,19.5,9.8,27.6.4,1.3.9,2.6,1.4,3.8.6,1.7,1.3,3.5,1.8,5.2.6,1.8,1.1,3.9,0,5.2-.5.7-1.2-.3-2.1-.3h-.9c-.6,0-.5.5-.7.4-.9,0-1.8.3-2.9.3-2,0-4.1,0-6.1.2h-1.6c-.5,0-.9,0-1.3,0h-.6c-.2.2-.4.3-.6.3l-.9,39.9c0,.6-.4,1.1-.9,1.4-.2,0-.4,0-.6,0l.3-1.1Z" fill="#fff"/>
    <path d="M15,10.6c1.6,0,3.5.4,5,.5,14,.5,27.9,1,41.8,1.7,1,0,2.9.9,3.3.9s0-.5.5-.5h.7c3,0,6.5.5,9.5.7,8.9.5,17.9.8,26.8,1.4.3,0,.9-.2,1.3-.2s.6.1.5.6h0c.3,0,0-.4.2-.4h.2c.4,0,.8.5,1.1.5.5,0,1.4-.2,2.1-.2,4.8.3,9.5.5,14.2.7.5,0,3.5,0,3.7.3s0,.6,0,.7c0,.1.2.2.3.2.2,0,0-.7,0-.9.3.3.6.3.9.3.5,0,1-.2,1.6-.2.9,0,.5.2.6.2,10.6.2,21.6,1.1,32.4,1.8h3.1c.5,0,.8.6,1,.7.2,0,.5-.4.7-.4s.5.7.9.7.1,0,.2,0c0,0,0-.4.1-.4.4,0,.5.4.8.5.3,0,.5-.4.9-.4h3.1c.2,0,0,.5.3.5h.3c.7,0,2.2-.2,3.2-.2s.3,0,.4,0c2.1,0,4.2.5,6.3.5s.7,0,1,0l-.2.5,5.9-.2c2.8.2,5.9.6,8.7.7,1.8,0,3.6,0,5.4-.2.3,0,1.4,1,1.6,1.3.9,1.8,1.4,4.2,2.1,6.1,3.2,8.8,6.6,18.3,9.8,27.6,1,3,2.3,6,3.2,9,.4,1.3,1.3,4.3-.6,4.3s-.1,0-.2,0c-.4,0-.6-.4-.9-.4-1.1,0-2.2,0-3.4,0-2.6,0-5.2.2-7.7.3-.6,0-1.4-.2-2.1-.2h-.3c-.4,0-.3.4-.4.4h0c-.1,0-.3,0-.4,0-.2,0-.3,0-.5.5l-.9,40.9c-.4-.4-1.1-1-1.4-1.3-3.8-4.4-7.7-10.9-11.2-15.9-5.5-7.8-11.2-15.8-16.6-23.6-.1-.2,0-.4,0-.6-.5,0-1,.2-1.5.2-1,0-2.1-.2-3.2-.2-10.2,0-20.4.4-30.4.4s-2.5,0-3.7,0h-22.5c-1.7,0-3.7.3-5.5.3s-.9,0-1.3,0-.3-.5-.5-.5-.6.5-1.1.5,0,0,0,0c-.2,0,0-.5-.2-.5h0c-.7.3-1.3.5-2.2.5s-.4,0-.5,0c-.5,0-.3-.5-.4-.5s-.6.5-1.1.5-.3-.5-.5-.5c-.9,0-1.4.5-1.6.5h-1.1l.2-.5c-.8.3-1.6.4-2.3.4h-1.6c-.2,0-.4-.3-.7-.3s-.9.4-1.2.4-.4-.4-.7-.4,0,.4-.5.5h-1.4s-.3-.6-.4-.6c0,0,0,.2,0,.6h-.8c-.2,0-.5,0-.6-.6-.2.4-.4.5-.7.5-.5,0-1.3-.4-1.8-.4s-.5,0-.7.4h-11.1l-.2-.5v.5h-.5c-.6,0-1.2-.3-1.7-.3s-.7.2-1,.2,0,0-.2,0c-.7,0-.5,0-.8,0s-.4,0-.9,0c-.2,0,0-.5-.4-.5h0c-.2,0,0,.5-.2.5-.4,0-.6-.5-1.1-.5h0s0,.4-.2.4c-.2,0-.4.2-.7.2-.6,0-1.3-.2-1.8-.3-.3,0-.9.3-1.3.3s-.2,0-.3,0c0,0,.3-.5,0-.7-.2,0-.2.7-.5.7h-11.9c-1.4,0-1.7.2-1.8.2s0,0-.5-.7c0,.6-.4.7-.7.7s-.9-.2-1.3-.2-2.8-.2-2.9-.2c0,0-.2.4-.5.4s-.4-.2-.7-.7c-.2,0,0,.4-.3.5h-2.3c-.2,0-.2-.5-.3-.5h-.2c-.4,0-.3.5-.6.5h-1.5c-.3,0-.6,0-.9.2l-9.8-.4-1.8-8.8c-.3-.9.7-1.8-.2-1.8h-.3l.5-.2s-.3-1.7-.3-1.8c-.2-.3-.5-.4-.7-.6-.3-.4-1.1-5.3-1.4-6.3-3-11.9-5.9-24-8.4-36.1-.2-.8-.5-1.7-.7-2.6h1.4v-.6c.3.2.6.3,1,.3.7,0,1.5-.3,2.3-.3M184.1,20h0M11.7,7.6c-.5,0-1,0-1.4.4-.2,0-.3.2-.4.3-.7.1-1.4.5-1.9,1.1-.6.7-.8,1.6-.6,2.5,0,.6.3,1.2.5,1.7,0,.3.2.6.2.9,2.2,10.5,4.9,22,8.4,36.2h0c0,.4.3,1.6.5,2.4.7,3.5.8,4.2,1.4,4.9h0c-.1.5-.1,1,0,1.6,0,.3.2.6.3.8,0,.3,0,.6.1.9l1.8,8.7c.3,1.4,1.4,2.3,2.8,2.4l9.8.4h0c.4,0,.7,0,1-.2h.9c.4,0,.7,0,1.1,0h2.6c.5.2.9.2,1.2.2.5,0,1,0,1.4-.3.9,0,1.5,0,1.8,0h0c.3,0,.8.2,1.3.2h1.3c.4,0,.7,0,.8,0h13.8c.5,0,1,0,1.3-.2.5,0,1.1.2,1.7.2s.9,0,1.3-.2c.2,0,.5,0,.8,0h2.5c.5,0,.9,0,1.2-.2h0c.4,0,.9.2,1.6.2h11.7c.4,0,.8,0,1.1-.2.4,0,.9.2,1.4.2h5.1c.4,0,.8,0,1.1-.2h3.4c.3,0,.7.2,1,.2h1.1c.4,0,.7,0,1-.2.3,0,.7.2,1.1.2h2.1c.5,0,1.1,0,1.6-.2h3.9c1,0,2.1,0,3,0,.9,0,1.7,0,2.4,0h26.2c5.8,0,11.8,0,17.6-.2,4.2,0,8.6-.2,12.9-.2h2.8c3.8,5.4,7.7,11,11.5,16.4,1.5,2.1,3,4.2,4.5,6.3,1.1,1.5,2.2,3.2,3.4,5,2.6,3.9,5.3,8,8,11.1,0,0,0,0,.1.2.2.2.4.4.7.7.2.2.5.5.7.6.6.6,1.3.9,2.1.9s.8,0,1.1-.2c1.1-.4,1.9-1.5,1.9-2.7l.8-38.6h.9c.3,0,.1,0,.2,0h1.6c2.1,0,4-.2,6-.2h2.5c.4.2.9.4,1.6.4h.4c1.4,0,2.6-.6,3.3-1.6,1.5-2.1.6-5,.2-6.5-.5-1.8-1.2-3.6-1.9-5.3-.5-1.3-.9-2.5-1.4-3.7-2.8-8.2-6-17.2-9.8-27.7-.2-.6-.5-1.4-.7-2.1-.4-1.4-.9-2.9-1.6-4.3,0-.1-.1-.2-.2-.3,0,0-1.9-2.6-4.1-2.6s-.2,0-.3,0c-1.6.2-3.3.2-5,.2s-3.4-.2-5.1-.4c-1.1-.1-2.3-.2-3.4-.3h-4.3c-.5-.1-1-.3-1.5-.3h-.9c-1,0-2-.1-3.1-.3-1-.1-1.9-.2-2.9-.3h-.6c-.7,0-1.4,0-2.1.1h0c-.5-.3-1.1-.4-1.6-.4h-3.8c-.3-.1-.7-.2-1-.2s0,0,0,0c-.3-.1-.7-.2-1.1-.2s-.2,0-.3,0c-.2,0-.5-.2-.7-.2-.5-.1-1-.2-1.6-.2h-2c-2.3-.1-4.6-.3-6.9-.5-8.1-.6-16.5-1.1-24.6-1.3-.6-.2-1.2-.2-1.5-.2-.5,0-1,0-1.3.2-.4-.2-.8-.3-1.2-.3h0c-.8-.2-2.1-.3-4-.3-4.6-.2-9.3-.4-14.1-.7h-.2c-.5,0-1.1,0-1.5.1-.4-.2-1-.4-1.6-.4s0,0,0,0c-.3,0-.6-.1-.9-.1-.5,0-1,0-1.3.2h0c-5.3-.4-10.6-.6-15.8-.8-3.5-.2-7.2-.3-10.7-.5-1,0-2.2-.2-3.4-.3-2.1-.2-4.2-.4-6.2-.4s-.5,0-.8,0-.7,0-1,.2c-.9-.3-1.8-.5-2.6-.6-14.1-.7-28.2-1.2-41.7-1.7-.5,0-1.1,0-1.7-.2-1.1,0-2.3-.3-3.4-.3s-1.3,0-1.8.2h-.3c-.4-.2-.8-.2-1.2-.2h0l-.5.5Z" fill="red"/>
  </g>
  <rect id="safe-area" x="27.7" y="24.5" width="174.1" height="39.5" fill="#fff"/>
  <metadata>
    <sfw xmlns="http://ns.adobe.com/SaveForWeb/1.0/">
      <slices/>
      <sliceSourceBounds x="7.33" y="7" width="216.31" height="105.9" bottomLeftOrigin="true"/>
    </sfw>
  </metadata>
</svg>