<?xml version="1.0" encoding="UTF-8"?>
<svg id="Livello_1" xmlns="http://www.w3.org/2000/svg" version="1.1" viewBox="0 0 548.9 138">
  <!-- Generator: Adobe Illustrator 30.0.0, SVG Export Plug-In . SVG Version: 2.1.1 Build 123)  -->
  <path id="sfondo" d="M232.6,11.3c.2-.1,0-.9.4-.9.8,0,2.3,1.5,3.9,1.5,2.3,0,1.9-.3,4.9,0,10,1,22.3-1.3,32.1-1s2.5,1.4,4.1.6l-1.1-1.1c2.3-.7,4.1,2.8,5.2,0,2.3,2.5,5.1,1.1,7.6,1.1,9.6,0,21.6.8,30.9-.3s2.5.3,4,.4c2.3.2,5.8-.7,8.2-.6,5.8,0,12.1.8,17.6.3s8-1.3,10.3.2,5.7-2.3,5.9,0h.8c.3-2.7,5.6.9,7.9,0,1.2-4.2,1.2-.4,1.5-.2s6.5.5,6.2-1c1.4,1.3,3.1,1.7,4.4,0,.4-.2.2.8.6,1.1.9.6,14.9,0,17.3,0,23.9.4,48.2.4,72,0,2.3,0,7,1.3,8.1-1.1,3,2.9,6.6,0,9.4.2s2.4,2.3,3.1-.2c2,1,6.2,1.6,8.6,1.5,8.5-.5,18.3.6,27.3.6,1.7,0,4.7-1.5,6.9-.4l-8.2,111.7c-1.4.6-.9-1-1.4-1.1s-6.7,0-7.6,0c-2.8.2-5.1,1.4-7.9,1.7l.6-1.1c-2.1.2-3.4,0-5.2-1.1l-.3,2.2h-2.2s1.1-1.1,1.1-1.1l-3.3,1.1c-.2-1,.9-.2,1.1-.8.3-.9-.2-.8-.8-.8-1.7,0-4,1.1-5.4,1s-1.5-1.2-2.5-.9l-.5,1.6c-.7-2.6-5.1-1.8-7.4-1.6s-1.4.8-2.2.9-1.3-.7-1.9-.6c-1.2.2-1,1.3-1.1,1.3-.7.4-1.5-.9-1.9-.9s-1,1.1-1.3.9.2-.8-.4-1.1c-4-1.8-4.6-.3-8.1.2s-3.5-.8-5.4-.8c-7-.2-15.3,1.1-22.4.9-7.7-.2-15.4.2-23.4.3s-5-1.3-7.8-.2-.5,1.4-1.5,1.3c-1.5.5-1.8-1.6-2.3-1.7s-7.6.5-8,.6c-.6.1,0,1.7-1.4,1.1l-1.1-1.6-.8,1.6h-.8c.2-1.4-1.4-1.4-2.4-1.1s0,1.6-1.4,1.1v-1.1s-.9,1.1-.9,1.1c-2.4-1-6.7-1.8-8.1.5h-.8c.1-1.5-1.8-1.8-3-1.7-3.2.2-2.4,2.9-6.6,1.5-.6-2.3-3.6,2-4.4-1l-.3,1.6-2.4-1.1-.5,1.1-1.4-.6.5-1.6c-2.7,0-5.7,2.9-7.4,0l-.3,1.1c-1.6-1.7-3.1-.3-5.1-.6l-.3,1.2c-1.2,1.6-1.6-.8-2.7-1-3.2-.6-8,.3-11.2.2s-1-1.2-3.9,0-3.7-.1-5.3,1.1l-.6-1.7h-8.4s-.3,1.7-.3,1.7l-1.7-1.6c-4.5,1-9.1.5-13.6.7s-5,.9-6.5.9-2.4-.8-3.6-.5l.6-1.1c-3.4.5-6.7-.2-10.1,0s-2.1.9-2.8,1c-4.6.3-9.4-1.3-14.5-.3s-3.1,1.7-3.9,1.6-.4-1.1-.8-1.4c-.8-.6-17.1-.3-20-.3s-7.2-.2-10.9-.3-4.1,1.3-6,1.4-.5-.4-.3-1.1c-2-.2-3.9,1.1-5.8,1.1s-3.6-1.1-4.9-1-1.9,1-3.3,1.1c-2.5.2-7-.5-9.8-.5s-8.5,1.9-10.9-.6l-.8,1.6c-1.8-1.5-2.8-.4-4.6-.3s-3.3-1.3-3.8.8c-.6-1-3.4-1.6-4.4-1.4s-1.2,1.3-1.6,1.3-1.5-1.4-2.8-1.6c-1.9-.2-5.8.1-8,.2-5.9.2-11.9.6-18,.6s-14.8-1-21.4-.7c-34.8,1.5-70.5,1.3-105.8,1.6s-4.7,1.1-7,.5l-.9,1.1c0-2.2-3.2-1-4.3,0,.3-1.5-1.6-.9-1.7-1.4.9-9.6.3-19.2.5-28.9s.6-9,.6-13.6-1.3-2.3,1.1-3.2c-2.7-1.3-1.1-4.9-1.1-7.1,0-4.2,0-8.4,0-12.5s.2-11.8-.6-17.2l2.2,1.1v-1.4s-1.5-.4-1.5-.4l-.6-33.1c1.3.4,3.4-1.1,4-1.1s.2,1,.6,1.1c3,.8,8.7-.7,12.2.5-.3-.8-.5-1.4.5-1.6-.2,1.3,1.5,1.3,2.6,1.4,12.6,1,27.7.2,40.2-.1,2.5,0,5.5.2,8,.4l-.3-1.1c3.7,1.4,10.2,1.7,14.2,1.1s1.7-.8,2.7-1.1l1.1,1.6,2.2-2.2.8.3c1.6,2.9,7.9,1,11.2,1,7.4,0,15.1.5,22.3.6,2.4,0,4.9-.1,7.4-.3l-.5-2.2,2.4,2.2c2.3-1.7,3,0,4.9,0,8.7.3,17.2,0,25.7,0s15.5.5,23.4.4c6.8,0,13.5-1.4,19.8-.6s5.2.8,6.4.7,2-1.1,3.2-1.2c2-.1,6.5,1.8,8.9.4Z"/>
  <g id="testo">
    <path d="M273.1,58.9l-1.6,49.6,21.8-5,.9-41.4-21-3.2ZM501.3,57.8c-1.2,0-3.6-.3-4.4.5-.7.8-1.2,8.3-1.4,10.1-.5,7-.3,14.4-.5,21.5l19.6,6.6c2-12.1,2.8-24.3,3.2-36.5-5.4-.5-11.2-1.9-16.6-2.2ZM512.2,37.1c-1.7-.4-2.8-1.4-5-1.6-1.5-.1-9.6,0-10.3.5l-1.4,13.1,21.2,2.7,1.7-13.6c-2-1.1-4.4-.7-6.2-1.1ZM292.7,36.3l-21.3-1.9-.5,14.7,21.3,3.3,1-15.5-.5-.6ZM485.6,36c-.4-.1-.5-.8-.6-.8-1.7-.5-3.3-1-5-1.2-1.9-.3-7.5-.8-8.9.2l-13.7,20.4c-1.1.8-8-14.4-9.8-15.5-1.6-1-7.8-1.6-10.1-1.9-1.6-.2-11.8-1.3-12.2-.9-3.3,18.9-3.3,38.4-3.8,57.5l21.3-.5c-1.8-1.9-.1-2.4,0-3.6.5-7.7.7-15.4.6-23.1.6-.8,6.2,5.1,6.9,5.4,1.4.4,2.4-.5,3.6-.4,3.1.1,6.2,1.2,9.3-.6l6.2-7.7c.4,3.8-.5,8.6,0,12.3.1,1,1,.5,1.2,1.6,1,7.7,0,21.1,0,29.5,0,2.2,0,4.6-.6,6.8l20.6-6.1,2.3-68.3c-1.2-2.9-4.7-2.3-7.2-3ZM190.5,33.3c-7.7-1.9-16.3-1.7-24.2-2.1-8.9,25.8-14.8,52.6-25.1,77.9,7-1.1,14.4.1,21.1-2.3l7.6-19.5,9.4-.5,3.8,23.4,21.2-5.4c-3.2-24.1-8.4-47.8-13.9-71.4ZM171.1,82.9c1.8-3.5,2.7-7.7,4.3-11.2.2-.5.3-1.3,1.1-1.3l2.2,12.5h-7.6ZM125.3,80.5l-5.2,19.9c-.9,1.3-7.7-.4-8.3-2.6-.5-1.8-.2-8.5-.1-10.8.3-6,1.6-12.5,2.2-18.5.7-7.5.4-19.1,2.4-25.9,1.7-5.8,5.9-4.2,10.6-6l1.6,21.8,21.2-3.3c-.7-5.5-.4-11.6-1.2-17-.4-2.9-.9-4-3.7-5-10.8-4-27.7-2.3-38.8-.1-11,2.2-11.6,2.2-13,13.7-1.3,10.8-1.5,22.4-2.2,33.2-.4,5.4-3.1,21,0,25.1,1.5,2,6,2.5,8.5,2.9,11.6,1.7,23.9,1.5,35-2.5,3.4-1.2,5.2-1.4,6.5-4.9,1.8-4.8,4.7-16.7,5.4-21.8.1-1,.2-1.9.1-2.9l-21.2,4.6ZM404.4,39.6c-7.1-4.1-14.9-7.3-22.8-9.6l-19.1,75.2,21.7-1.2,4.2-11.8,7.8,1,2.2,15.8,21.8-5.5c-2.4-22-8.5-43.2-15.9-64ZM389.8,85.6l2.7-9.8,2.2,10.4-4.9-.5ZM85.5,82.6c-.9-6.3-.6-7.4-7.4-7.9-9.2-.8-19.1,1.2-28.3,2-1.4-.7-1.8-2-2-3.4-.8-6.7.4-28.6,3-34.6.4-1,.9-2,1.6-2.8l7.9-1.6-2.7,28.3,21.8-1.1c.6-9.7,3.2-19.6,2.3-29.3-1.8-3-5.2-2.3-7.9-3-11.4-3-25.3-1.4-37,.8-4.7.9-7.3,1.4-8.9,6.4-2.4,7.6-3.9,31-3,39,.5,4.8,4.1,6,8.4,6.3,3.8.3,11.2-.3,15.3-.6,4.1-.3,8.3-1.3,12.5-1.6.9.3,1.2,2.1,1.4,3,.8,3.9,1.1,10.6,1.2,14.6,0,1,0,3.4-.7,4l-10.8,2.9-1.1-13.6-22.9,2.8c.2,3.8,0,16.5,2.7,18.8,2.8,2.4,7.8-.2,10.7-.7,11.3-2,24.5-5,35.5-8.7,1.7-.6,8.3-3,8.7-4.4.8-2.5,0-12.6-.4-15.7ZM267.1,105.8c-4.3-5.2-8.2-10.8-12.8-15.8-3.9-4.3-9.1-8.4-13-12.6-2.7-2.8-5.3-5.9-7.4-9.2,5-.2,19.1.8,22-3.9,2.3-3.7,2.2-16.8,1.9-21.5,0-1.8-.8-10.1-1.4-11.2-1.5-2.7-10.6-4.7-13.6-4.9-7.4-.6-15-.1-22.4-1.1l-16.6,1.7,6.6,80.7,20.7-2.7-.5-12.5,14,17.4,22.5-4.3ZM228.4,63.3l-2.2-29.4h9.8c-.8,9.4.5,19.7-2.8,28.6-1.1,1.5-3.3.7-4.9.9ZM362.4,68.8c-.6-.2-1.3-.6-1.9-.6-3.5-.2-9.3.8-13,1.1-1.8.1-6.8-.5-7.7.5-2.4,2.8-2.4,28.7-4.6,30.3l-14.8-1.7-.5-1c2-14.5,3.5-29.1,6.1-43.6,1.3-7.2.7-15.2,10.3-15.6.2,2.1,0,11.4,1.6,12.3l20.2,3.5c.6-.7-1.5-17.2-2.5-19-1.5-2.8-4.3-3.2-6.4-4.5-12-7.6-19.5-7.3-33.1-2.9-8.2,2.7-8,3.6-10,11.8-3.8,15.7-7.8,39.8-8.5,55.8,0,1.5-.3,4.4.5,5.5,1,1.3,7.7,2.1,9.7,2.3,11.8,1.7,29.2,3.7,40.8,2.8,1.1,0,7.8-1.2,8.2-1.6,3-2.1,4.1-23.9,4.6-28.6.2-1.5,1.6-5.8,1-6.8Z" fill="#fbfafa"/>
    <path d="M485,35.2c.1,0,.2.7.6.8,2.5.8,6,.2,7.2,3l-2.3,68.4-20.6,6.1c.5-2.2.5-4.5.6-6.8,0-8.4,1-21.8,0-29.5-.1-1-1-.5-1.2-1.6-.5-3.7.4-8.5,0-12.3l-6.2,7.7c-3.2,1.7-6.3.7-9.4.6s-2.3.8-3.6.4-6.3-6.1-6.9-5.4c.1,7.7,0,15.4-.6,23.1s-1.7,1.6,0,3.6l-21.3.6c.5-19.2.5-38.7,3.8-57.6.5-.4,10.6.7,12.2.9,2.3.3,8.5.9,10.1,1.9s8.7,16.3,9.8,15.5l13.6-20.4c1.4-1,7-.5,8.9-.2s3.4.8,5,1.3Z" fill="#fbfafa"/>
    <path d="M267.1,105.8c-4.3-5.2-8.2-10.8-12.8-15.8-3.9-4.3-9.1-8.4-13-12.6-2.7-2.8-5.3-5.9-7.4-9.2,5-.2,19.1.8,22-3.9,2.3-3.7,2.2-16.8,1.9-21.5,0-1.8-.8-10.1-1.4-11.2-1.5-2.7-10.6-4.7-13.6-4.9-7.4-.6-15-.1-22.4-1.1l-16.6,1.7,6.6,80.7,20.7-2.7-.5-12.5,14,17.4,22.5-4.3ZM228.4,63.3l-2.2-29.4h9.8c-.8,9.4.5,19.7-2.8,28.6-1.1,1.5-3.3.7-4.9.9Z" fill="#fbfafa"/>
    <path d="M358.1,54l-20.2-3.5c-1.6-.9-1.5-10.1-1.6-12.3-9.5.4-9,8.4-10.3,15.6-2.6,14.4-4.1,29.1-6.1,43.6l.5,1,14.8,1.7c2.2-1.6,2.2-27.5,4.6-30.3s5.9-.4,7.7-.5c3.7-.2,9.5-1.3,13-1.1s1.3.4,1.9.6c.7,1.1-.8,5.3-1,6.8-.5,4.7-1.6,26.5-4.7,28.6s-7.1,1.5-8.2,1.6c-11.6.9-29-1.1-40.8-2.8-1.9-.3-8.7-1-9.7-2.3s-.6-4-.5-5.5c.7-16,4.8-40.1,8.5-55.8,2-8.2,1.7-9.2,10-11.8,13.6-4.4,21.1-4.7,33.1,2.9,2.1,1.3,4.9,1.6,6.4,4.5s3.1,18.3,2.5,19Z" fill="#fbfafa"/>
    <path d="M79.5,61.6l-21.8,1.1,2.7-28.3-7.9,1.6c-.7.8-1.2,1.8-1.6,2.8-2.6,6-3.8,27.9-3,34.6s.6,2.7,2,3.4c9.2-.9,19-2.8,28.3-2.1,6.8.5,6.5,1.6,7.4,7.9.4,3.1,1.2,13.2.4,15.7s-7,3.8-8.7,4.4c-11,3.7-24.1,6.7-35.5,8.7-3,.5-7.9,3.1-10.7.7s-2.5-15-2.7-18.8l22.9-2.8,1.1,13.6,10.8-2.9c.7-.6.7-3,.7-4-.1-4.1-.4-10.8-1.2-14.6s-.4-2.7-1.4-3c-4.1.3-8.3,1.3-12.5,1.6s-11.4.9-15.3.6-7.9-1.5-8.4-6.3c-.9-8,.6-31.4,3-39s4.2-5.5,8.9-6.4c11.8-2.3,25.7-3.8,37-.8,2.7.7,6.1,0,7.9,3,.8,9.7-1.7,19.6-2.3,29.3Z" fill="#fbfafa"/>
    <path d="M190.5,33.3c-7.7-1.9-16.3-1.7-24.2-2.1-8.9,25.8-14.8,52.6-25.1,77.9,7-1.1,14.4.1,21.1-2.3l7.6-19.5,9.4-.5,3.8,23.4,21.2-5.4c-3.2-24.1-8.4-47.8-13.9-71.4ZM171.1,82.9c1.8-3.5,2.7-7.7,4.3-11.2.2-.5.3-1.3,1.1-1.3l2.2,12.5h-7.6Z" fill="#fbfafa"/>
    <path d="M149.8,55.1l-21.2,3.3-1.6-21.8c-4.8,1.8-8.9.2-10.6,6s-1.8,18.4-2.4,25.9-1.8,12.6-2.2,18.5-.4,9,.1,10.8,7.4,3.8,8.3,2.6l5.2-19.9,21.2-4.7c0,1,0,1.9-.1,2.9-.8,5.1-3.6,17.1-5.4,21.8-1.3,3.5-3.2,3.7-6.5,4.9-11.1,4-23.4,4.2-35,2.5s-7-.9-8.5-2.9c-3.1-4.1-.4-19.7,0-25.1.7-10.9.9-22.5,2.2-33.2s2-11.5,13-13.7c11.1-2.2,28-3.9,38.8.1s3.2,2.2,3.7,5c.8,5.4.5,11.5,1.2,17Z" fill="#fbfafa"/>
    <path d="M404.4,39.6c-7.1-4.1-14.9-7.3-22.8-9.6l-19.1,75.2,21.7-1.2,4.2-11.8,7.8,1,2.2,15.8,21.8-5.5c-2.4-22-8.5-43.2-15.9-64ZM389.8,85.6l2.7-9.8,2.2,10.4-4.9-.5Z" fill="#fbfafa"/>
    <polygon points="293.2 103.6 271.4 108.5 273.1 58.9 294.1 62.2 293.2 103.6" fill="#fbfafa"/>
    <path d="M517.9,60c-.4,12.2-1.3,24.4-3.2,36.5l-19.6-6.6c.2-7.1,0-14.5.5-21.5s.6-9.2,1.4-10.1,3.2-.6,4.4-.5c5.4.3,11.2,1.7,16.6,2.2Z" fill="#fbfafa"/>
    <polygon points="292.2 52.4 270.9 49.1 271.4 34.4 292.7 36.3 293.2 36.9 292.2 52.4" fill="#fbfafa"/>
    <path d="M518.4,38.2l-1.7,13.6-21.2-2.7,1.4-13.1c.7-.5,8.8-.6,10.3-.5,2.2.2,3.3,1.2,4.9,1.6s4.2,0,6.2,1.1Z" fill="#fbfafa"/>
  </g>
  <metadata>
    <sfw xmlns="http://ns.adobe.com/SaveForWeb/1.0/">
      <slices/>
      <sliceSourceBounds x="111.47" y="549.84" width="532.7" height="119.38" bottomLeftOrigin="true"/>
    </sfw>
  </metadata>
</svg>