<?xml version="1.0" encoding="UTF-8"?>
<svg id="Livello_1" xmlns="http://www.w3.org/2000/svg" version="1.1" viewBox="0 0 1496.9 218.5">
  <!-- Generator: Adobe Illustrator 30.0.0, SVG Export Plug-In . SVG Version: 2.1.1 Build 123)  -->
  <path d="M684.9,141.6l-38.1,1.1-16.9-36,4.9,50.1c-4.7,1-9.2,2.5-14,3.1s-1.7-.4-2.5-.3c-1.7.2-10.6,2.2-11.2,1.6-4.2-37.1-6.8-74.4-8.2-111.7l29.4-3.2,11.8,24.5,4.6,6.3,9.9,17.1-1.1-82.9c.7-.1,1.4.2,2.1.4,5.9,1.7,15.6,5.6,21.4,8.1s3.9,1.6,4.3,2.8l3.9,119Z"/>
  <path d="M1403.4,43.9v4.9s-24-1.1-24-1.1c2.3,21.1,1.6,43.6,6.3,64.3.5,2.3,2.2,9.4,3.3,10.9,3.1,4.2,6.2,1.4,10.1.2l-5.4-48.6c.8-.4,1.5-1,2.4-1.2,20.5-4.5,37.9-4,58.7-.4s14.5,1.7,16.1,8.4c2,8.1.4,20.8.1,29.3-.1,4-.3,25.9-1.8,27.4-5.4,2.5-10.1,5.3-16.1,6.5-9.9,2-35.3,5.5-44.3,2.6-6.8-2.2-7.5-12.3-8.7-18.3-3.7,1.6-7.6,3-11.4,4.1s-16.9,5-21.8,3.9c-7.4-1.7-8.4-12.9-9.6-19.3-3.4-17.5-3.6-35.5-5.1-53.2l-1.6-56.4,27.3,1.4,1.3,33.6,24.3,1.1ZM1441,138.2c0-2.1,0-4.2,0-6.3.4-9.8,0-20,0-30,0-6.2,1-11.8-.2-18.3-1.5-8.3-13.1-5.7-19.4-7.6,1.9,12.9,2.8,26,5,38.9s2.6,17.3,6.2,20.5,5.3,2,8.4,2.7Z"/>
  <path d="M446.7,18.4v25.1s13.6,1.6,13.6,1.6l-.5-5.4c6.1.2,12.2-.3,18.3,0s8.7.6,9.5,2,1.3,10.2,2.4,13.3,1.3,1,1.4,1.4c.1.7-.3,6.5-.6,6.7-2.3-.9-4.5.1-6.7,0-4.1-.3-7.1-1.9-10.5-2.6s-8.9-.7-10.7-1.7-.9-6.5-2.3-7.6h-13.4l1.1,30.2c2.1,19.8,1.8,40.7,5.1,60.4s1.7,11,5.3,13.8c6.8,5.3,13.5.2,20.7-1.1l-9.8-77c1.1-1.7,10.8,0,13.3-.6l15.5,3.3c0,1.2-.5,2.1-.4,3.4.5,5.1,2.6,11.5,3.5,16.7,4.1,23.2,6.1,46.7,8.4,70.1-.2,1.8-3.4,1.5-5.1,1.7-7.9.8-16.1-.6-23.8.8l-.6-9.3c-7.4,2.8-15.3,4.1-23.2,4.9-4.8.5-14,1.5-18.5,1.1-12.5-1.1-13.6-15.3-14.9-25.4-2.7-20.8-3.8-44.3-4.5-65.3s.6-18.2-.5-27.1c-1.7-1-3.5-2.2-5.2-3.1s-4.5-.3-4-3.9c.4-.4,8.6.7,9.8-.8v-25.3h27.3Z"/>
  <path d="M117.1,53c1.2.8,1.9,2.7,2.7,3.9,0,1.3-1.4,1.1-1.5,2.1-.4,3.4.3,13.6.6,17.5,2.2,37.8,6.4,75.6,7.6,113.4s.3,1.2.6,1.9l-28,2.8-4.1-51.8c-2,.3-4.3.9-6.3,1.1-14.6,1.3-32.9,2.2-47.2-1.4s-7.6-2.5-8.2-9.3.5-9.9.6-14.7c.3-18.1.1-37.7,2.2-55.6s1-9,2.7-10.9c2.4-2.8,13.3-3.9,17.2-4.1,13.3-.7,34.5-1.1,47.4,0s4.2,1.6,6.7,2.6,4.9,1.1,7,2.5ZM91.2,55c-6.2.6-13.1.1-19.1,1.9s-4.9,1.8-5.8,5.1c-2.5,9.9-1.5,27.7-1.9,38.5s-1.2,16.7-1.2,24.5.7,6.8,1.2,7.6c2.7,4.2,24.7,4.5,29.9,3.6l-2.7-37.9-.5-43.4Z"/>
  <path d="M1050.1,156.2l-28.8,1-7.3-33.9-1.2-.9-14.4,3.3-5.7,26.5-29.9,11,26-124.9,32.9-7.6,28.4,125.4ZM1012.5,117.5l-6.5-27.2-6,30,12.5-2.7Z"/>
  <path d="M592,53.5c2.6,2.6,3.6,12.1,4,15.9,2,18.4,2.4,41.1,2,59.6s-.2,11.8-1.2,13.2-6.7,3-7.6,3.3c-17.3,5.4-39.8,4-57.7,1.6s-11.4-1.4-13.4-3.5-1.8-5-2.1-7.1c-2.4-16.1-1.5-33.3-2.8-49.5l.6-41.7c7.4-.1,14.7-2.7,22.1-3.3,10.9-.8,26.7,1.4,37.3,4.1s16.1,4.8,18.9,7.5ZM568.2,139.5c-.7-25.9,0-51.9-2.2-77.7-.9-3-.5-11.7-4.6-12-6.8.1-13.8,1.1-20.5.3l1.1,57.5c.9,5.2.6,10.5,1.1,15.8s.6,10.9,3.5,12.8c4.5,3,16.1,2.6,21.5,3.3Z"/>
  <path d="M394.3,73h-28.4s.5-26.2.5-26.2c-4.1,1.1-10.2.1-13,4.2s-2.2,5.9-2.6,8.3c-1.2,6.9-2.9,26,0,31.9s4.6,3.4,8.3,3.7c8.1.5,16.3-.2,24.6.5s18.7,2.1,20.2,3.8c4,17.6,4,36,5.7,54l-75.2,8.1-9.3-32.6,29.9-6c0,1.5.4,2.9.8,4.3,2,6.8,4.3,16.3,6.9,22.5s1.6,3.4,3.4,3.9l12.2-2.5c-1.2-16.3-1.7-32.7-4.8-48.7-1.8-1.9-16.5-1.2-19.9-1.3-6-.3-12.5-.4-18.4-1.2s-13.1-2.1-14.8-8.6,0-35.5,2.9-44.1,5.2-6.3,10.9-7.1c11.6-1.7,35.6-3,46.6-.4s12.9,4.2,13.5,6.1.6,6.5.7,8c.1,6.5-1.1,12.9-.6,19.4Z"/>
  <path d="M211.7,44.6c.7,9.2.8,18.3,1.1,27.6.5,16.9,1,34.4-.5,51.2s-1.4,19-7.6,21.3c-14.5,5.3-45.2,6.3-59.9,1.5s-11.2-13-12.7-24.4V53.3c.9-.2.5,1.4,1.3,1.5s1.3-.5,2.1-.4c8.1,1.2,16.3,3.6,24.4,4.9-1.1,12.7,0,25.6.6,38.4s-.8,31.4,3.6,37.9c3.2,4.7,11.1,5.4,16,7.1,2.1-7.6,2.3-15.4,2.7-23.2s1.1-17.2,1.1-25.6c0-14.7-1-29.4-1.6-44.1l29.4-5.3Z"/>
  <path d="M309.7,91.4l-53.9,1c2.2,10.4,2.3,21.6,4.5,32s1.1,6.3,2.9,7.5c3.2,2,13-.9,17.1,0l-2.2-19.4.5-1.1,30-3.5c0,7.6,3.2,16.8,2.1,24.2s-1.2,2.3-3.1,2.9c-21.4,6.7-45.3,4.8-68,5.6-6-.5-6.8-2.3-8.2-7.6-2.1-8.2-3.1-19-4-27.6-1.6-14.1-3.9-32.4-3.8-46.3s.8-10.1,9.1-11.5c18.6-3.2,52.4-5.7,69.3,2.9,4.2,2.2,4.3,3.2,5.4,7.7,1.5,6.5,2.6,16,2.9,22.7s.3,9.3-.7,10.5ZM280.4,86l-2.7-32.7c-5.3,1.2-11.2.9-16.6,1.7s-8.2,1.9-8,9.5.6,10.1,1.1,14.7.7,5.3,1.1,7.8l25-1Z"/>
  <path d="M1129.7,80.9l-27.7,3.2-5.8-27.7c-1.2-1.5-8.7,1.8-10.3,2.8s-3.3,2.3-4,4.7c-1.8,5.7-2.1,29.4-.4,35s3.7,3.9,6.5,3.8c11.4-.1,24-3.1,35.5-3.3,2.7,0,5.7.5,8.4.6,1.4,8.5,2.6,17.2,3.3,25.8s.9,9.3,1.1,13.6.3,6.8,0,8.7-2.6,1.7-4.2,2.3c-6.3,2.4-10.6,2.1-16.6,3.6-7,1.7-6.1,3.6-14.8,3.7s-19.5.9-27.3,0-3.2-.6-4.1-1.4c-2-1.8-4.6-13.9-5.2-17.1s-1.8-7.2-1.1-8.2l28.1-7.1c.8.6,2.5,16.1,4.7,18.5s8.4,1.8,10.6,1c-.4-12.2-1.5-24.5-3.5-36.5l-34.3,2.8c-5.4-.6-13.5,1-15.4-5.4-2.1-6.7-2-36.4.2-43.1s5.2-6.2,9.7-7.7c13.5-4.6,44.1-6.9,57.3-1.7s4,3.4,5.2,6.8c2.3,7,3.1,14.9,4.4,22.1Z"/>
  <path d="M1181.5,87.5l1.1-30.5c-4.1,1-10.1-1.3-10.8,4.1-1.4,9.5,1.6,24.8,2.1,34.8s.6,26.6,2.1,39.7c1,1.5,11.6,1.3,13.7,1.5l-2.2-23.4,28.6-6,.9,1.3,1.6,22.4-.6,8.3c-4.5,2.1-8.6,4.8-13.4,6.5s-11.9,4.2-13.6,4.4c-3,.4-6.3-.9-9.2-1-9.4-.5-19.6,0-28.9-1.1s-4.8-2.5-5.2-6.3c-.8-7.9-.5-16.5-1.1-24.5-1.2-16.3-3.5-32.7-3.8-49s-.4-11.1.9-13.4,13.2-2.4,16.3-2.7c14.6-1.8,28.8-4.7,43.5-1.5s7.3,1.2,7.5,5.1-.9,9.5-1.1,13.6.2,10.4-.2,15.6l-28.1,2.2Z"/>
  <path d="M1219.2,42.3c7.3-.9,14.7-1.4,22-2.3,17.2-2.2,33.8-5.6,51.2-.9,3.2.9,5.3,1.2,6.3,4.6s1.1,8.8,1.3,11.8c.7,14.7.9,35.6-.6,50.1-.2,1.5-.6,3.9-1.6,5s-5.6,3-6.8,3.5c-13,5.4-47.9,11.3-61.6,9.7s-5.5-2.3-6.2-6.9c-2.8-18.9-2.6-43.1-3.4-62.5-.2-3.9-1-8.1-.5-12.2ZM1268.7,42.8l-21.8,1.6c2,22.3,1.9,44.8,4.1,67.1,1.8,3.8,15.7,1.8,19.4.8.3-4.2.6-8.3.5-12.5-.2-12.8-.6-25.9-1.1-38.7-.2-6.1.4-12.2-1.1-18.2Z"/>
  <path d="M870.2,45.9c0,1.3-.2,2.7,0,4.1,2.8,23.6,7.2,47.2,9.3,70.9s1.3,11.9,0,14.1-3,1.1-4.4,1.6c-15.6,5.2-51,5.6-67,1.3s-7.4-3.5-8-10c-1.1-12.3-1-28.4,0-40.8.2-2.4.6-10.4,3.1-11.1s9-.8,11.3-.7c10.5.7,20.9,5.2,30.8,8.2l-3.8-36.5,28.9-1.1ZM845.5,88.5l-16.3-3.3c-.2,8.1-.7,16.2-.6,24.3s.2,10.5.6,14.7c1.1,10.6,13.4,7.3,20.7,9l-4.4-44.6Z"/>
  <path d="M1338.6,19.3c.1,2.8-.2,5.7,0,8.5.6,13,1.9,26.2,2.2,39.2.5,21.4-1.4,46.1,1.7,67s.4,3.2.7,4.2c1,3,7.9,3.2,10.6,3.3l1.1,5.6c-.3.9-1.1.8-1.8.9-7.2.8-19.7.3-27.3,0s-6.3-.9-9.5-.6l-5.5-124.8,27.8-3.3Z"/>
  <path d="M718.1,48l11.6,83.6-27.6,5.6-12.3-88.9c.1-.5,2.5-.8,3-.9,8.7-.7,14.1-.8,22.9,0s1.6.3,2.4.6Z"/>
  <path d="M916,133.9h-22.6c-.9,0-1.4,1.6-1.7,1.6-1.4.3-2.7-.3-4-.5-.9-1,3.1-1.3-.4-3-.7-10.7-.7-21.5-1.2-32.2-.4-7.7-2.2-15.5-1-23.1.2-.3,1.9-.7,2.4-.7,6.4,0,10.9,1.1,16.9,2.2s7.2-.3,8.2,1.7l3.5,54Z"/>
  <path d="M713.2,16.8l1.7,17c1,.7,1.3.6,1.1,2-5.3,0-10.1,0-15.4-.7s-1.4-.8-2.4-.9c-2.1-.3-10-.5-10.9-1.7s-2.5-15.8-1.9-16.4l27.8.6Z"/>
  <path d="M910.6,63.9c0,.3-.6,1.3-.9,1.4-1.9-.6-4.3,0-5.8,0-7.1-.6-13.8-4.1-21-4.9.8-3.9-1.6-12.4-.3-15.6s5.2-.3,7.1-.2,1.8-.5,3-.4c5.3.6,10.3,3.3,15.5,4.1,1.5.3,2.3,3.5,2.3,4.7,0,3.1.5,8.1,0,10.9Z"/>
  <metadata>
    <sfw xmlns="http://ns.adobe.com/SaveForWeb/1.0/">
      <slices/>
      <sliceSourceBounds x="100.51" y="606.29" width="1438.58" height="186.66" bottomLeftOrigin="true"/>
    </sfw>
  </metadata>
</svg>