<?xml version="1.0" encoding="UTF-8"?><svg id="Layer_1" xmlns="http://www.w3.org/2000/svg" width="260.02" height="64.63" viewBox="0 0 260.02 64.63"><path d="M247.65,12.51c.24.17,1.34-.76,1.17.26h.23s0-.3,0-.3l.96-.18c.06.49-.6-.05-.48.6.05.3.45-.29.48,0l.25,13.91v.36s-.49.12-.49.12c.55.2.58.35.5.97s-.54.15-.5.59c.19,0,.5.08.6.24.2.29.32,6.01.37,7.08.18,3.39,1.23,12.78.69,15.59-.09.48-.64.92-.62,1.2.02.26.69.96.39,1.57-.91-.5-.64.18-.88.24-1.96.46-6.4-.18-8.59-.25-9.7-.31-19.49-.35-29.27-.69-4.37-.15-8.96-.35-13.51-.58-1.75-.09-2.25.51-3.99-.39-.19-.1.06.44-.46.5-.93.11-2.34-.26-3.37-.27-1.52-.02-3.26-.21-4.58-.21-.12,0-.08.44-.2.44-.96-.02-2.38-.43-3.38-.48-.57-.03-1.16.29-1.42.27-.15-.01-.12-.49-.27-.5-.3-.02-1.4.31-2,.33-.96.03-1.73-.23-2.66-.08.56-1.18-.26-.29-.6-1.2-.58-.18-.58.92-.36,1.2-1.19-.4-2.36.06-3.47.01-18.37-.88-36.93-1.06-55.36-1.55-2.53-.07-5.1-.51-7.6-.13l-.12-.73c-.11,0-.07.61-.99.63-7.79-.64-15.7-.15-23.48-.62-1.56-.09-.89-.48-1.91-1.21l.12.96c-.25.32-3.89-.22-4.67-.23-20.18-.28-40.69-.88-60.94-1.43-1.25-.03-3.56-.32-4.52-.26-.43.03-.78.46-1.17.43-1.55-.12-.88-1.65-.89-2.46,0-.89-.65-1.8.25-2.66-1.19-.37,0-1.2,0-1.67,0-.15-.49-.11-.51-.25-.03-.36.48-.98.49-1.2,0-.1-.44-.07-.48-.27-.19-.84-.13-4.73-.17-6.01-.14-4.21.04-8.96-.04-13.38-.04-2.15-.8-5.54-.15-7.57.41-1.31.91-.27,1.69-.2.45.04.87-.18,1.24-.17,6.69.14,13.37-.18,20.12-.1,1.6.02,3.99.49,5.3.42.58-.03,1.74-.57,2.33-.4.2.06.12.51.27.47.23-.06.51-.47.99-.49.59-.02,1.24.78,2.02.48l-.12-.48c2.12-.02,4.31.17,6.43.15,14.05-.09,28.05-.15,42-.13,50.61.06,102.76-.03,154.2-.24.42.12.52-.74.71-.74s.29.62.39.69Z"/></svg>