<?xml version="1.0" encoding="UTF-8"?>
<svg id="Layer_1" xmlns="http://www.w3.org/2000/svg" version="1.1" viewBox="0 0 231.1 291.6">
  <!-- Generator: Adobe Illustrator 30.0.0, SVG Export Plug-In . SVG Version: 2.1.1 Build 123)  -->
  <path d="M219.5,6.1l8.7,271.6-20.9-.2c-57.6-2.6-118-2.3-176.4-4.2-8.8-.3-17.6.6-26.1-2.2,1.5-14.6,0-29.5.8-44.1,0-2-2.5-2.2,1.2-3.3-2.2-2.6-3-8.9-2.8-12.3,3.8-60.7.3-123.1,2.9-184.5.3-7.5-4-8.4,8-10.1,4.6-.7,10.7.2,14.8-.1,41-3.2,83.6-5.8,125.3-8.4,8.8-.5,61.7-6.7,64.6-2.1h-.1Z" fill="#fff"/>
  <rect id="safe-area" x="14.5" y="26" width="196.8" height="236.4" fill="#fff"/>
  <metadata>
    <sfw xmlns="http://ns.adobe.com/SaveForWeb/1.0/">
      <slices/>
      <sliceSourceBounds x="3.97" y="13.9" width="224.23" height="273.19" bottomLeftOrigin="true"/>
    </sfw>
  </metadata>
</svg>