<?xml version="1.0" encoding="UTF-8"?>
<svg id="Layer_1" xmlns="http://www.w3.org/2000/svg" version="1.1" viewBox="0 0 242.6 154.4">
  <!-- Generator: Adobe Illustrator 30.0.0, SVG Export Plug-In . SVG Version: 2.1.1 Build 123)  -->
  <path d="M4.8,3.4c.6.4,11-.1,12.8-.1,21.2-.2,42.9,0,63.8.2,4.1,0,8,.1,12,.4,1.1,0,3.1-1.4,3.4.6l.4-.9c.9.3,4.9-.2,5.6,0,.4.1.3.7.5.7.5-1,2.8-.4,3.8-.5.7,0,1.5-.4,2.3-.2l-.2,1c1.4-1.1,2.4-1,4.1-.5v.5c.3-.3,1.6,0,1.7,0s0-.5.6-.7c1.4-.3,1.4.5,1.4.5,1.9-.6,3.7-.6,5.8-.5.5,0,.8.4.9.4.2,0,.5-.5.9-.5.7,0,1.9,0,1.6.9.8-.8,1.7-.9,2.7-.7.5,0,.7.5,1.4.5s.8-.5,1.3-.5l-.5,1.2c.7-.8,1.2-1.3,2.4-1.2v.5c.3-.8.5-.3,1-.3,6.9-.9,15.7.1,22.8,0,4.7,0,8.6-.3,13.2.4.3,0,.5-.4.9-.4s.9.3,1.3,0c-.1.6.2.8.7,1,0-1.5.9-.8,1.7-.9,4-.4,8.1,0,12.1-.3.1,0,0,.5.4.5,4,0,8.3-.6,12.2-.3.5,0,.3.5.5.5s.4-.4.8-.4h2.1c.3,0,.6.9.6.9.2.1.6-.7,1.1-.7s.8,1,1,1,.1-.4.4-.6c.9-.7,1.8-.2,2.8-.2,8.3-.4,17.3-.3,25.6,0,.6,0,3.8.2,4,.5.2.8-.6,1-.9,1.7.1,12.8.2,25.7.2,38.5s.1,25.7,0,38.7c0,1.4.5,3.4-.2,4.5.9.3.2,2.2.2,3.1,0,3.3.3,6.7.3,10.1s.1,3,0,4.1c0,.5-.5.3-.5.4.1,2,.4,4.2.5,6,0,.7-.4,1.7-.5,2.4h.5c0,.3-.3.7-.3,1.2,0,3.6.2,7.1,0,10.8,0,.8-.5,1.5,0,2.3-.7,0-1,0-.6.7l.6-.2c.2.2.3,3.3-.5,3.2.5,0,.7,1.2.7,1.7s-.5,0-.5.2c0,.4.4.8.4,1.2.1,3,.2,7.7,0,10.6,0,.6-.5,1.3-.4,2-.5.1-.7-.4-1.1-.4s-.8.2-1.2.2c-3-.2-5.8-.6-8.6-.9-.9,0-2.3.9-2.2-.8h-.4c-.8,1.2-1.8,0-2.9,1-.4-.1,0-.7-.1-.7-.5-.3-.5.5-.6.5-.3,0-.8-.2-1.2-.2-1.8-.1-4.7.1-6.2-.3-.7-.2-1-.8-.1-.7-1.3-1.5-.2,1.2-1.6.5-.6-.3-2.3-.4-3.1-.4s0-.3,0-.4c-.5-.3-.5.7-1.3.7-1.8,0-4.1-.4-5.8-.7-.3,0-.6.2-.9.1-.4-.1-.2-.9-.9-.7v.7c-1-.1-2.2-.3-3.3-.4-.6,0-1.2.4-1.8,0-.2-.1-.1-.6-.4-.6s-.6.4-1.2.5c-2,.3-4.1-.6-6.1-.3l.2-.7c-.8-.3-.9.4-1.1.5-1,.4-7.4-.3-9-.4-17.1-1-34-2.1-51-3.3-4.4-.3-9.2-.4-13.8-.7-17.2-1-34.2-2.4-51.3-3.5-.5,0-1.1.5-1.4,0,0-.2,0-.7,0-.7-.4-.4-.6.3-.2.7h-4.4c-13.2-.9-26.6-1.7-39.8-2.7-3.6-.3-7.1-.7-10.7-.9.1-.7-.4-1.4-.5-2.1-.2-3.5.2-8.1.2-11.7.1-29.9.7-59.8,1-89.7,0-4.3.2-8.6.1-13,0-.5-.4-1.3-.3-1.9,0-.5.5-1.1.5-1.5s-.8,0-.5-1c0-.2.6,0,.5-.3,0-.1-.4-.3-.4-.5-.5-2.8,0-5.8-.5-8.6.5-.5.6.5.8.5h0l-.2-.2Z"/>
  <rect id="safe-area" x="11.1" y="10.8" width="219.3" height="116.3"/>
  <metadata>
    <sfw xmlns="http://ns.adobe.com/SaveForWeb/1.0/">
      <slices/>
      <sliceSourceBounds x="22.54" y="19.99" width="235.19" height="145.45" bottomLeftOrigin="true"/>
    </sfw>
  </metadata>
</svg>