<?xml version="1.0" encoding="UTF-8"?>
<svg id="Layer_1" xmlns="http://www.w3.org/2000/svg" version="1.1" viewBox="0 0 264.4 348.9">
  <!-- Generator: Adobe Illustrator 30.0.0, SVG Export Plug-In . SVG Version: 2.1.1 Build 123)  -->
  <path d="M262.2,3.4c.1.1,0,2.1,0,2.5.5,8.1.2,16.8,0,25,0,.9.3,2.2.3,3.1s-.9,1.9-.2,2.7h-1c0,1.3.9.5,1,.6.1.2,0,2.2,0,2.5s-.5.2-.5.3c0,.5,1.4,2.7,0,3.1,1.2.4.2,1.9.5,3-1-.7-.4,1.1-.7,1.8,1.8,0-.7,1.8-.5,2l1-.2c.6.9-.4,1.9-.4,2.3s.3.4.4.7c.2,1.3-.7,1.4-.7,1.9s.8.2,1,1c.1.8.2,1.9-.7,1.6,0,.6.5.9.6,1.4.2,1,0,2.7-.1,3.8,0,1.3.3,2.8-.5,3.9h.7c-.6,1.2-.3,2.7-.4,4-.2,4.2.1,9,0,13.4,0,.8-.2,1.5-.2,2.4s.3,1.3.2,1.3h-.7c-.1,0-.1-1.1-.5-.7v1.3l1-.2c.1.5-.2,1.1-.2,1.5.2,3.4.3,7.2.2,10.8,0,.2-.1,2-.2,2s-.4-.4-.5,0c0,.6.5.2.6.8.2.7-.1,1.6-.1,2.3s.9,1.9-.5,1.9c1.2.6.5,2.5.5,3.6.1,8.7-.1,17.5-.3,26.1,0,.9.3,2.5.2,3.3,0,.1-.2.1-.2,1.4v5.1c-.2,26.6-.4,53.3-1,80.1,0,.9.4,2.1.3,2.9,0,.5-.5.3-.5.5.9,4,.2,7.7.1,11.8,0,5.1,0,10.5-.1,15.4,0,.6.6.7-.2,1,.5.5.5,1.9.5,2.6,0,2-.3,4.2-.3,6.3s.3,4.2.1,5.3c0,.2-.5,0-.5.3-.1.5.4.2.5.5.3,1.2-.1,4.1.1,5.6-.9.7-2-.1-2.7-.1-1.3,0-3,0-4.5-.1-27-1.4-53.9-2.7-80.9-4.3-.4,0-.8.3-1.2.3s-.1-.4-.2-.4-.5.4-.4-.3c-.4,0,0,.5-.6.5-1.4,0-3.2-.4-4.6-.4-4.1-.2-8.3-.5-12.5-.7-13.3-.8-27.2-1.2-40.8-2-6-.4-11.8-1-17.8-1.3-2.4-.1-5.2.1-7.6-.1-.6,0-2.2-.1-2.1-.7-.4,0,0,.4-.6.5h-2.9c-.3,0-.5-.3-.7-.3-.6,0-2.2.5-2.7-.1-.2-.3,0-1-.7-.7-.4.2-.3,1.6-1.6,0,0,.5-.6.6-.8,1-1.1,1.8-2.2,4.4-3.2,6.4-2.1,3.8-4.2,7.9-6.3,11.5-.2.4-.8,2-1,2.2-.2.1-.6,0-.7,0,0,0,.2.4,0,.7s-.5.7-.6,1.1-.2,1.1-.3,1.3c-.2.3-.9,0-.9,0-.2.5.5,1.8-1,1.7l.5.5h-.7c-.3.6.5.5.5.6,0,.6-.7.7-1.2.6.5.9-.2.7-.2.8,0,.2.4.7.2.9,0,0-1.1.2-1.2.3v1.5c0,.4-.6,1.8-.7,1.8,0,0-1.3-.9-1,.5,1.6-.5,0,.7-.2.8-1.5,2.6-3,5.8-4.4,8.5-5.7,10.9-11.4,23.2-18.2,33.7-.6,1,0,2-2,1.1,0-.5.5,0,.5-.6s-.8-1.5-.9-1.7c0-.3.3-.8.3-1.2,0-.8-.7-2.4-.8-3.4-.4-3.5-.4-7.5-.7-11-1.2-12.5-2.3-25.3-3.4-37.6,0-1.1-.4-2.3-.4-3.4s.5-1.6.4-1.9-.5-.1-.5-.3.3-.6.2-.9c0-.3-.4-.6-.5-1-.7-5-.9-11-1.2-16,0-.2.2-.4.2-.6l-10.8-.7.2-.7c-.7-.2-.4.4-.7.6-.2.2-3,0-3.5-.1-.3,0,.2-.8-1.2,0l-6.6-.7c.5-1.9,0-3.8,0-5.6,0-5.2,0-11,.4-16.1,0-.4-1.1-1.3.6-1.4,0-1.1-1-.6-1-1,1-.6-1-2.3,1-2.3-1.4-.9-.7-1.9-.7-3.2,0-2.8-.5-6.7-.3-9.4.1-1.2,0-.9,0-1.9v-3.7h1c0-.4-.9-.1-1-.2-.2-.2.3-5,.2-5.9,0-.5-.3-1.1-.3-1.7s.6-.3.5-.5c-.1-.3-.4-.3-.5-1-.3-2.7,0-6.1,0-8.9v-36.5c0-.6-.3-1.1-.3-1.7s.5-.9.5-1.2c-.2-1.7-.2-2.5-.2-4.4,0-11.6-.2-23.2,0-34.6,0-1.6-.5-2,.3-3.6.1-.2-.5,0-.5-.5s.3-1.4.3-2.2c.1-10.1-.1-20.3-.1-30.4,0-21.8-.2-43.4.4-65.3,0-1.6.1-3.4-.2-4.9l13.6-1c6.2.2,12.3-.8,18.5-.8s.3.8,1.3.8v-.7c1.7,1.1,1.3,0,1.7-.2.5-.4.5.4.6.5.8.2.8-.4,1-.5,1-.3,3.2-.5,4.2-.5,9.3-.4,18.8-.6,28.1-1.2.6,0,1.5-.5,1.7-.5s0,.4,0,.5c0,0,.4-.4.8-.5s.9.3,1.3.2l-.2.7h.7c0-.3-.3-.6,0-.9,0,0,2.2-.3,2.6-.3,5.3-.3,11-.3,16.3-.5,14.7-.8,29.2-1.5,44-2.5.3,0,.8,0,1.1.1s0,.6.4.5c-.2-1.4.6-.4,1.3-.4s1.1-.4,1.7-.4c9-.3,18.6-1.3,27.6-1.4.9,0,1.9.4,2.4.4s.1-.5.3-.5h2.1c1.4,0,5,.2,6.2,0,.2,0,.1-.4.3-.5.6-.2,1.8,0,2.6,0,16.9-1.2,33.9-1.5,50.6-2.4,4.6-.2,9.9-.7,14.9-.5.6,0,1.2-.7,1.5.3.4-1.2,2.2-.7,3.4-.7s.8-.3.8-.2c.1,0-.1.4.1.5.2,0,0-.4.3-.5.1,0,.8.1,1.2.1s.8-.3,1.2-.3c.8,0,2,.6,3,.2h0l.3-.3.2-.2Z"/>
  <rect id="safe-area" x="15.2" y="25.6" width="232.1" height="229.7"/>
  <metadata>
    <sfw xmlns="http://ns.adobe.com/SaveForWeb/1.0/">
      <slices/>
      <sliceSourceBounds x="11.3" y="24.35" width="260.5" height="343.25" bottomLeftOrigin="true"/>
    </sfw>
  </metadata>
</svg>