<?xml version="1.0" encoding="UTF-8"?>
<svg id="Layer_1" xmlns="http://www.w3.org/2000/svg" version="1.1" viewBox="0 0 242.8 32.2">
  <!-- Generator: Adobe Illustrator 30.0.0, SVG Export Plug-In . SVG Version: 2.1.1 Build 123)  -->
  <path d="M84.4,2.6c0,.1-.2.7,0,.7,1.2-1,1.6-.4,2.6-.5.7,0,1.7-.7,1.9.2.3-1.1.7,0,1.2,0,1.1-.1,2-.5,3.3-.4.6,0,1,.4,1.3.4s.6-.4,1-.5c1.5-.2,2.1,0,3.3.5,0,0,0-.7,1.2-.5.6,0,0,.6.7.5.2,0,0-.3.3-.5,1-.5,1.6.2,2.4.2,2.6.1,5.1,0,7.6,0s1.4-.4,2.2-.3c.3,0,1.1,1.1,1.3,1,0,0,0-.6.4-.7.5-.2.3.5.4.5.5.4.4-.4.6-.5.4,0,.9.3,1.2.3s.1-.5.3-.5,2.2.6,2.7.7c.3,0,.5-.3.7-.3.3,0,.7.5,1.2.4.2,0,0-.7.7-.5.2,0,.3.7.5.7s.3-.4.5-.4c.3,0,.6.2.9.2,6.3-.4,12.7-.4,18.9-.4,13.6,0,27.2,0,40.8.1,1.2,0,2.5.7,3.7,0-.7,1,.9,1.2.2,0,.4,0,.9.3,1.3.3,1.1,0,2.6-.3,3.8-.2.6,0,1.1.7,1.5.7s0-.4.3-.5c.5-.3,4.3-.2,4.9,0,.2,0,.2.5.3.5.2,0,.9-.4,1.4-.5,2.4-.4,4.5,0,6.8.2.9,0,3.3-.8,3,.6h1c.7-.7-.4-.4-.2-.6.2-.4,1.7-.3,2.2-.3s1.8.5,2.2.5c.6,0,1.1-.6,1.9.1v-.7c.9.6,1.7,0,2.4,0,4.4.1,9.6.6,13.9.4.6,0,3-.7,3.2-.4-.6,1.4.1,2.8.2,4.2.4,4.8.3,9.6.7,14.4.2,2.3.6,4.6,1,6.8-2.6,0-5.2.2-7.8.3-2,0-5-.2-6.9,0-2.2.2-2.1,0-4.2,0s-2.2,0-3.3,0c-5-.3-9.5.5-14.6.2-2.7,0-5.7,0-8.6,0-.9,0-2.6-.5-3.3-.5,0,0,.1.3-1.2.3-2.7,0-5.4.3-8.1.2-.6,0-1.3-.4-1.7-.4-.8,0-1.9.5-3.3.4-2.9-.2-6.2-.2-9.4-.2s-6.9.5-9.8,0c-.5,0-1.3-.6-1.7-.7-.1,0-.1.5-.2.5-.2,0-.6-.3-.9-.3-.9,0-.9.2-2.2.2-5.3,0-11,.6-16.5.2-.6,0-1.3-.3-1.7-.7-.4,1.5-2.1,0-2.9,0-.1,0-.1.4-.2.5,0,0-.9.3-1,.3-.5,0-4.8,0-4.9-.3v-.5c.1,0-.6.6-.6.6h-7.9l-.5-.6c-.2,1.2-.2.4-.9.5-14.3.5-28.7,0-43,0-6.5,0-13.1.2-19.6-.2-.9,0-1.7.6-2.4-.6-.2,0,0,.4-.3.5-1.8.4-4,.3-6,.2-5.8-.3-12,0-18-.4-1,0-3.1.2-4.3.2-6.6,0-13.1,0-19.7-.2-.9,0-.2-1.7-.1-2.5.2-2.9.2-5.3.6-8,.3-1.9-.1-2.6,0-3.9,0-2.2.5-6.9,1-9.1,0-.5.4-1.1.9-1.3,1.9,0,3.8-.1,5.7-.2,3.7-.1,7.3-.1,11,0,9.2,0,18.7-.4,28.1,0,8.1.3,16.6-.4,24.7.2,2.7.2,3.7-.4,5.7-.5.8,0,2.2.4,3.1.5.3,0,1.2-.3,1.3-.2h0l-.3-.3Z"/>
  <rect id="safe-area" x="7.8" y="7" width="224.9" height="17.6"/>
  <metadata>
    <sfw xmlns="http://ns.adobe.com/SaveForWeb/1.0/">
      <slices/>
      <sliceSourceBounds x="20.55" y="24.43" width="238.05" height="26.65" bottomLeftOrigin="true"/>
    </sfw>
  </metadata>
</svg>