<?xml version="1.0" encoding="UTF-8"?>
<svg id="Layer_1" xmlns="http://www.w3.org/2000/svg" version="1.1" viewBox="0 0 130.3 59.5">
  <!-- Generator: Adobe Illustrator 30.0.0, SVG Export Plug-In . SVG Version: 2.1.1 Build 123)  -->
  <path d="M116.4,12.3s.3.6,1,.9c.5.2,1.6,0,1.7,0,.3.2-.7,1.3-.6,2,.2.7,1.6,1.3,1.4,2.4-.1.6-2.1,0-1.7.9,2.6-.3,2.9.4,3.2,2.1,1.2,6.3,1.1,13.1,1.7,19.3.2,1.4,2.7,6.8.9,7.7l-114.8,1.5L5.6,10.4c8,.1,16.1-.2,24.1,0,24.9.4,48.6,1.3,73.4,1.2,2,0,11.7.4,13.3.8h0Z" fill="#fff"/>
  <metadata>
    <sfw xmlns="http://ns.adobe.com/SaveForWeb/1.0/">
      <slices/>
      <sliceSourceBounds x="1.67" y="41.77" width="119.06" height="38.86" bottomLeftOrigin="true"/>
    </sfw>
  </metadata>
</svg>