<?xml version="1.0" encoding="UTF-8"?><svg id="Layer_1" xmlns="http://www.w3.org/2000/svg" viewBox="0 0 122.4 122.4"><defs><style>.cls-1{fill:#fff;}</style></defs><path class="cls-1" d="M35.46,33.85c.06.08-.04.53,0,.72.39.09.09-.36.41-.47.86-.31,1.98.1,2.83.1,13,.06,25.79,1.18,38.82,1.21.4,0,1.72-.39,2.13-.37.15,0,.13.4.17.43.08.04,1.2-.31,1.58.35l.49,30.94c-.19.45-.76.24-.68.62.84,0,.88,1.35.95,2.04.19,1.89.3,3.1.22,5.26-.04,1.07.42,1.8-.22,2.88l.48-.12.24,5.75c-3.01.19-5.99-.28-8.99-.41-7.48-.32-14.97-.57-22.51-.68-2.67-.04-6.54.3-9.1-.11-.4-.07-.68-.47-.73-.47-.2.01-.3.63-.38.69-.04.03-.68-.26-1.05-.24-1.51.1-2.11.07-3.6,0-1.16-.05-1.83.86-2.04-1.05-.34-3.05-.08-6.13-.21-9.11-.51-11.28-.94-22.88-.89-34.24,0-.48.16-3.13.25-3.26s1.75-.54,1.81-.47Z"/></svg>