<?xml version="1.0" encoding="UTF-8"?>
<svg id="Layer_1" xmlns="http://www.w3.org/2000/svg" version="1.1" viewBox="0 0 375.6 1010">
  <!-- Generator: Adobe Illustrator 30.0.0, SVG Export Plug-In . SVG Version: 2.1.1 Build 123)  -->
  <path d="M372.9.8l1.1,66.6c-3.8,1.6-.1.9,0,1.8.2,1-1,3.1-1,4.8s.9,3.3.9,4.9c0,4.3-1.2,8.8,0,13.4-6.3-1.4-3.7,1.6,0,2.9.5,10.5-.4,21.1,0,31.6,0,1.5,1,3.3.9,4,0,.6-1.8.3-1.7.8,1.5,5.5,1.9,16.7,1.5,22.7,0,1.3-1.4,2-1.4,3.1,0,1.2,2.1,2.9,1.5,4.6-4.9-1.7,0,1.9,0,2.2,1.7,8-1.1,18.2-.8,25.7,0,.5,1.7.1,1.7,1.6.3,7-.9,16.9-1,24.3-.1,66.8,2.4,133.4.6,200.4,0,3.5,0,6.2-3.8,5.2-.7,2.6,2.1,1.1,2.9,2.4,1.9,2.9-.4,13.9-.4,17.5,0,4.4.3,8.5.1,13,0,1.1.8,2.2.7,3.2,0,.9-1.7.1-1.7.9s1.2.1,1.4.5c.7,1.1-.4,14-.4,16.5,0,8.6,1.9,25.3-.5,32.8-.5,1.5,1.6,1.4-2.1,2.1,6.6,1.4,1.7,7,1.8,10.7s1.7,9.6,1.1,14.3c-.6,5.5-.7,11.8-.5,18,0,4.3.2,8.7.9,12.9.4,1.7-2.6,1.9-2.5,2.4,1.6.2,2.4,5.6,2.4,7.2,0,3-4,10-3,11.7,0,.1,2.5.1,1.3,1.7-.1.1-2.9.2-1.5,2.5.1.3,3.5-1.6,3.3,3.7-.1,2.8-4.1,1.2-4.1,2.4,7.3,1.4,2.9,3.8,2.8,7.3,0,2.2,3.1,4-.3,4.9,1.3.9,2.3,8.2,2.2,9.6-3.3,52.5-.6,108.4-.7,161.5,0,9.4,1.3,22.8.5,31.6-.2,1.7-2.1,2.5-2.1,4,0,.5,1.6.3,1.7.9.1,1-.8,2.2-.8,3.2.3,10.7.9,21.5.8,32.3l-2.5.8c0,1,2.3-.2,2.5.8.9,5-.2,15.3,0,21.1.1,8.5,1.3,17.7,0,26-1.7,11.5-.4,23.2-.4,34.8,0,16.7-.8,34.7-.5,51.9,0,3.3,1.7,7.1.7,10.4-1.1,3.5-4.4,1.4-6.7,1.3-38.9-.5-77.6,1.5-116.7,1.6-1.9,0-9.6.5-11.2.9-.7.2-.2,1.5-1.7,1.7-3,.2-1.7-1.7-2.5-1.7-.9,0,.3,2-1.2,1.6.6-2.1-2.7-2-4.3-1.6-.8.2-.2,1.5-.9,1.6-1.9.4-.8-1.4-1.7-1.6-3-.8-7.4,4.8-9.6,0-.8,0,0,1.4-.9,1.7-1.5.4-8.8.4-11.2.6-9.6.5-19.5,0-29.1.3-45.8,1-93.7.9-140,3.2-2.3.1-7.2-.8-8.2-.6-1.1.2-.7,2.1-1.6,2.2-1.8.4-.9-1.4-1.7-1.6-1.6-.4-13.3-.4-15.1,0-.6.1-.6,1.5-1,1.6-2.2.6-1.9-1.2-2.3-1.3-1.6-.7-3.8-.2-4.4-2.5s-.9-11.4-1-14.4c-.3-11.7.8-23.4.9-34.9.3-56.7-.1-112.7.5-168.9,0-4.9-1.3-17.5.2-21.5.4-1,1.6-.3,1.6-1s-1.2,0-1.6-1c-1.5-3.8-.8-13.6-.9-18.4-.3-41.5.5-83.2.4-124.9,0-20.3-1-36.7,1.3-56.8,0-.4-1.4-.3-1.6-.9-1.1-4.8.2-15.7,0-21-.8-40.6-1-81.1-1.6-121.7-.9-59.9,0-120.4.3-180.7.1-23.1-.1-47.4,1.1-70.5.4-8.6-1.8-19.1-1.5-27.6.5-11.5,0-24.2,0-36.5,0-13.6,1.3-28.2.7-42-.4-10.6-3.2-17.5.9-27.7-.1-8.2-1.6-18.2,1.6-25.9,1.6-1.6,8-.2,10.9-.4,26.8-1.3,58.6-4.3,84.9-2.9,2.7.1,5.6,1.9,8.5,1.3l.4,1.6c.8-2.6,5.8-3.8,7.9-2.5.8.5.1,2,1.4,1.7.1-.7-.4-2.3.5-2.5,4.5-.8,12.8.7,17.9.7,3.2,0,7.1,0,10.4-.2,1.3,0,2.6-1.4,4.8-1.3s3.2,1.5,4.1,1.7c.5.1,0-1.6,1.6-1.7,4.8-.4,12.1,1.4,16.6,1.3,1.2,0,2-1.4,2.9-1.3,1.3.2.2,3.2,2,3.2l2-3.2c.8,3.3,4.6.3,7.4,0,3.6-.3,10.6,1,13.7,0,1.7-.5,1.8-3.6,2-.1,1.7,0-.1-2.1,2-1.6.5.1,0,2.7,3.9,1.6.7-.2.3-2.3,2.6-1.6.7.2.5,3.2,4.1,2.5.7-.1-1-3.8,4.7-2.4.7.2-.1,1.5,2.5,1.7,3.6.2,2.7-1.5,3.4-1.7,1-.2,6.1-.3,7,0s.2,3.6,1.9,0c10.2,0,20.5-1.2,30.7-1.2,1.9,0,6.7,1.6,8.8,1.2.5,0,1-4.2,2.5,0,2.7-2.8,5.3-1.1,8.1-1,1,0,2.2-.8,3.1-.7.5,0,.5,1.7.9,1.7,2.3.2,2.6-2.6,4-2.6,1.7,0,2.9,1.3,4,1.3,4.4.2,11-2.4,15.3-1.3.9.2.2,1.6.9,1.7.8-3.2,3.2-.9,5.5-1.1C335.8.6,353.3.2,369.4,0c1.1,0,2.4.4,3.4.8h0Z"/>
  <rect id="safe-area" x="17.9" y="29" width="339.1" height="945.9"/>
  <metadata>
    <sfw xmlns="http://ns.adobe.com/SaveForWeb/1.0/">
      <slices/>
      <sliceSourceBounds x="17.07" y="-0.04" width="375.87" height="1010.04" bottomLeftOrigin="true"/>
    </sfw>
  </metadata>
</svg>