<?xml version="1.0" encoding="UTF-8"?>
<svg id="Layer_1" xmlns="http://www.w3.org/2000/svg" version="1.1" viewBox="0 0 258.3 535.7">
  <!-- Generator: Adobe Illustrator 30.0.0, SVG Export Plug-In . SVG Version: 2.1.1 Build 123)  -->
  <path d="M18.9.3v.5c.6-.5,1.4-.6,2.3-.6,6.6-.2,14,.4,20.7.7,1,0,2.4-.4,3.3.1.3.2,0,1.1.8-.2,2.7.2,5.4.1,8.2.2.8,0,1.7.4,2.4.4.1,0,0-.4.4-.5.6,0,1.1.2,1.7.3.3,0,1.2-.3,1.4-.2.5.2.3.8.5.9,1,.4.2-.7.5-.7.6-.1,2.6,0,3.4,0,5.5.2,11,.3,16.5.5,1.8,0,4.5-.3,6.2.1.4.1.6.5.8.6.1,0,1.2-2.1,1,.2l.7-.7.2.7c.3,0,0-.6.3-.7.2-.1,4.9-.1,5.5-.1,1,0,1.4.8,1.5.8.5.1,1.3,0,1-.7l.7.7c-.2-1.3.4-.4,1.1-.5,2.3-.1,5.6-.1,7.9,0,.8,0,1.3.8,2.2,0,.2,1,.3,0,.7,0,.2,0,.5.3.8.4,2.8.2,7.7,0,11,0,9,.2,18,.3,27.1.6,1.1,0,3.2-.7,3.8.6.2,0,0-.4.6-.6.6-.1,2.9,0,3.8,0,6.1,0,12.4.5,18.5.6,7.9.2,15.8.1,23.6.5v.7c.7-.4,1-.8,2.1-.8.9,0,.5.5.6.5.1,0,.4-.4.6-.4.9-.2,6.2,0,7.1.2.1,0,.8,1.4,1.4.5l-.7-.5c1-.2,1.8.7,2.7.5.2,0,.2-.4.3-.4.8-.2,6.4.4,7.7.4.4,0,1.2.4,1.5.2.2-.2-.3-.8.8,0l.2-.5c-.1,1,1.1,0,1.8,0,.4,0,.3.5.5.5.6,0,2.3-.7,2.9,0,.1.1-.2.4,0,.5,1.4.2,2.1-.6,2.4-.6s1.1.8,1.8.4c-.6-1.2.6,0,.8,0,0,0,.2-.9,1.1-.5l-.2.5c.2.2,4.7.4,5.1.2.2,0,0-.6.5-.5v.5c3,.3,6.2.5,9.4.5.6,0,1.4-.3,1.6-.3.2,0,.1.5.3.5.4,0,2.4,0,2.5,0,0,0,0,.9,0,1s1.1,0,1.2,0,0,1.5,0,1.8c0,.5.5.3.5.5,0,.1,0,1.3,0,1.4-.1.4-.9.2-.7,1,0,0,1.8,1.2,0,.6-.5,1,.7,1.5.7,1.6s-1,.6-1,1.1l1-.2v1.2l-1-.2c-.1,1,1,1.3,1.2,1.5,0,0-.2.5-.2.8.1,3.2.5,7.7.2,10.8,0,.7-.1,1-.7,1.2,1.3.6.2.6.3,1.2,0,.3.7.7.5,1.5,0,.3-.6,0-.5.5,0,.2.4,0,.5.3.2.8-.1,2.2-.1,3.1.4,9.3.2,18.5.1,27.8,0,2.1.6,5.3,0,7.4-.1.4-1.7.6.2.8,0,2-1.7,1.2-1.7,1.7.3.4,1.2-.2,1.5,0,.7.5-.2,1.5-.2,1.7s.4.5.4.9c.2,4.3,0,9.9,0,14.1,0,.4-.4.8-.4,1,0,.1.5,0,.5.5s-.4.8-.4,1,.4.5.4.9c0,3,.3,7.7,0,10.6,0,.7-.4.7-.5.9s.7,0,.5,1.2c0,.5-.5.3-.5.3-.1.2.4.4.4.6,0,.2-.5.5-.4,1,0,.1.5,0,.5.2,0,.3-.6.9-.4,1.4,0,.2.4,0,.4.1.3.2-.4.2-.5.3-.2.7.5.5.5.9.1,1.3-.4,3.2-.5,4.6,0,.1.6,0,.5.7,0,0-.8,0-.5,1.2,0,.2.5.1.5.3,0,.4-.4.5-.5.9-.1.7.5,1.6.5,2.2.2,3.9.1,8.1,0,12,0,.7-.1.3,0,1.3.1,1.4,0,2.6,0,4,0,.2-.6-.1-.5.5,0,.2.4,0,.5.3.2.7,0,2.4,0,3.3.2,4.1,0,8.1,0,12.2,0,.7.3,1.4.3,1.9,0,.5-.5.3-.5.4.1,1.8.2,2.7.2,4.6,0,23.4,0,46.8,0,70.3,0,6.8,0,13.5-.2,20.2,0,.5.2,1.9.2,2.1,0,.2-.5.2-.5.3,0,.2.4.7.5,1.2.4,4.6-.1,9.2-.1,13.9,0,9.1.6,19,.2,28.1,0,.5-.4.8-.4,1,0,.3.4.6.4.7,0,.2-.7.3-.7.5s.6,0,.7.9c.3,2.6-.4,6,0,8.7-.9.8-.2.4,0,1.2.1.6,0,3.6,0,4.3,0,1.2-1,.4-.7,1,.1.3.6,0,.7.2s0,3.4,0,3.8-.5.3-.5.5c0,.4.4,1,.2,1.5-.4.1-.1-.4-.4-.4-.4,0-1,0-1.1.5-.1.6,1.4.3,1.4.4.3.2.4,2,.3,2.5,0,.2-.4.2-.5.3-.9,1.5,0,.9.3,1.6.2.6.2,5.3.1,6.3,0,.7-.4,2-.4,2.7s.8-.2,0,1.1c-.8-1-1.4.3-1,.7,0,0,1-.5,1.2.1,0,.2-.6,0-.5.4.6,0,.7.7.7,1.2-2.6-1.5,1.5,2.2-.7,1.9.7-1.2-.9.1-1,.6-.1.8.1,1.9,0,2.8l1.7-.7c.1.8-1,.5-1.4,1-.6.8-.2,2.8-.3,3.8.5,0,.1-.8.2-1s.7,0,.9.2c.9.4.7,3.6-.7,2l1-.5h-1.4c.2,1.2-.3,5.6,0,6.2,0,.1.4,0,.4.2.1.5-.4.3-.4.5-.1.3-.1,3.4,0,3.9.2,1.2,1.3-.6,1.4.8l-1.4.7c.3.2,1.1-.3,1.2-.2.2.1.3,1.8.3,2.2,0,.2.3.4.4.8,0,.7-.6,1.6-.6,1.9-.1,1.5.5,3.7.2,5.6,0,.6.4.9-.3,1.1h.5v5.8c0,2.1,0,4.3-.1,6.5,0,.8.6,1.4-.6,1.9.8.2.7,1.3.7,2.1.2,4.8,0,10.1,0,14.9s0,11.8-.2,17.7c0,.4.2,1,.2,1.5,0,.6-.8-.1,0,1.4v14.9c0,.4-.9-.3-1,0-.1.9.3.5,1,.6-.3,1.2,0,2.5,0,3.7-.3,5-.1,10.8-.2,16.1,0,1.4.4,6,.1,6.7,0,.2-.4,0-.4.2,0,.1.8,0,.5.7-.8.4-1-1.1-.7-1.6-1,0-.3,1-1,1.3,1.2.1-.4,1,0,1.3.2.1,1.6.2,1.7,1.1l-.2,8.6c.3,2,0,4.1,0,6.2,0,.5.2,1.9.2,2.2s-.5,0-.5.3.4,0,.5.3c.3,1.1-.1,3.8-.1,5.1,0,9.2,0,18.4.1,27.7,0,1.3.2,6.1-.8,6.8-.2.2-1.3,0-1-.7-.5.3-.1.8-.3,1.1-.7.9-1.2.1-2.1.2-35,1.4-70.5,2-105.7,3-2.6,0-9.2.9-11.3.4-.4,0-1-.6-1-.5,0,0,0,.7-.6.7-.5,0-.8-.5-1.1-.5-4.3.8-9.1.5-13.5.5-1.1,0-2.4,0-3.3,0-.4,0-1.2,1-1.9,0,.2.4-1.3.5-1.4.5-.2,0,0-.6-.3-.5-.6.3-1.1.5-1.7.7-.2,0,0-.5-.2-.5-.4,0-.5.4-.8.4-.4,0-.9-.2-1.4-.2-.7,0-.9.7-1.1,0-.2-1.1-.6.2-.8.3-.2,0-3,.2-3.4,0-.3,0,0-.7-.2-.7-.5,1.2-1.2.7-2.1.8-.3,0-.7.3-1,.2-.3,0,0-.5-.3-.5s0,.4-.3.5c-.3,0-1.3-.2-1.8-.1-12.7.8-25.8.7-38.6,1.1-6.7.2-13.5.7-20.1.8-.8,0-2.8.1-3.3,0-.3,0,0-.5-.3-.5s0,.4-.3.5c-1.3.3-3.5-.5-4.8.2l-28.3.5c-.2-2-.1-3.9-.1-5.9,0-2.9-.1-6.2-.1-9.1,0-1,.4-2,.1-3.1l.7-.4c-.9-.8-.5-2.3-.6-3.6-.3-6.6-.1-13.7-.1-20.5,0-15.8,0-32.1,0-48,0-17.4.1-34.5,0-51.8,1.8-.4.1-.6,0-1,0-.2.2-.6.2-1-.1-2.2-.2-4.5-.2-6.7,0-1.2-.2-9,0-9.4,0-.1,1,0,0-.4.1-1.2.2-2.4.2-3.5,0-.3-.4-.7-.4-1,0-1.7.6-3.7.1-5.5,1-.3.2-.3,0-.8-.3-1.8,0-6.3,0-8.4s.1-1.1.1-1.9-.4-4.2,0-4.7c.1-.1.4-.2.6-.2-.1-.5-.7-.2-.7-.8-.2-1.7,0-4.4,0-6.2-.1-15.2-.2-30.7,0-46.1,0-.5-.2-.9-.2-1.4,0-.3.4-2.5.5-2.5,0,0,.8.5.9-.1,0-.3-.7-1.2-.5-1.8l-.7,1.4c.4-1.5-.2-3.3,0-4.7,0-.5.5-.3.5-.5-.5-2.4-.5-3.8-.5-6.2,0-7.2.2-14.1.2-21.3,0-26.6-.7-53.5,0-80.1,0-1.1-.3-2.5-.1-3.6,0-.5.6-.3.5-.5-.3-.3-.6-.6-.6-.9-.2-1.8.2-4.6.2-6.5,0-8.3-.2-16.6-.2-24.9,0-13.5,0-27.4,0-41s.4-1.5.4-1.9-.2.2-.2-.9c-.6-17.2.1-34.7,0-52.1,0-1-.6-1.5.5-1.9-1-.4-.5-2.4-.5-3.4-.2-8.1,0-16.7,0-24.7,0-3.1.3-6.2.4-9.1,0-1.2-.6-6.4.8-6.8l16.6.2h0Z"/>
  <rect id="safe-area" x="12.4" y="20" width="229" height="491.3"/>
  <metadata>
    <sfw xmlns="http://ns.adobe.com/SaveForWeb/1.0/">
      <slices/>
      <sliceSourceBounds x="13.62" y="12.16" width="255.94" height="535.71" bottomLeftOrigin="true"/>
    </sfw>
  </metadata>
</svg>